/* XPM */
static char * Chest_2_xpm[] = {
"64 64 556 2",
"  	c #010101",
". 	c #867D4D",
"+ 	c #6C6543",
"@ 	c #BCB064",
"# 	c #A89D5B",
"$ 	c #877F4D",
"% 	c #5C573E",
"& 	c #D7C970",
"* 	c #C1B566",
"= 	c #9C9256",
"- 	c #6A6342",
"; 	c #CEC16C",
"> 	c #E5D677",
", 	c #A69B5A",
"' 	c #706944",
") 	c #A99D5B",
"! 	c #D1C36D",
"~ 	c #E9DA79",
"{ 	c #EADA79",
"] 	c #D2C46E",
"^ 	c #6E6844",
"/ 	c #292931",
"( 	c #000027",
"_ 	c #00002A",
": 	c #000026",
"< 	c #000028",
"[ 	c #091D35",
"} 	c #3F474E",
"| 	c #656C6A",
"1 	c #808781",
"2 	c #8F968E",
"3 	c #8F978E",
"4 	c #818881",
"5 	c #686E6A",
"6 	c #464B4E",
"7 	c #232635",
"8 	c #000023",
"9 	c #D3C46E",
"0 	c #A99E5B",
"a 	c #6F6844",
"b 	c #2A2A31",
"c 	c #000024",
"d 	c #1B273A",
"e 	c #535A5C",
"f 	c #808881",
"g 	c #A1A99D",
"h 	c #B3BCAE",
"i 	c #B4BCAE",
"j 	c #A2AA9D",
"k 	c #838981",
"l 	c #585D5C",
"m 	c #2A2D39",
"n 	c #00001B",
"o 	c #D0C26D",
"p 	c #E8D978",
"q 	c #D4C66F",
"r 	c #ADA25D",
"s 	c #7B7348",
"t 	c #4B4738",
"u 	c #353333",
"v 	c #353231",
"w 	c #2B2327",
"x 	c #2B2127",
"y 	c #44403F",
"z 	c #6E6E66",
"A 	c #9A9E90",
"B 	c #BCC2B0",
"C 	c #CFD7C2",
"D 	c #BAC2B0",
"E 	c #969C90",
"F 	c #656A65",
"G 	c #2F333C",
"H 	c #000012",
"I 	c #E9D979",
"J 	c #ECDC7A",
"K 	c #DBCC72",
"L 	c #BCAF64",
"M 	c #968C53",
"N 	c #7A7348",
"O 	c #6E6744",
"P 	c #716A44",
"Q 	c #706741",
"R 	c #6B5C37",
"S 	c #6A5632",
"T 	c #746244",
"U 	c #8E8369",
"V 	c #B2AE93",
"W 	c #D0D1B3",
"X 	c #E1E4C6",
"Y 	c #DEE3C6",
"Z 	c #C8CDB3",
"` 	c #A1A592",
" .	c #6C6F67",
"..	c #30333C",
"+.	c #00000E",
"@.	c #EBDC7A",
"#.	c #F2E27D",
"$.	c #E7D878",
"%.	c #D3C56E",
"&.	c #A79D5B",
"*.	c #A99D5A",
"=.	c #A79856",
"-.	c #A38E4B",
";.	c #A18542",
">.	c #A58649",
",.	c #B39A66",
"'.	c #CCBB8B",
").	c #E1D9AA",
"!.	c #EDE9BB",
"~.	c #E7E6BA",
"{.	c #CECEA9",
"].	c #A4A58A",
"^.	c #6C6D61",
"/.	c #242939",
"(.	c #00000D",
"_.	c #A79C5B",
":.	c #F6E67F",
"<.	c #D3C56F",
"[.	c #D1C46E",
"}.	c #D1C26C",
"|.	c #D0BD67",
"1.	c #CCB25B",
"2.	c #C9A64F",
"3.	c #CAA24D",
"4.	c #D1AC5F",
"5.	c #E0C47E",
"6.	c #EDDB97",
"7.	c #F3E8A6",
"8.	c #EAE3A5",
"9.	c #CFCB96",
"0.	c #A5A27A",
"a.	c #6D6C57",
"b.	c #262936",
"c.	c #000018",
"d.	c #A39859",
"e.	c #CBBE6B",
"f.	c #F5E57E",
"g.	c #E8D979",
"h.	c #E8D777",
"i.	c #E6D171",
"j.	c #E3C665",
"k.	c #DFB958",
"l.	c #DEB14F",
"m.	c #E1B557",
"n.	c #E9C66D",
"o.	c #F1D780",
"p.	c #F2E18C",
"q.	c #E7DB8C",
"r.	c #CEC480",
"s.	c #A7A06A",
"t.	c #787250",
"u.	c #48453A",
"v.	c #15172B",
"w.	c #998F54",
"x.	c #BFB265",
"y.	c #DACC72",
"z.	c #ECDD7A",
"A.	c #E8DA79",
"B.	c #E3C666",
"C.	c #E0BA58",
"D.	c #DDB14E",
"E.	c #DEB250",
"F.	c #E3BD5D",
"G.	c #E7CB6C",
"H.	c #E7D376",
"I.	c #DECF77",
"J.	c #CABE6F",
"K.	c #AEA461",
"L.	c #908752",
"M.	c #787148",
"N.	c #6B6442",
"O.	c #857D4D",
"P.	c #C0B366",
"Q.	c #CDBF6B",
"R.	c #D1C26D",
"S.	c #CDB35E",
"T.	c #CAA852",
"U.	c #C89F48",
"V.	c #C89F47",
"W.	c #CAA750",
"X.	c #CDBA63",
"Y.	c #CABB66",
"Z.	c #C2B665",
"`.	c #B9AD62",
" +	c #B0A55E",
".+	c #AB9F5C",
"++	c #6A6442",
"@+	c #998F55",
"#+	c #A49959",
"$+	c #A99E5C",
"%+	c #A99F5C",
"&+	c #A89957",
"*+	c #A5914F",
"=+	c #A38747",
"-+	c #A1803F",
";+	c #A07F3E",
">+	c #A18543",
",+	c #A38D4A",
"'+	c #A79752",
")+	c #AEA159",
"!+	c #B8AC60",
"~+	c #C3B666",
"{+	c #CCBE6A",
"]+	c #494538",
"^+	c #5B563D",
"/+	c #696242",
"(+	c #726B45",
"_+	c #736C45",
":+	c #726C46",
"<+	c #726B46",
"[+	c #726A45",
"}+	c #716743",
"|+	c #70623E",
"1+	c #6E5C3A",
"2+	c #6D5736",
"3+	c #6C5635",
"4+	c #6A5737",
"5+	c #6C5E3C",
"6+	c #776D44",
"7+	c #8E844F",
"8+	c #ABA05C",
"9+	c #C6B968",
"0+	c #E6D777",
"a+	c #EBDB7A",
"b+	c #242530",
"c+	c #2B2C31",
"d+	c #313133",
"e+	c #353433",
"f+	c #363534",
"g+	c #373534",
"h+	c #373533",
"i+	c #373634",
"j+	c #373433",
"k+	c #363132",
"l+	c #352F31",
"m+	c #352D30",
"n+	c #332B2F",
"o+	c #29232E",
"p+	c #2B272F",
"q+	c #474237",
"r+	c #9B9156",
"s+	c #D8CA71",
"t+	c #00032D",
"u+	c #00002C",
"v+	c #00002B",
"w+	c #00002D",
"x+	c #00022D",
"y+	c #1D202F",
"z+	c #57523C",
"A+	c #C2B566",
"B+	c #CFC16C",
"C+	c #D5C76F",
"D+	c #0A132E",
"E+	c #423F36",
"F+	c #887F4D",
"G+	c #ACA15D",
"H+	c #231F2E",
"I+	c #2D252E",
"J+	c #28212E",
"K+	c #201D2E",
"L+	c #16172E",
"M+	c #0F142D",
"N+	c #0B122D",
"O+	c #0C132D",
"P+	c #0D142E",
"Q+	c #0D152E",
"R+	c #0C142E",
"S+	c #040F2D",
"T+	c #181B2E",
"U+	c #313032",
"V+	c #5C573D",
"W+	c #716A45",
"X+	c #746D46",
"Y+	c #46362F",
"Z+	c #564230",
"`+	c #614A31",
" @	c #574330",
".@	c #46372F",
"+@	c #30282F",
"@@	c #1C1C2E",
"#@	c #0F162E",
"$@	c #0E162E",
"%@	c #13182E",
"&@	c #14182E",
"*@	c #13172E",
"=@	c #16192E",
"-@	c #1D1F2F",
";@	c #252630",
">@	c #2D2D31",
",@	c #333233",
"'@	c #383634",
")@	c #664D31",
"!@	c #7F6033",
"~@	c #8E6B35",
"{@	c #806033",
"]@	c #674E31",
"^@	c #45362F",
"/@	c #24202E",
"(@	c #06132E",
"_@	c #04122E",
":@	c #12172E",
"<@	c #15182E",
"[@	c #0E142E",
"}@	c #030D2D",
"|@	c #00022C",
"1@	c #806133",
"2@	c #9F7836",
"3@	c #B18638",
"4@	c #B28638",
"5@	c #A07936",
"6@	c #816133",
"7@	c #574230",
"8@	c #2B252E",
"9@	c #000E2E",
"0@	c #000D2E",
"a@	c #10162E",
"b@	c #0D142D",
"c@	c #010C2D",
"d@	c #926E35",
"e@	c #B58939",
"f@	c #CA983C",
"g@	c #CA993C",
"h@	c #B78A39",
"i@	c #936F35",
"j@	c #634B31",
"k@	c #31282F",
"l@	c #000A2E",
"m@	c #00082E",
"n@	c #11162E",
"o@	c #10152E",
"p@	c #0E142D",
"q@	c #0D132D",
"r@	c #9C7536",
"s@	c #C1913A",
"t@	c #D7A23D",
"u@	c #C2933B",
"v@	c #9D7636",
"w@	c #6A5032",
"x@	c #332A2F",
"y@	c #00072E",
"z@	c #00052E",
"A@	c #0E152E",
"B@	c #C5953B",
"C@	c #DCA63E",
"D@	c #C7963B",
"E@	c #A07937",
"F@	c #6C5232",
"G@	c #352B2F",
"H@	c #00032E",
"I@	c #9E7736",
"J@	c #C4943B",
"K@	c #DBA53E",
"L@	c #C6953B",
"M@	c #342A2F",
"N@	c #00062E",
"O@	c #00042E",
"P@	c #DAA53E",
"Q@	c #6B5132",
"R@	c #C4933B",
"S@	c #DAA43E",
"T@	c #C5943B",
"U@	c #0A152E",
"V@	c #11182E",
"W@	c #9E7635",
"X@	c #C49339",
"Y@	c #DAA33C",
"Z@	c #DAA43C",
"`@	c #C5943A",
" #	c #9F7735",
".#	c #6B5131",
"+#	c #00062D",
"@#	c #00042D",
"##	c #00152D",
"$#	c #00172D",
"%#	c #9F7736",
"&#	c #00152E",
"*#	c #02172E",
"=#	c #01172E",
"-#	c #9E7938",
";#	c #C4953D",
">#	c #DBA741",
",#	c #C6963D",
"'#	c #9F7938",
")#	c #362B2F",
"!#	c #21162F",
"~#	c #26192F",
"{#	c #27192F",
"]#	c #A07E3E",
"^#	c #C69C46",
"/#	c #DDAE4B",
"(#	c #C79D46",
"_#	c #A17F3E",
":#	c #6D5635",
"<#	c #3C2D30",
"[#	c #24062F",
"}#	c #320730",
"|#	c #451A32",
"1#	c #4B1D32",
"2#	c #4D1D33",
"3#	c #4C1D32",
"4#	c #A28747",
"5#	c #C9A752",
"6#	c #E0BA59",
"7#	c #E0BB59",
"8#	c #A38847",
"9#	c #705C3A",
"0#	c #463032",
"a#	c #3F0731",
"b#	c #530A33",
"c#	c #661E36",
"d#	c #6E2238",
"e#	c #712338",
"f#	c #702338",
"g#	c #702238",
"h#	c #A49050",
"i#	c #CCB35E",
"j#	c #E3C767",
"k#	c #CCB45E",
"l#	c #A59150",
"m#	c #72633F",
"n#	c #4F3334",
"o#	c #540833",
"p#	c #6C0E36",
"q#	c #81233B",
"r#	c #8A283D",
"s#	c #8D283E",
"t#	c #8C283E",
"u#	c #8C283D",
"v#	c #A69856",
"w#	c #CEBC67",
"x#	c #E6D271",
"y#	c #CFBD67",
"z#	c #A79957",
"A#	c #756843",
"B#	c #563636",
"C#	c #620834",
"D#	c #7D1139",
"E#	c #93273F",
"F#	c #9E2C41",
"G#	c #A12C42",
"H#	c #A02C42",
"I#	c #A89C5A",
"J#	c #D0C16C",
"K#	c #D0C26C",
"L#	c #A89D5A",
"M#	c #766B45",
"N#	c #5A3737",
"O#	c #690935",
"P#	c #86123B",
"Q#	c #9D2941",
"R#	c #A82E44",
"S#	c #AC2F45",
"T#	c #AB2F45",
"U#	c #AB2F44",
"V#	c #D0C36E",
"W#	c #A89F5C",
"X#	c #776C46",
"Y#	c #5C3838",
"Z#	c #6C0936",
"`#	c #8A133C",
" $	c #A22A42",
".$	c #AD2F45",
"+$	c #B13046",
"@$	c #B03046",
"#$	c #A89E5C",
"$$	c #A89E5B",
"%$	c #766B46",
"&$	c #5A3837",
"*$	c #690835",
"=$	c #E8D878",
"-$	c #D1C46D",
";$	c #756A45",
">$	c #553536",
",$	c #600033",
"'$	c #7C0538",
")$	c #93243E",
"!$	c #A12A42",
"~$	c #A02942",
"{$	c #9F2942",
"]$	c #D0C36D",
"^$	c #A69C5B",
"/$	c #706744",
"($	c #472A33",
"_$	c #4B002F",
":$	c #660033",
"<$	c #89133B",
"[$	c #88133B",
"}$	c #3E2B32",
"|$	c #33002C",
"1$	c #6B0936",
"2$	c #6B0935",
"3$	c #6A0935",
"4$	c #504739",
"5$	c #5B3838",
"6$	c #5B3837",
"7$	c #BBAF64",
"8$	c #CFC26D",
"9$	c #EADB7A",
"0$	c #F0E17D",
"a$	c #E6D778",
"b$	c #ADA15D",
"c$	c #A69B5B",
"d$	c #F5E57F",
"e$	c #F1E27D",
"f$	c #E7D778",
"g$	c #A59959",
"h$	c #CEBF6B",
"i$	c #EBDA78",
"j$	c #F8E67E",
"k$	c #F8E77F",
"l$	c #F3E27D",
"m$	c #A49555",
"n$	c #CCBA66",
"o$	c #E9D473",
"p$	c #F6E179",
"q$	c #F7E37B",
"r$	c #F2E07A",
"s$	c #ECDB79",
"t$	c #E9D978",
"u$	c #A28E4E",
"v$	c #CAB15D",
"w$	c #E6CA68",
"x$	c #F0D46E",
"y$	c #EDD470",
"z$	c #E4CF6F",
"A$	c #D9C86E",
"B$	c #D1C36E",
"C$	c #A18546",
"D$	c #C8A652",
"E$	c #E1BC5A",
"F$	c #E8C35F",
"G$	c #DFBF5F",
"H$	c #B9A75D",
"I$	c #ACA05C",
"J$	c #9F7D3E",
"K$	c #C59C46",
"L$	c #DDAF4C",
"M$	c #E0B34E",
"N$	c #D1A84D",
"O$	c #B4954A",
"P$	c #927E47",
"Q$	c #796F46",
"R$	c #6F6945",
"S$	c #6E6945",
"T$	c #9E7838",
"U$	c #DCA841",
"V$	c #C8993F",
"W$	c #A47E3B",
"X$	c #745C37",
"Y$	c #483F34",
"Z$	c #2C2F33",
"`$	c #2B2F33",
" %	c #C4933A",
".%	c #9D7534",
"+%	c #674B2F",
"@%	c #251A2C",
"                                                                                                                                ",
"                                                                                                                                ",
"                                                                                                                                ",
"                                                                                                                                ",
"                                                                                                                                ",
"                                                                                                                                ",
"                                                                                                                                ",
"                      . +                                                                             + .                       ",
"                    @ # $ %                                                                         % $ # @                     ",
"                    & * = -                                                                         - = * &                     ",
"                ; > > ; , '                                                                         ' , ; > > ;                 ",
"              ) ! ~ { ] # ^ / ( ( _ _ : < [ } | 1 2 3 4 5 6 7 8 8 7 6 5 4 3 2 1 | } [ < : _ _ ( ( / ^ # ] { ~ ! )               ",
"              ) ! ~ { 9 0 a b ( ( _ _ 8 c d e f g h i j k l m n n m l k j i h g f e d c 8 _ _ ( ( b a 0 9 { ~ ! )               ",
"              # o p ~ q r s t b / u v w x y z A B C C D E F G H H G F E D C C B A z y x w v u / b t s r q ~ p o #               ",
"              # o I J K L M N O O P Q R S T U V W X Y Z `  ...+.+... .` Z Y X W V U T S R Q P O O N M L K J I o #               ",
"              # ! @.#.$.%.L r &.&.*.=.-.;.>.,.'.).!.~.{.].^./.(.(./.^.].{.~.!.).'.,.>.;.-.=.*.&.&.r L %.$.#.@.! #               ",
"              _.o J :.#.$.K <.[.[.}.|.1.2.3.4.5.6.7.8.9.0.a.b.c.c.b.a.0.9.8.7.6.5.4.3.2.1.|.}.[.[.<.K $.#.:.J o _.              ",
"              d.e.p f.:.#.J ~ g.g.h.i.j.k.l.m.n.o.p.q.r.s.t.u.v.v.u.t.s.r.q.p.o.n.m.l.k.j.i.h.g.g.~ J #.:.f.p e.d.              ",
"              w.x.y.p z.J ~ p A.g.h.i.B.C.D.E.F.G.H.I.J.K.L.M.N.N.M.L.K.J.I.H.G.F.E.D.C.B.i.h.g.A.p ~ J z.p y.x.w.              ",
"              O._.P.Q.] ] ] ] ] ] R.|.S.T.U.V.W.1.X.Y.Z.`. +.+# # .+ +`.Z.Y.X.1.W.V.U.T.S.|.R.] ] ] ] ] ] Q.P._.O.              ",
"              ++O.@+#+# $+0 $+%+%+) &+*+=+-+;+>+,+'+)+!+~+{+! %.%.! {+~+!+)+'+,+>+;+-+=+*+&+) %+%+$+0 $+# #+@+O.++              ",
"              ]+^+/+' (+_+(+(+:+<+[+}+|+1+2+3+4+5+6+7+8+9+K 0+a+a+0+K 9+8+7+6+5+4+3+2+1+|+}+[+<+:+(+(+_+(+' /+^+]+              ",
"              b+c+d+e+f+g+h+h+i+i+h+j+k+l+m+n+o+p+q+' r+x.s+> J J > s+x.r+' q+p+o+n+m+l+k+j+h+i+i+h+h+g+f+e+d+c+b+              ",
"              t+u+v+v+v+v+v+v+v+v+v+v+u+w+x+w+_ _ y+z+O.0 A+B+C+C+B+A+0 O.z+y+_ _ w+x+w+u+v+v+v+v+v+v+v+v+v+v+u+t+              ",
"              t+u+v+_ _ _ v+v+v+v+v+v+u+w+w+w+v+v+D+E+- F+= _.G+G+_.= F+- E+D+v+v+w+w+w+u+v+v+v+v+v+v+_ _ _ v+u+t+              ",
"              H+o+I+I+J+K+L+M+N+N+O+O+P+P+Q+R+S+S+T+U+]+V+- W+X+X+W+- V+]+U+T+S+S+R+Q+P+P+O+O+N+N+M+L+K+J+I+I+o+H+              ",
"              Y+Z+`+`+ @.@+@@@#@$@%@&@&@&@&@&@*@*@=@-@;@>@,@h+'@'@h+,@>@;@-@=@*@*@&@&@&@&@&@%@$@#@@@+@.@ @`+`+Z+Y+              ",
"              )@!@~@~@{@]@^@/@(@_@:@&@&@&@&@&@<@<@*@[@}@|@v+v+v+v+v+v+|@}@[@*@<@<@&@&@&@&@&@:@_@(@/@^@]@{@~@~@!@)@              ",
"              1@2@3@4@5@6@7@8@9@0@a@&@&@&@&@&@<@<@*@b@c@u+v+v+v+v+v+v+u+c@b@*@<@<@&@&@&@&@&@a@0@9@8@7@6@5@4@3@2@1@              ",
"              d@e@f@g@h@i@j@k@l@m@#@&@&@&@&@&@&@&@&@*@n@o@p@q@O+O+q@p@o@n@*@&@&@&@&@&@&@&@&@#@m@l@k@j@i@h@g@f@e@d@              ",
"              r@s@t@t@u@v@w@x@y@z@A@&@&@&@&@&@&@&@&@&@&@&@&@&@&@&@&@&@&@&@&@&@&@&@&@&@&@&@&@A@z@y@x@w@v@u@t@t@s@r@              ",
"              2@B@C@C@D@E@F@G@z@H@Q+&@&@&@&@&@&@&@&@&@&@&@&@&@&@&@&@&@&@&@&@&@&@&@&@&@&@&@&@Q+H@z@G@F@E@D@C@C@B@2@              ",
"              2@B@C@C@D@E@F@G@z@H@Q+&@&@&@&@&@&@&@&@&@&@&@&@&@&@&@&@&@&@&@&@&@&@&@&@&@&@&@&@Q+H@z@G@F@E@D@C@C@B@2@              ",
"              I@J@K@K@L@2@F@M@N@O@Q+&@&@&@&@&@&@&@&@&@&@&@&@&@&@&@&@&@&@&@&@&@&@&@&@&@&@&@&@Q+O@N@M@F@2@L@K@K@J@I@              ",
"              I@J@P@K@B@2@Q@M@N@O@Q+&@&@&@&@&@&@&@&@&@&@&@&@&@&@&@&@&@&@&@&@&@&@&@&@&@&@&@&@Q+O@N@M@Q@2@B@K@P@J@I@              ",
"              I@J@P@K@B@2@Q@M@N@O@Q+&@&@&@&@&@&@&@&@&@&@&@&@&@&@&@&@&@&@&@&@&@&@&@&@&@&@&@&@Q+O@N@M@Q@2@B@K@P@J@I@              ",
"              I@J@P@K@B@2@Q@M@N@O@Q+&@&@&@&@&@&@&@&@&@&@&@&@&@&@&@&@&@&@&@&@&@&@&@&@&@&@&@&@Q+O@N@M@Q@2@B@K@P@J@I@              ",
"              I@J@P@K@B@2@Q@M@N@O@Q+&@&@&@&@&@&@&@&@&@&@&@&@&@&@&@&@&@&@&@&@&@&@&@&@&@&@&@&@Q+O@N@M@Q@2@B@K@P@J@I@              ",
"              I@R@S@K@T@2@Q@M@N@O@U@V@V@V@V@V@V@V@V@V@V@V@V@V@V@V@V@V@V@V@V@V@V@V@V@V@V@V@V@U@O@N@M@Q@2@T@K@S@R@I@              ",
"              W@X@Y@Z@`@ #.#x@+#@###$#$#$#$#$#$#$#$#$#$#$#$#$#$#$#$#$#$#$#$#$#$#$#$#$#$#$#$###@#+#x@.# #`@Z@Y@X@W@              ",
"              W@X@Z@Z@`@%#.#x@+#@#&#*#=#=#=#=#=#=#=#=#=#=#=#=#=#=#=#=#=#=#=#=#=#=#=#=#=#=#*#&#@#+#x@.#%#`@Z@Z@X@W@              ",
"              -#;#>#>#,#'#F@)#N@O@!#~#{#{#{#{#{#{#{#{#{#{#{#{#{#{#{#{#{#{#{#{#{#{#{#{#{#{#~#!#O@N@)#F@'#,#>#>#;#-#              ",
"              ]#^#/#/#(#_#:#<#[#}#|#1#2#2#3#3#3#3#3#3#3#3#3#3#3#3#3#3#3#3#3#3#3#3#3#3#2#2#1#|#}#[#<#:#_#(#/#/#^#]#              ",
"              4#5#6#7#T.8#9#0#a#b#c#d#e#e#f#g#g#g#g#g#g#g#g#g#g#g#g#g#g#g#g#g#g#g#g#f#e#e#d#c#b#a#0#9#8#T.7#6#5#4#              ",
"              h#i#j#j#k#l#m#n#o#p#q#r#s#s#t#u#u#u#u#u#u#u#u#u#u#u#u#u#u#u#u#u#u#u#u#t#s#s#r#q#p#o#n#m#l#k#j#j#i#h#              ",
"              v#w#i.x#y#z#A#B#C#D#E#F#G#G#H#H#H#H#H#H#H#H#H#H#H#H#H#H#H#H#H#H#H#H#H#H#G#G#F#E#D#C#B#A#z#y#x#i.w#v#              ",
"              I#J#h.h.K#L#M#N#O#P#Q#R#S#S#T#U#U#U#U#U#U#U#U#U#U#U#U#U#U#U#U#U#U#U#U#T#S#S#R#Q#P#O#N#M#L#K#h.h.J#I#              ",
"              # V#g.A.[.W#X#Y#Z#`# $.$+$+$@$@$@$@$@$@$@$@$@$@$@$@$@$@$@$@$@$@$@$@$@$@$+$+$.$ $`#Z#Y#X#W#[.A.g.V##               ",
"              #$V#g.A.[.W#X#Y#Z#`# $.$+$+$@$@$@$@$@$@$@$@$@$@$@$@$@$@$@$@$@$@$@$@$@$@$+$+$.$ $`#Z#Y#X#W#[.A.g.V##$              ",
"              # o p p [.$$%$&$*$P#Q#R#S#S#T#U#U#U#U#U#U#U#U#U#U#U#U#U#U#U#U#U#U#U#U#T#S#S#R#Q#P#*$&$%$$$[.p p o #               ",
"              # o =$p -$$$;$>$,$'$)$Q#!$!$~${${${${${${${${${${${${${${${${${${${${$~$!$!$Q#)$'$,$>$;$$$-$p =$o #               ",
"              # o =$=$]$^$/$($_$:$'$P#<$<$[$[$[$[$[$[$[$[$[$[$[$[$[$[$[$[$[$[$[$[$[$[$<$<$P#'$:$_$($/$^$]$=$=$o #               ",
"              # o =$p ]$_./$}$|$_$,$*$1$1$2$3$3$3$3$3$3$3$3$3$3$3$3$3$3$3$3$3$3$3$3$2$1$1$*$,$_$|$}$/$_.]$p =$o #               ",
"              # o p I %.r s 4$}$($>$&$5$5$6$6$6$6$6$6$6$6$6$6$6$6$6$6$6$6$6$6$6$6$6$6$5$5$&$>$($}$4$s r %.I p o #               ",
"              # o I J y.7$M s /$/$;$%$%$%$%$%$%$%$%$%$%$%$%$%$%$%$%$%$%$%$%$%$%$%$%$%$%$%$%$;$/$/$s M 7$y.J I o #               ",
"              _.8$9$0$a$] 7$b$_.^$$$$$$$$$$$$$$$$$$$$$$$$$$$$$$$$$$$$$$$$$$$$$$$$$$$$$$$$$$$$$^$_.b$7$] a$0$9$8$_.              ",
"              c$8$@.d$e$f$y.%.]$]$-$[.[.[.[.[.[.[.[.[.[.[.[.[.[.[.[.[.[.[.[.[.[.[.[.[.[.[.[.-$]$]$%.y.f$e$d$@.8$c$              ",
"              g$h$i$j$k$l$J I =$=$p p p p p p p p p p p p p p p p p p p p p p p p p p p p p p =$=$I J l$k$j$i$h$g$              ",
"              m$n$o$p$q$r$s$t$p p p p p p p p p p p p p p p p p p p p p p p p p p p p p p p p p p t$s$r$q$p$o$n$m$              ",
"              u$v$w$x$y$z$A$%.B$B$] ] ] ] ] ] ] ] ] ] ] ] ] ] ] ] ] ] ] ] ] ] ] ] ] ] ] ] ] ] B$B$%.A$z$y$x$w$v$u$              ",
"              C$D$E$F$G$S.H$I$# &.$+$+$+$+$+$+$+$+$+$+$+$+$+$+$+$+$+$+$+$+$+$+$+$+$+$+$+$+$+$+&.# I$H$S.G$F$E$D$C$              ",
"              J$K$L$M$N$O$P$Q$R$S$(+(+(+(+(+(+(+(+(+(+(+(+(+(+(+(+(+(+(+(+(+(+(+(+(+(+(+(+(+(+S$R$Q$P$O$N$M$L$K$J$              ",
"              T$;#>#U$V$W$X$Y$Z$`$e+h+h+h+h+h+h+h+h+h+h+h+h+h+h+h+h+h+h+h+h+h+h+h+h+h+h+h+h+e+`$Z$Y$X$W$V$U$>#;#T$              ",
"              W@ %Y@Y@X@.%+%@%_ _ v+v+v+v+v+v+v+v+v+v+v+v+v+v+v+v+v+v+v+v+v+v+v+v+v+v+v+v+v+v+_ _ @%+%.%X@Y@Y@ %W@              "};
