/* XPM */
static char * Chest_xpm[] = {
"64 64 674 2",
"  	c #010101",
". 	c #867D4D",
"+ 	c #6C6543",
"@ 	c #BCB064",
"# 	c #A89D5B",
"$ 	c #877F4D",
"% 	c #5C573E",
"& 	c #D7C970",
"* 	c #C1B566",
"= 	c #9C9256",
"- 	c #6A6342",
"; 	c #CEC16C",
"> 	c #E5D676",
", 	c #CFC16C",
"' 	c #A79C5A",
") 	c #716A45",
"! 	c #A99D5A",
"~ 	c #D1C36B",
"{ 	c #E9DA76",
"] 	c #EADA77",
"^ 	c #D3C56C",
"/ 	c #AA9F5A",
"( 	c #756C45",
"_ 	c #473635",
": 	c #3D002F",
"< 	c #500032",
"[ 	c #641C36",
"} 	c #6B2138",
"| 	c #6E2238",
"1 	c #6D2238",
"2 	c #766C45",
"3 	c #4F3736",
"4 	c #520032",
"5 	c #6A0436",
"6 	c #7F223B",
"7 	c #88273D",
"8 	c #8B273E",
"9 	c #8A273D",
"0 	c #A89D5E",
"a 	c #D0C371",
"b 	c #E8D97D",
"c 	c #E8DA7D",
"d 	c #D1C472",
"e 	c #A89F5E",
"f 	c #766C48",
"g 	c #573837",
"h 	c #630633",
"i 	c #7F0F38",
"j 	c #96283E",
"k 	c #A02D41",
"l 	c #A32D42",
"m 	c #A42D42",
"n 	c #A22D42",
"o 	c #A79F69",
"p 	c #CFC57F",
"q 	c #E7DB8D",
"r 	c #CFC680",
"s 	c #A7A06A",
"t 	c #766D4E",
"u 	c #5E3939",
"v 	c #710D33",
"w 	c #8F1738",
"x 	c #A82D3F",
"y 	c #B33242",
"z 	c #B73343",
"A 	c #B63343",
"B 	c #A5A27A",
"C 	c #CDC894",
"D 	c #E4DFA4",
"E 	c #E5DFA4",
"F 	c #CDC995",
"G 	c #A5A37A",
"H 	c #766F58",
"I 	c #643B3C",
"J 	c #7D1330",
"K 	c #9E1E35",
"L 	c #B8333D",
"M 	c #C43840",
"N 	c #C93941",
"O 	c #C73941",
"P 	c #A4A489",
"Q 	c #CBCBA7",
"R 	c #E2E3B9",
"S 	c #E2E3BA",
"T 	c #CBCDA8",
"U 	c #A3A589",
"V 	c #767162",
"W 	c #693C3E",
"X 	c #86172D",
"Y 	c #AA2431",
"Z 	c #C5383A",
"` 	c #D23D3E",
" .	c #D63F3E",
"..	c #D53E3E",
"+.	c #A3A692",
"@.	c #CACEB2",
"#.	c #E1E5C6",
"$.	c #C9CFB4",
"%.	c #A1A793",
"&.	c #767268",
"*.	c #6C3D40",
"=.	c #8C1A2A",
"-.	c #B0272D",
";.	c #CC3B38",
">.	c #DA413B",
",.	c #DE423C",
"'.	c #DD423C",
").	c #DD413C",
"!.	c #A2A793",
"~.	c #8B1A2A",
"{.	c #D9413B",
"].	c #85172C",
"^.	c #A92330",
"/.	c #C4383A",
"(.	c #D13D3D",
"_.	c #D53F3E",
":.	c #D43E3E",
"<.	c #643A3C",
"[.	c #7C1330",
"}.	c #9D1E35",
"|.	c #B7333D",
"1.	c #C33840",
"2.	c #C83941",
"3.	c #C63941",
"4.	c #5F3939",
"5.	c #720D33",
"6.	c #911839",
"7.	c #AA2D40",
"8.	c #B53343",
"9.	c #B93444",
"0.	c #B83343",
"a.	c #E8D97C",
"b.	c #D0C471",
"c.	c #A89E5E",
"d.	c #5C3838",
"e.	c #6C0A35",
"f.	c #8A143B",
"g.	c #A22A41",
"h.	c #AD2F44",
"i.	c #B13045",
"j.	c #AF3045",
"k.	c #AB2E43",
"l.	c #A72C42",
"m.	c #A42B41",
"n.	c #A22A40",
"o.	c #A89D59",
"p.	c #D0C26B",
"q.	c #E8D876",
"r.	c #E8D976",
"s.	c #A89E5A",
"t.	c #766B45",
"u.	c #5B3837",
"v.	c #6B0936",
"w.	c #88123C",
"x.	c #A02942",
"y.	c #AB2E45",
"z.	c #AF3046",
"A.	c #AC2E45",
"B.	c #A82B43",
"C.	c #A0253F",
"D.	c #971E3B",
"E.	c #8E1537",
"F.	c #880D34",
"G.	c #860933",
"H.	c #870A34",
"I.	c #870B34",
"J.	c #6A0936",
"K.	c #9F2942",
"L.	c #A42A42",
"M.	c #98243E",
"N.	c #881A38",
"O.	c #770E32",
"P.	c #6C022F",
"Q.	c #67002D",
"R.	c #68002E",
"S.	c #69002E",
"T.	c #D0C26D",
"U.	c #E8D878",
"V.	c #E8D978",
"W.	c #D1C46D",
"X.	c #A89E5B",
"Y.	c #766B46",
"Z.	c #5A3837",
"`.	c #690835",
" +	c #86123B",
".+	c #9D2941",
"++	c #A82E44",
"@+	c #AD2E45",
"#+	c #A92F44",
"$+	c #A13144",
"%+	c #923444",
"&+	c #803744",
"*+	c #6C3944",
"=+	c #5D3B44",
"-+	c #573B44",
";+	c #593B44",
">+	c #756A45",
",+	c #553536",
"'+	c #600033",
")+	c #7C0538",
"!+	c #93243E",
"~+	c #A12841",
"{+	c #9F2F44",
"]+	c #993D4B",
"^+	c #904F56",
"/+	c #855F60",
"(+	c #7A6B68",
"_+	c #73716D",
":+	c #70736E",
"<+	c #71746E",
"[+	c #72736E",
"}+	c #D0C36D",
"|+	c #A69C5B",
"1+	c #706744",
"2+	c #472A33",
"3+	c #4B002F",
"4+	c #660033",
"5+	c #7C0638",
"6+	c #86113A",
"7+	c #890839",
"8+	c #890F39",
"9+	c #892B43",
"0+	c #8C4C56",
"a+	c #916D6D",
"b+	c #968882",
"c+	c #9B9A91",
"d+	c #9EA59A",
"e+	c #9FA99D",
"f+	c #A0AA9D",
"g+	c #A1A99C",
"h+	c #A1AA9C",
"i+	c #A79C5B",
"j+	c #3E2B32",
"k+	c #33002C",
"l+	c #680534",
"m+	c #69002F",
"n+	c #6A0031",
"o+	c #702E42",
"p+	c #805C60",
"q+	c #968781",
"r+	c #ABA99E",
"s+	c #BBC1B2",
"t+	c #C4CDBD",
"u+	c #C8D2C1",
"v+	c #C9D3C1",
"w+	c #C8D2C0",
"x+	c #E9D979",
"y+	c #D3C56E",
"z+	c #ADA25D",
"A+	c #7B7348",
"B+	c #504739",
"C+	c #3E2B33",
"D+	c #472B33",
"E+	c #593435",
"F+	c #56272D",
"G+	c #56252C",
"H+	c #624242",
"I+	c #7E6E67",
"J+	c #A09C8E",
"K+	c #BFC1AF",
"L+	c #D4DBC6",
"M+	c #E0E8D2",
"N+	c #E3ECD6",
"O+	c #E2EBD6",
"P+	c #E0E9D4",
"Q+	c #DFE8D4",
"R+	c #ECDC7A",
"S+	c #DBCC72",
"T+	c #BCAF64",
"U+	c #968C53",
"V+	c #706844",
"W+	c #746742",
"X+	c #705D37",
"Y+	c #6F5633",
"Z+	c #786244",
"`+	c #908268",
" @	c #B1AB90",
".@	c #CFCFB1",
"+@	c #E4E7C9",
"@@	c #EDF3D5",
"#@	c #EDF4D8",
"$@	c #E9F1D7",
"%@	c #E3EBD5",
"&@	c #DEE8D4",
"*@	c #D1C36D",
"=@	c #EBDC7A",
"-@	c #F2E27D",
";@	c #E7D878",
">@	c #A79D5B",
",@	c #A79D5A",
"'@	c #A69856",
")@	c #A28E4B",
"!@	c #A08541",
"~@	c #A38649",
"{@	c #B29965",
"]@	c #C8B889",
"^@	c #DED6A7",
"/@	c #EDEBBD",
"(@	c #F1F2C7",
"_@	c #EBEEC9",
":@	c #DFE4C6",
"<@	c #D3D9C2",
"[@	c #CBD3C0",
"}@	c #C7D0BF",
"|@	c #F6E67F",
"1@	c #F3E27D",
"2@	c #D3C56F",
"3@	c #D1C46E",
"4@	c #D0C36E",
"5@	c #D0C26C",
"6@	c #CFBD67",
"7@	c #CBB25B",
"8@	c #C8A64F",
"9@	c #C8A24D",
"0@	c #CFAB5F",
"a@	c #DDC27C",
"b@	c #EBD995",
"c@	c #F3E8A7",
"d@	c #F0EAAE",
"e@	c #E2DFAD",
"f@	c #CCCDA7",
"g@	c #B5B9A1",
"h@	c #A6AC9D",
"i@	c #9EA69C",
"j@	c #A39859",
"k@	c #CBBE6B",
"l@	c #F5E57E",
"m@	c #E9DA79",
"n@	c #E8D979",
"o@	c #E8D777",
"p@	c #E6D171",
"q@	c #E2C665",
"r@	c #DFB957",
"s@	c #DEB14F",
"t@	c #E1B658",
"u@	c #EAC76D",
"v@	c #F3D981",
"w@	c #F5E48F",
"x@	c #EDE192",
"y@	c #D7CF8C",
"z@	c #B7B282",
"A@	c #929276",
"B@	c #75796F",
"C@	c #646B6C",
"D@	c #988E54",
"E@	c #BEB265",
"F@	c #DACC72",
"G@	c #ECDD7A",
"H@	c #E8DA79",
"I@	c #E2C666",
"J@	c #DFB958",
"K@	c #DEB14E",
"L@	c #E2B652",
"M@	c #EBC663",
"N@	c #F4D873",
"O@	c #F6E27E",
"P@	c #ECDC7E",
"Q@	c #D2C574",
"R@	c #AAA164",
"S@	c #787352",
"T@	c #464644",
"U@	c #001A3C",
"V@	c #847C4C",
"W@	c #A59B5A",
"X@	c #D2C46E",
"Y@	c #D1C36E",
"Z@	c #CBB25D",
"`@	c #C8A751",
" #	c #C9A149",
".#	c #D0AA4E",
"+#	c #E0C05E",
"@#	c #EFD56E",
"##	c #F5E077",
"$#	c #ECDB76",
"%#	c #D0C26A",
"&#	c #A59A56",
"*#	c #6A623C",
"=#	c #0F0C23",
"-#	c #00000D",
";#	c #686342",
">#	c #837B4C",
",#	c #978E55",
"'#	c #A29859",
")#	c #A99E5C",
"!#	c #A99F5C",
"~#	c #A89D5A",
"{#	c #A28E4E",
"]#	c #9F8545",
"^#	c #A48542",
"/#	c #B4964A",
"(#	c #CDB45D",
"_#	c #E4CF6D",
":#	c #F1DE77",
"<#	c #EBDA76",
"[#	c #D1C36A",
"}#	c #A69A56",
"|#	c #0F0B22",
"1#	c #00000B",
"2#	c #4E4838",
"3#	c #625A3E",
"4#	c #706742",
"5#	c #776D45",
"6#	c #786E46",
"7#	c #766D46",
"8#	c #746C45",
"9#	c #736B45",
"0#	c #746C46",
"a#	c #756C46",
"b#	c #746743",
"c#	c #6F5E3D",
"d#	c #6E5738",
"e#	c #79603B",
"f#	c #947E47",
"g#	c #B8A55B",
"h#	c #D7C56C",
"i#	c #E8D776",
"j#	c #E6D776",
"k#	c #AA9F5B",
"l#	c #787046",
"m#	c #474336",
"n#	c #0D122C",
"o#	c #4C3D31",
"p#	c #5F4B33",
"q#	c #6A5435",
"r#	c #6C5636",
"s#	c #645135",
"t#	c #564835",
"u#	c #473E34",
"v#	c #423834",
"w#	c #463635",
"x#	c #4F3636",
"y#	c #573737",
"z#	c #593436",
"A#	c #562934",
"B#	c #562733",
"C#	c #644038",
"D#	c #826945",
"E#	c #A89458",
"F#	c #C7B667",
"G#	c #DACA71",
"H#	c #B0A55F",
"I#	c #908751",
"J#	c #787147",
"K#	c #6B6443",
"L#	c #64492F",
"M#	c #7C5B30",
"N#	c #8A6530",
"O#	c #896430",
"P#	c #7A592F",
"Q#	c #5F452D",
"R#	c #3E292C",
"S#	c #2E062D",
"T#	c #530032",
"U#	c #630534",
"V#	c #6B0736",
"W#	c #6B0035",
"X#	c #6C0036",
"Y#	c #732C3A",
"Z#	c #845744",
"`#	c #9D7F51",
" $	c #B39E5D",
".$	c #C3B266",
"+$	c #C8BA69",
"@$	c #C3B767",
"#$	c #BAAE63",
"$$	c #AB9F5C",
"%$	c #7E5D31",
"&$	c #9C7433",
"*$	c #AE8134",
"=$	c #9B7332",
"-$	c #7B5A2F",
";$	c #53382D",
">$	c #3E102E",
",$	c #500031",
"'$	c #6A0036",
")$	c #7E0D39",
"!$	c #87133B",
"~$	c #8A0D3C",
"{$	c #8B123C",
"]$	c #8B293E",
"^$	c #8F4743",
"/$	c #946449",
"($	c #9B7D50",
"_$	c #A49157",
":$	c #ADA05D",
"<$	c #B8AD62",
"[$	c #CCBE6B",
"}$	c #926F37",
"|$	c #B58A3B",
"1$	c #CA9A3E",
"2$	c #B68B3B",
"3$	c #927036",
"4$	c #664B32",
"5$	c #502832",
"6$	c #601235",
"7$	c #7B183A",
"8$	c #90253E",
"9$	c #9B2840",
"0$	c #9E2741",
"a$	c #9F2841",
"b$	c #9C2E41",
"c$	c #963942",
"d$	c #8C4541",
"e$	c #815542",
"f$	c #7F6947",
"g$	c #8F8350",
"h$	c #ABA05C",
"i$	c #C6BA69",
"j$	c #E6D777",
"k$	c #EBDB7A",
"l$	c #9D7D3E",
"m$	c #C39A46",
"n$	c #D9AC4B",
"o$	c #DAAC4B",
"p$	c #C39B45",
"q$	c #9D7D3D",
"r$	c #6E5435",
"s$	c #522C33",
"t$	c #5F0D35",
"u$	c #7A143A",
"v$	c #90243E",
"w$	c #9F2941",
"x$	c #9B2941",
"y$	c #91283F",
"z$	c #7E203A",
"A$	c #672537",
"B$	c #5C4139",
"C$	c #726844",
"D$	c #999055",
"E$	c #BDB265",
"F$	c #E5D677",
"G$	c #A38847",
"H$	c #CAA852",
"I$	c #E1BB59",
"J$	c #A18646",
"K$	c #6D5738",
"L$	c #462231",
"M$	c #4C0030",
"N$	c #670035",
"O$	c #7E0939",
"P$	c #88133B",
"Q$	c #8C153C",
"R$	c #88113B",
"S$	c #7D0238",
"T$	c #670033",
"U$	c #4A002E",
"V$	c #37082F",
"W$	c #534B3A",
"X$	c #80784B",
"Y$	c #BFB265",
"Z$	c #CCBF6B",
"`$	c #A69150",
" %	c #CDB35E",
".%	c #E4C867",
"+%	c #CDB45E",
"@%	c #A4904F",
"#%	c #6E5E3D",
"$%	c #3E2631",
"%%	c #35002D",
"&%	c #4D0030",
"*%	c #630034",
"=%	c #6F0B36",
"-%	c #620034",
";%	c #4F0030",
">%	c #34002C",
",%	c #21002D",
"'%	c #3C3634",
")%	c #635E40",
"!%	c #827B4C",
"~%	c #988F54",
"{%	c #A49959",
"]%	c #A99E5B",
"^%	c #A79856",
"/%	c #CEBC67",
"(%	c #E6D271",
"_%	c #E7D272",
":%	c #D2BF68",
"<%	c #AB9D59",
"[%	c #7A6F46",
"}%	c #504638",
"|%	c #3E2C33",
"1%	c #482C34",
"2%	c #563637",
"3%	c #563737",
"4%	c #4E3435",
"5%	c #453334",
"6%	c #403735",
"7%	c #484337",
"8%	c #58533C",
"9%	c #686242",
"0%	c #746D46",
"a%	c #7A7348",
"b%	c #7D7549",
"c%	c #E8D877",
"d%	c #EBDB79",
"e%	c #DACB71",
"f%	c #BBAE63",
"g%	c #7B7248",
"h%	c #756B45",
"i%	c #776B46",
"j%	c #756B46",
"k%	c #746B45",
"l%	c #766F47",
"m%	c #7C7449",
"n%	c #EADB7A",
"o%	c #F0E17D",
"p%	c #E6D878",
"q%	c #D2C56E",
"r%	c #BBAF64",
"s%	c #A69C5A",
"t%	c #A69B5A",
"u%	c #CFC26E",
"v%	c #EBDC7B",
"w%	c #F5E67F",
"x%	c #F2E27E",
"y%	c #CFC16D",
"z%	c #A59959",
"A%	c #CEBF6B",
"B%	c #EBDA78",
"C%	c #F8E67E",
"D%	c #F8E77F",
"E%	c #A49555",
"F%	c #CCBA66",
"G%	c #E9D473",
"H%	c #F6E179",
"I%	c #F7E37B",
"J%	c #F2E07A",
"K%	c #ECDB79",
"L%	c #E9D978",
"M%	c #CAB15D",
"N%	c #E6CA68",
"O%	c #F0D46E",
"P%	c #EDD470",
"Q%	c #E4CF6F",
"R%	c #D9C86E",
"S%	c #A18546",
"T%	c #C8A652",
"U%	c #E1BC5A",
"V%	c #E8C35F",
"W%	c #DFBF5F",
"X%	c #B9A75D",
"Y%	c #ACA05C",
"Z%	c #9F7D3E",
"`%	c #C59C46",
" &	c #DDAF4C",
".&	c #E0B34E",
"+&	c #D1A84D",
"@&	c #B4954A",
"#&	c #927E47",
"$&	c #796F46",
"%&	c #6F6945",
"&&	c #6E6945",
"*&	c #726B45",
"=&	c #9E7838",
"-&	c #C4953D",
";&	c #DBA741",
">&	c #DCA841",
",&	c #C8993F",
"'&	c #A47E3B",
")&	c #745C37",
"!&	c #483F34",
"~&	c #2C2F33",
"{&	c #2B2F33",
"]&	c #353433",
"^&	c #373533",
"/&	c #9E7635",
"(&	c #C4933A",
"_&	c #DAA33C",
":&	c #C49339",
"<&	c #9D7534",
"[&	c #674B2F",
"}&	c #251A2C",
"|&	c #00002A",
"1&	c #00002B",
"                                                                                                                                ",
"                                                                                                                                ",
"                                                                                                                                ",
"                                                                                                                                ",
"                                                                                                                                ",
"                                                                                                                                ",
"                                                                                                                                ",
"                                                                                                                                ",
"                                                                                                                                ",
"                                                                                                                                ",
"                                                                                                                                ",
"                                                                                                                                ",
"                                                                                                                                ",
"                                                                                                                                ",
"                                                                                                                                ",
"                      . +                                                                             + .                       ",
"                    @ # $ %                                                                         % $ # @                     ",
"                    & * = -                                                                         - = * &                     ",
"                ; > > , ' )                                                                         ) ' , > > ;                 ",
"              ! ~ { ] ^ / ( _ : < [ } | | 1 1 1 1 1 1 1 1 1 1 1 1 1 1 1 1 1 1 1 1 1 1 | | } [ < : _ ( / ^ ] { ~ !               ",
"              ! ~ ] ] ^ / 2 3 4 5 6 7 8 8 9 9 9 9 9 9 9 9 9 9 9 9 9 9 9 9 9 9 9 9 9 9 8 8 7 6 5 4 3 2 / ^ ] ] ~ !               ",
"              0 a b c d e f g h i j k l m l n n n n n n n n n n n n n n n n n n n n l m l k j i h g f e d c b a 0               ",
"              o p q q r s t u v w x y z z A A A A A A A A A A A A A A A A A A A A A A z z y x w v u t s r q q p o               ",
"              B C D E F G H I J K L M N N O O O O O O O O O O O O O O O O O O O O O O N N M L K J I H G F E D C B               ",
"              P Q R S T U V W X Y Z `  . ............................................. . .` Z Y X W V U T S R Q P               ",
"              +.@.#.#.$.%.&.*.=.-.;.>.,.,.'.).).).).).).).).).).).).).).).).).).).).'.,.,.>.;.-.=.*.&.%.$.#.#.@.+.              ",
"              +.@.#.#.$.!.&.*.~.-.;.{.,.,.'.).).).).).).).).).).).).).).).).).).).).'.,.,.{.;.-.~.*.&.!.$.#.#.@.+.              ",
"              P Q R S T U V W ].^./.(._._.:.:.:.:.............................:.:.:.:._._.(./.^.].W V U T S R Q P               ",
"              B C D E F G H <.[.}.|.1.O 2.3.3.3.O O O O O O O O O O O O O O O O 3.3.3.2.O 1.|.}.[.<.H G F E D C B               ",
"              o p q q r s t 4.5.6.7.8.9.9.0.0.z z A A A A A A A A A A A A A A z z 0.0.9.9.8.7.6.5.4.t s r q q p o               ",
"              0 a a.b b.c.f d.e.f.g.h.i.i.j.h.k.l.m.n.n.n.n.n.n.n.n.n.n.n.n.m.l.k.h.j.i.i.h.g.f.e.d.f c.b.b a.a 0               ",
"              o.p.q.r.~ s.t.u.v.w.x.y.z.z.A.B.C.D.E.F.G.G.H.I.I.I.I.H.G.G.F.E.D.C.B.A.z.z.y.x.w.v.u.t.s.~ r.q.p.o.              ",
"              o.p.q.r.~ s.t.u.J.w.K.y.z.z.A.L.M.N.O.P.Q.Q.R.S.S.S.S.R.Q.Q.P.O.N.M.L.A.z.z.y.K.w.J.u.t.s.~ r.q.p.o.              ",
"              # T.U.V.W.X.Y.Z.`. +.+++@+@+#+$+%+&+*+=+-+-+;+;+;+;+;+;+-+-+=+*+&+%+$+#+@+@+++.+ +`.Z.Y.X.W.V.U.T.#               ",
"              # T.U.V.W.X.>+,+'+)+!+.+~+~+{+]+^+/+(+_+:+<+[+[+[+[+[+[+<+:+_+(+/+^+]+{+~+~+.+!+)+'+,+>+X.W.V.U.T.#               ",
"              # T.U.U.}+|+1+2+3+4+5+6+7+8+9+0+a+b+c+d+e+f+g+g+h+h+g+g+f+e+d+c+b+a+0+9+8+7+6+5+4+3+2+1+|+}+U.U.T.#               ",
"              # T.U.V.}+i+1+j+k+3+'+l+m+n+o+p+q+r+s+t+u+v+w+w+w+w+w+w+v+u+t+s+r+q+p+o+n+m+l+'+3+k+j+1+i+}+V.U.T.#               ",
"              # T.V.x+y+z+A+B+C+D+,+E+F+G+H+I+J+K+L+M+N+O+P+Q+Q+Q+Q+P+O+N+M+L+K+J+I+H+G+F+E+,+D+C+B+A+z+y+x+V.T.#               ",
"              # T.x+R+S+T+U+A+V+1+>+W+X+Y+Z+`+ @.@+@@@#@$@%@P+&@&@P+%@$@#@@@+@.@ @`+Z+Y+X+W+>+1+V+A+U+T+S+R+x+T.#               ",
"              # *@=@-@;@y+T+z+>@>@,@'@)@!@~@{@]@^@/@(@_@:@<@[@}@}@[@<@:@_@(@/@^@]@{@~@!@)@'@,@>@>@z+T+y+;@-@=@*@#               ",
"              i+T.R+|@1@;@S+2@3@4@5@6@7@8@9@0@a@b@c@d@e@f@g@h@i@i@h@g@f@e@d@c@b@a@0@9@8@7@6@5@4@3@2@S+;@1@|@R+T.i+              ",
"              j@k@V.l@|@-@R+m@n@n@o@p@q@r@s@t@u@v@w@x@y@z@A@B@C@C@B@A@z@y@x@w@v@u@t@s@r@q@p@o@n@n@m@R+-@|@l@V.k@j@              ",
"              D@E@F@V.G@R+m@V.H@n@o@p@I@J@K@L@M@N@O@P@Q@R@S@T@U@U@T@S@R@Q@P@O@N@M@L@K@J@I@p@o@n@H@V.m@R+G@V.F@E@D@              ",
"              V@W@E@k@4@X@Y@3@X@3@5@6@Z@`@ #.#+#@###$#%#&#*#=#-#-#=#*#&#%#$###@#+#.# #`@Z@6@5@3@X@3@Y@X@4@k@E@W@V@              ",
"              ;#>#,#'#i+# X.)#!#!#~#'@{#]#^#/#(#_#:#<#[#}#*#|#1#1#|#*#}#[#<#:#_#(#/#^#]#{#'@~#!#!#)#X.# i+'#,#>#;#              ",
"              2#3#4#5#6#7#8#9#0#a#t.b#c#d#e#f#g#h#i#j#5@k#l#m#n#n#m#l#k#5@j#i#h#g#f#e#d#c#b#t.a#0#9#8#7#6#5#4#3#2#              ",
"              o#p#q#r#s#t#u#v#w#x#y#z#A#B#C#D#E#F#G#S+k@H#I#J#K#K#J#I#H#k@S+G#F#E#D#C#B#A#z#y#x#w#v#u#t#s#r#q#p#o#              ",
"              L#M#N#O#P#Q#R#S#: T#U#V#W#X#Y#Z#`# $.$+$@$#$H#$$# # $$H##$@$+$.$ $`#Z#Y#X#W#V#U#T#: S#R#Q#P#O#N#M#L#              ",
"              %$&$*$*$=$-$;$>$,$'$)$!$~${$]$^$/$($_$:$<$@$[$*@y+y+*@[$@$<$:$_$($/$^$]${$~$!$)$'$,$>$;$-$=$*$*$&$%$              ",
"              }$|$1$1$2$3$4$5$6$7$8$9$0$a$b$c$d$e$f$g$h$i$S+j$k$k$j$S+i$h$g$f$e$d$c$b$a$0$9$8$7$6$5$4$3$2$1$1$|$}$              ",
"              l$m$n$o$p$q$r$s$t$u$v$9$w$w$x$y$z$A$B$C$D$E$& F$k$k$F$& E$D$C$B$A$z$y$x$w$w$9$v$u$t$s$r$q$p$o$n$m$l$              ",
"              G$H$I$I$H$J$K$L$M$N$O$P$Q$Q$R$S$T$U$V$W$X$W@Y$Z$X@X@Z$Y$W@X$W$V$U$T$S$R$Q$Q$P$O$N$M$L$K$J$H$I$I$H$G$              ",
"              `$ %.%.%+%@%#%$%%%&%*%v.=%=%V#-%;%>%,%'%)%!%~%{%]%]%{%~%!%)%'%,%>%;%-%V#=%=%v.*%&%%%$%#%@%+%.%.% %`$              ",
"              ^%/%(%_%:%<%[%}%|%1%2%u.d.d.u.3%4%5%6%7%8%9%0%a%b%b%a%0%9%8%7%6%5%4%3%u.d.d.u.2%1%|%}%[%<%:%_%(%/%^%              ",
"              ' , c%d%e%f%U+g%1+1+h%Y.i%i%Y.Y.j%k%9#0%l%J#a%m%m%m%m%a%J#l%0%9#k%j%Y.Y.i%i%Y.h%1+1+g%U+f%e%d%c%, '               ",
"              >@4@n%o%p%q%r%z+i+s%X.X.X.X.X.X.]%]%]%]%# i+' t%t%t%t%' i+# ]%]%]%]%X.X.X.X.X.X.s%i+z+r%q%p%o%n%4@>@              ",
"              |+u%v%w%x%;@F@2@}+}+W.3@3@3@3@3@3@3@3@Y@*@T.T.y%y%y%y%T.T.*@Y@3@3@3@3@3@3@3@3@W.}+}+2@F@;@x%w%v%u%|+              ",
"              z%A%B%C%D%1@G@x+U.U.V.V.V.V.V.V.V.V.V.V.V.V.U.U.U.U.U.U.V.V.V.V.V.V.V.V.V.V.V.V.U.U.x+G@1@D%C%B%A%z%              ",
"              E%F%G%H%I%J%K%L%V.V.V.V.V.V.V.V.V.V.V.V.V.V.V.V.V.V.V.V.V.V.V.V.V.V.V.V.V.V.V.V.V.V.L%K%J%I%H%G%F%E%              ",
"              {#M%N%O%P%Q%R%y+Y@Y@X@X@X@X@X@X@X@X@X@X@X@X@X@X@X@X@X@X@X@X@X@X@X@X@X@X@X@X@X@X@Y@Y@y+R%Q%P%O%N%M%{#              ",
"              S%T%U%V%W% %X%Y%# >@)#)#)#)#)#)#)#)#)#)#)#)#)#)#)#)#)#)#)#)#)#)#)#)#)#)#)#)#)#)#>@# Y%X% %W%V%U%T%S%              ",
"              Z%`% &.&+&@&#&$&%&&&*&*&*&*&*&*&*&*&*&*&*&*&*&*&*&*&*&*&*&*&*&*&*&*&*&*&*&*&*&*&&&%&$&#&@&+&.& &`%Z%              ",
"              =&-&;&>&,&'&)&!&~&{&]&^&^&^&^&^&^&^&^&^&^&^&^&^&^&^&^&^&^&^&^&^&^&^&^&^&^&^&^&]&{&~&!&)&'&,&>&;&-&=&              ",
"              /&(&_&_&:&<&[&}&|&|&1&1&1&1&1&1&1&1&1&1&1&1&1&1&1&1&1&1&1&1&1&1&1&1&1&1&1&1&1&1&|&|&}&[&<&:&_&_&(&/&              "};
