/* XPM */
static char * coin_xpm[] = {
"64 50 18 1",
" 	c #010101",
".	c #575757",
"+	c #6F6F6F",
"@	c #7C7C7C",
"#	c #8A8A8A",
"$	c #414141",
"%	c #FFFFFF",
"&	c #373737",
"*	c #E6E6E6",
"=	c #636363",
"-	c #4C4C4C",
";	c #2E2E2E",
">	c #9A9A9A",
",	c #ABABAB",
"'	c #242424",
")	c #BEBEBE",
"!	c #D1D1D1",
"~	c #EDEDED",
"                                                                ",
"                                                                ",
"                                                                ",
"                                                                ",
"                                                                ",
"                                                                ",
"                                                                ",
"                                                                ",
"                                                                ",
"                                                                ",
"                                                                ",
"                                !  !                            ",
"                            )>+++++@#@!                         ",
"                          !@+.@==@=.@#,#,                       ",
"                         >@+@+=#=@,.#+>#+#!                     ",
"                        >@@>#@==.+@@>+#@@##)                    ",
"                       >@@$#+++=@@##++@=+@@+)                   ",
"                      )#>#@++++),,!#++@===+=+                   ",
"                      +#-+.+-=#!))*>,##+++=++,                  ",
"                     >+.+..=.+>!#)>@,=##,+.++@                  ",
"                     #==-$@#+>@,>@-@#,+#>>#@-+!                 ",
"                    !=+@.=.@=@=+>#@>,++#,#++-.)                 ",
"                    )=..=..+=++.>,++&>>#,,@=@+#                 ",
"                    ,--.$=-.,..=.+=,=#@+#,++=-@                 ",
"                    ,=.#.@@##..@$-..+#>+,,+++@@                 ",
"                    >@-+--.==>.-,#---=++>,===.+                 ",
"                    ,.-=.+==$=>+.-=++$-#>@+.-.+                 ",
"                    )+..$..@>.-##.#>,###+@+.=+@                 ",
"                    !+$++-+++@+==>#+.-..==+=.=>                 ",
"                     @.--.+>>,@=-$.#..=@@++-.+)                 ",
"                     )===-==--+@#@.-@,+..=.==@!                 ",
"                      #=--$$@.=+@+==-.#@@=$.=>                  ",
"                      !.---=+@+++=...-=@$--.@                   ",
"                       )+---+=.--=+++=.-..=+,                   ",
"                        ,++..=.++-$$-$=..-+,                    ",
"                         )++-.=......=...=,                     ",
"                          !#=.++-=+-=+.=@)                      ",
"                             ,#@===..+#)                        ",
"                                 !)!                            ",
"                                                                ",
"                                                                ",
"                                                                ",
"                                                                ",
"                                                                ",
"                                                                ",
"                                                                ",
"                                                                ",
"                                                                ",
"                                                                ",
"                                                                "};
