/* XPM */
static char * ct_xpm[] = {
"60 70 624 2",
"  	c #010101",
". 	c #F6F6F6",
"+ 	c #F3F3F3",
"@ 	c #CACACA",
"# 	c #BFBFBD",
"$ 	c #D9D9D7",
"% 	c #ECECEC",
"& 	c #DDDDDD",
"* 	c #9B9A96",
"= 	c #766F65",
"- 	c #54534E",
"; 	c #504F4A",
"> 	c #51524D",
", 	c #908F8B",
"' 	c #F5F5F5",
") 	c #87827C",
"! 	c #53564D",
"~ 	c #5B5243",
"{ 	c #4E4033",
"] 	c #4D3D2D",
"^ 	c #33332B",
"/ 	c #453C33",
"( 	c #5A5B53",
"_ 	c #F7F7F7",
": 	c #605748",
"< 	c #4E4B3A",
"[ 	c #67523F",
"} 	c #505044",
"| 	c #5C4533",
"1 	c #554631",
"2 	c #5E4833",
"3 	c #6E6B62",
"4 	c #E2E2E2",
"5 	c #705B48",
"6 	c #7D6951",
"7 	c #60513E",
"8 	c #4D5045",
"9 	c #5B4B3B",
"0 	c #524C3C",
"a 	c #614B36",
"b 	c #5E4D3B",
"c 	c #6E6252",
"d 	c #E6E6E6",
"e 	c #E5E4E2",
"f 	c #4A463A",
"g 	c #62503A",
"h 	c #5F4E3C",
"i 	c #22231E",
"j 	c #2F302B",
"k 	c #594834",
"l 	c #575548",
"m 	c #694E3B",
"n 	c #666352",
"o 	c #E7E7E7",
"p 	c #EAEAEA",
"q 	c #5E5F5A",
"r 	c #483F2E",
"s 	c #5D5E4E",
"t 	c #4F493D",
"u 	c #21211F",
"v 	c #393A32",
"w 	c #393C33",
"x 	c #564F3F",
"y 	c #624935",
"z 	c #574F3C",
"A 	c #858782",
"B 	c #616360",
"C 	c #E8E8E6",
"D 	c #3F4134",
"E 	c #273222",
"F 	c #293221",
"G 	c #293122",
"H 	c #2A3022",
"I 	c #293124",
"J 	c #282E20",
"K 	c #272F22",
"L 	c #263123",
"M 	c #2A3223",
"N 	c #F5F5F7",
"O 	c #53503F",
"P 	c #55584D",
"Q 	c #25281D",
"R 	c #29332B",
"S 	c #252D1E",
"T 	c #76888C",
"U 	c #5B686E",
"V 	c #384742",
"W 	c #6A7881",
"X 	c #64737A",
"Y 	c #627073",
"Z 	c #646F71",
"` 	c #2C3226",
" .	c #F4F4F4",
"..	c #857B60",
"+.	c #625640",
"@.	c #25291B",
"#.	c #232E28",
"$.	c #1A2419",
"%.	c #707D83",
"&.	c #454F50",
"*.	c #3F4543",
"=.	c #66747D",
"-.	c #60686B",
";.	c #586367",
">.	c #5D6768",
",.	c #2B2F20",
"'.	c #6E6755",
").	c #85806C",
"!.	c #1D251A",
"~.	c #293430",
"{.	c #1D2017",
"].	c #5E5C5F",
"^.	c #4B4340",
"/.	c #4D443F",
"(.	c #666970",
"_.	c #433E38",
":.	c #576268",
"<.	c #4D5655",
"[.	c #333122",
"}.	c #545648",
"|.	c #5A5E50",
"1.	c #25302C",
"2.	c #141E16",
"3.	c #394446",
"4.	c #2D3738",
"5.	c #293533",
"6.	c #4F5C64",
"7.	c #212B2A",
"8.	c #4C5759",
"9.	c #3B403A",
"0.	c #363428",
"a.	c #5D5B4C",
"b.	c #484B40",
"c.	c #1C2417",
"d.	c #182217",
"e.	c #353E43",
"f.	c #273130",
"g.	c #4D5760",
"h.	c #1D2822",
"i.	c #444F51",
"j.	c #313831",
"k.	c #61625C",
"l.	c #AAABA3",
"m.	c #6B6652",
"n.	c #1C2216",
"o.	c #28332F",
"p.	c #222C2B",
"q.	c #3C474B",
"r.	c #1E2820",
"s.	c #353F41",
"t.	c #313733",
"u.	c #8F9190",
"v.	c #F7F6F4",
"w.	c #4C4C4C",
"x.	c #3B3B3B",
"y.	c #353736",
"z.	c #121C11",
"A.	c #162119",
"B.	c #1C261D",
"C.	c #1B2620",
"D.	c #1E2923",
"E.	c #18231D",
"F.	c #242D28",
"G.	c #222721",
"H.	c #5F5F5F",
"I.	c #858585",
"J.	c #9F9F9F",
"K.	c #3E3E3E",
"L.	c #313131",
"M.	c #393939",
"N.	c #030706",
"O.	c #111715",
"P.	c #1B2618",
"Q.	c #202A1F",
"R.	c #222A1F",
"S.	c #2D3132",
"T.	c #2F2F2F",
"U.	c #3F3F3F",
"V.	c #484848",
"W.	c #636363",
"X.	c #C0C0C0",
"Y.	c #7B7C7E",
"Z.	c #343235",
"`.	c #2E2E30",
" +	c #303032",
".+	c #272727",
"++	c #202020",
"@+	c #010204",
"#+	c #0D0F0E",
"$+	c #2F2F31",
"%+	c #323234",
"&+	c #2F3032",
"*+	c #2C2C2C",
"=+	c #39373A",
"-+	c #38393B",
";+	c #494846",
">+	c #7E7E7E",
",+	c #404447",
"'+	c #353638",
")+	c #2E2E2E",
"!+	c #2A2A2A",
"~+	c #2E302F",
"{+	c #272729",
"]+	c #43484C",
"^+	c #353535",
"/+	c #0E0E0E",
"(+	c #3A3839",
"_+	c #383637",
":+	c #2A3030",
"<+	c #3A3A3A",
"[+	c #665F4C",
"}+	c #2B3033",
"|+	c #343434",
"1+	c #28292B",
"2+	c #2D2E30",
"3+	c #333333",
"4+	c #2E373E",
"5+	c #2A2829",
"6+	c #040404",
"7+	c #383838",
"8+	c #282D30",
"9+	c #3B3B3D",
"0+	c #333331",
"a+	c #A99C79",
"b+	c #4A4A4A",
"c+	c #2B292A",
"d+	c #1E2628",
"e+	c #1E1E20",
"f+	c #2D2D2D",
"g+	c #2D2D2B",
"h+	c #383A39",
"i+	c #292E34",
"j+	c #232323",
"k+	c #333134",
"l+	c #303030",
"m+	c #020202",
"n+	c #302E2F",
"o+	c #242829",
"p+	c #2E2D2B",
"q+	c #363636",
"r+	c #363437",
"s+	c #151513",
"t+	c #484A49",
"u+	c #F6F5F1",
"v+	c #292A2C",
"w+	c #202427",
"x+	c #18191B",
"y+	c #2B2B29",
"z+	c #2C2D28",
"A+	c #262825",
"B+	c #343633",
"C+	c #242625",
"D+	c #2C3135",
"E+	c #212224",
"F+	c #2B2B2B",
"G+	c #323033",
"H+	c #030303",
"I+	c #24282B",
"J+	c #1E1F21",
"K+	c #373737",
"L+	c #252525",
"M+	c #171717",
"N+	c #695C3C",
"O+	c #1B1B1B",
"P+	c #151515",
"Q+	c #252527",
"R+	c #1C2023",
"S+	c #23282B",
"T+	c #2E302B",
"U+	c #333530",
"V+	c #232522",
"W+	c #323230",
"X+	c #282828",
"Y+	c #0B0B0D",
"Z+	c #232325",
"`+	c #23272A",
" @	c #1E2223",
".@	c #121212",
"+@	c #323232",
"@@	c #1A1A1A",
"#@	c #18191D",
"$@	c #1E2326",
"%@	c #262628",
"&@	c #262626",
"*@	c #3B3D3A",
"=@	c #3E3F3A",
"-@	c #363837",
";@	c #1B1B19",
">@	c #2D2B2C",
",@	c #212121",
"'@	c #141414",
")@	c #252523",
"!@	c #363A3D",
"~@	c #212322",
"{@	c #1E201F",
"]@	c #1D1D1D",
"^@	c #0F0F0F",
"/@	c #232524",
"(@	c #111214",
"_@	c #797B7A",
":@	c #434748",
"<@	c #121214",
"[@	c #1C1C1C",
"}@	c #141517",
"|@	c #161817",
"1@	c #1F1F1F",
"2@	c #3D3F3C",
"3@	c #1F2120",
"4@	c #323431",
"5@	c #3A3C3B",
"6@	c #222423",
"7@	c #121315",
"8@	c #242424",
"9@	c #35393A",
"0@	c #1C1E1D",
"a@	c #0C0C0C",
"b@	c #0B0C0E",
"c@	c #282C2F",
"d@	c #4A4B4D",
"e@	c #DADCDB",
"f@	c #747577",
"g@	c #2B2F32",
"h@	c #313538",
"i@	c #1F2326",
"j@	c #3D3D3D",
"k@	c #0D0D0D",
"l@	c #19191B",
"m@	c #262624",
"n@	c #232321",
"o@	c #353533",
"p@	c #2D2E29",
"q@	c #343530",
"r@	c #313330",
"s@	c #2D2D2F",
"t@	c #181C1F",
"u@	c #202425",
"v@	c #292E31",
"w@	c #2E3233",
"x@	c #404445",
"y@	c #727375",
"z@	c #848587",
"A@	c #292D30",
"B@	c #2A2E2F",
"C@	c #23282C",
"D@	c #212528",
"E@	c #202123",
"F@	c #212320",
"G@	c #181818",
"H@	c #1A1B1D",
"I@	c #30302E",
"J@	c #272926",
"K@	c #3B3D38",
"L@	c #262827",
"M@	c #292929",
"N@	c #282725",
"O@	c #1B1F22",
"P@	c #57585A",
"Q@	c #4C4D4F",
"R@	c #5F6362",
"S@	c #B0B0B2",
"T@	c #A8A9AB",
"U@	c #23262B",
"V@	c #2E3235",
"W@	c #363739",
"X@	c #DFDFDF",
"Y@	c #6A6B6D",
"Z@	c #504E4F",
"`@	c #1E1E1E",
" #	c #747474",
".#	c #474749",
"+#	c #2C2E2D",
"@#	c #454744",
"##	c #282826",
"$#	c #2A2927",
"%#	c #353734",
"&#	c #222222",
"*#	c #262427",
"=#	c #17181A",
"-#	c #151618",
";#	c #4F5052",
">#	c #4D4F4E",
",#	c #67686A",
"'#	c #AEB0AF",
")#	c #787A79",
"!#	c #F1F2F4",
"~#	c #414F5A",
"{#	c #313F48",
"]#	c #2B3034",
"^#	c #171B1C",
"/#	c #2B2A2F",
"(#	c #3A3B3D",
"_#	c #101211",
":#	c #141615",
"<#	c #101010",
"[#	c #111113",
"}#	c #1A1E1F",
"|#	c #161614",
"1#	c #1D1D1B",
"2#	c #202022",
"3#	c #1C1C1E",
"4#	c #191919",
"5#	c #F5F5F3",
"6#	c #292D2E",
"7#	c #464749",
"8#	c #5C6061",
"9#	c #3B4851",
"0#	c #394750",
"a#	c #4D5255",
"b#	c #F7F5F6",
"c#	c #282B30",
"d#	c #242E37",
"e#	c #1E1F23",
"f#	c #1B1D1C",
"g#	c #191A1C",
"h#	c #28282A",
"i#	c #262722",
"j#	c #1A1F22",
"k#	c #181A19",
"l#	c #282627",
"m#	c #CFD0D2",
"n#	c #272C2F",
"o#	c #2B363C",
"p#	c #48555D",
"q#	c #313E46",
"r#	c #2D2B2E",
"s#	c #343D44",
"t#	c #141416",
"u#	c #C2C6C9",
"v#	c #111111",
"w#	c #2E2E2C",
"x#	c #302C20",
"y#	c #272526",
"z#	c #1C1D1F",
"A#	c #1A1819",
"B#	c #212123",
"C#	c #14181B",
"D#	c #292E32",
"E#	c #27282A",
"F#	c #424345",
"G#	c #1A1A1C",
"H#	c #0F0F0D",
"I#	c #0B0B09",
"J#	c #0A0C0B",
"K#	c #191718",
"L#	c #F6F6F8",
"M#	c #090907",
"N#	c #0E1215",
"O#	c #20272F",
"P#	c #F1F1F1",
"Q#	c #5C5E5D",
"R#	c #93989C",
"S#	c #0B0B0B",
"T#	c #121011",
"U#	c #363732",
"V#	c #F6F6F4",
"W#	c #D5D5D5",
"X#	c #161616",
"Y#	c #7B7B7B",
"Z#	c #EEEEEE",
"`#	c #222224",
" $	c #171516",
".$	c #2B2D2C",
"+$	c #1D1B1C",
"@$	c #3C3B37",
"#$	c #727272",
"$$	c #39393B",
"%$	c #16171B",
"&$	c #1E1C1F",
"*$	c #313234",
"=$	c #131315",
"-$	c #242529",
";$	c #363435",
">$	c #303435",
",$	c #0D0E10",
"'$	c #0C0B09",
")$	c #121013",
"!$	c #0E0F13",
"~$	c #4D4D4D",
"{$	c #F5F7F6",
"]$	c #29292B",
"^$	c #5F5D5E",
"/$	c #333237",
"($	c #7C7D7F",
"_$	c #1D2225",
":$	c #1D2226",
"<$	c #1E2327",
"[$	c #212629",
"}$	c #1B2023",
"|$	c #303437",
"1$	c #414141",
"2$	c #1D1F1E",
"3$	c #333335",
"4$	c #2E2F31",
"5$	c #6C6D6F",
"6$	c #2C3033",
"7$	c #1D2124",
"8$	c #1F2428",
"9$	c #1F2227",
"0$	c #1F2427",
"a$	c #2C2D2F",
"b$	c #E6E6E8",
"c$	c #4B4B4B",
"d$	c #404143",
"e$	c #2F3035",
"f$	c #1A1F23",
"g$	c #181D20",
"h$	c #272B2C",
"i$	c #646464",
"j$	c #606060",
"k$	c #666769",
"l$	c #22272A",
"m$	c #1B1E23",
"n$	c #171B1E",
"o$	c #181B20",
"p$	c #1C1F24",
"q$	c #202328",
"r$	c #1B1C1E",
"s$	c #F1F3F0",
"t$	c #ABABAB",
"u$	c #121615",
"v$	c #0E0F11",
"w$	c #161C1C",
"x$	c #1C2125",
"y$	c #191E21",
"z$	c #1D2025",
"A$	c #666666",
"B$	c #A2A3A5",
"C$	c #050507",
"D$	c #393A3C",
"E$	c #1A1E21",
"F$	c #191D20",
"G$	c #131514",
"H$	c #1D1D1F",
"I$	c #6D6D6F",
"J$	c #13171A",
"K$	c #3C3D3F",
"L$	c #2A2C2B",
"M$	c #202528",
"N$	c #1A1B1F",
"O$	c #0C1013",
"P$	c #101012",
"Q$	c #090A0C",
"R$	c #22252A",
"S$	c #434446",
"T$	c #333436",
"U$	c #26272B",
"V$	c #12171A",
"W$	c #24292C",
"X$	c #15191C",
"Y$	c #262A2D",
"Z$	c #1E2126",
"`$	c #2A2F32",
" %	c #33373A",
".%	c #2A2E31",
"+%	c #121617",
"@%	c #111518",
"#%	c #15161A",
"$%	c #2A2F33",
"%%	c #696A6C",
"&%	c #2C3031",
"*%	c #1E2225",
"=%	c #141819",
"-%	c #262A2B",
";%	c #565759",
">%	c #525355",
",%	c #1B1F20",
"'%	c #1A1D22",
")%	c #1D2122",
"!%	c #232728",
"~%	c #5E5F61",
"{%	c #323335",
"]%	c #1D1E22",
"^%	c #4E4F51",
"/%	c #AFAFAF",
"(%	c #171918",
"_%	c #0F1012",
":%	c #231F1E",
"<%	c #2B2F30",
"[%	c #383C3D",
"}%	c #D1D1D1",
"|%	c #232122",
"1%	c #1B191A",
"2%	c #F2F2F2",
"3%	c #3D3B3C",
"4%	c #232220",
"5%	c #201E1F",
"6%	c #151314",
"7%	c #828282",
"8%	c #1F2324",
"9%	c #28292D",
"0%	c #898B8A",
"a%	c #222627",
"b%	c #222325",
"c%	c #656766",
"d%	c #1B1C20",
"e%	c #323639",
"f%	c #4D4E50",
"g%	c #626463",
"h%	c #232426",
"i%	c #1F2322",
"j%	c #25292A",
"k%	c #7A7C7B",
"l%	c #161A1B",
"m%	c #E1E3E2",
"n%	c #F7F7F5",
"o%	c #1F2024",
"p%	c #242527",
"q%	c #F2F4F3",
"r%	c #2F2D2E",
"s%	c #373938",
"t%	c #515151",
"u%	c #848484",
"v%	c #343233",
"w%	c #454545",
"x%	c #E3E3E3",
"y%	c #2D2C2A",
"z%	c #292927",
"A%	c #F0F0F0",
"B%	c #F6F4F5",
"C%	c #201C1D",
"D%	c #292728",
"E%	c #B5B3B4",
"F%	c #B8B7B5",
"G%	c #302B28",
". . . . . . . . . . . . . . . . . . . . . . . . . . . . . . . . . . . . . . .                                           ",
". . . . . . . . . . . . . . . . . . . . . . . . . . . . . . . . . . . . . . .                                           ",
". . . . . . . . . . . . . + @ # $ % & . . . . . . . . . . . . . . . . . . . .                                           ",
". . . . . . . . . . . . . * = - ; > , ' . . . . . . . . . . . . . . . . . . .                                           ",
". . . . . . . . . . . . ) ! ~ { ] ^ / ( _ . . . . . . . . . . . . . . . . . .                                           ",
". . . . . . . . . . . . : < [ } | 1 2 ~ 3 . . . . . . . . . . . . . . . . . .                                           ",
". . . . . . . . . . . 4 5 6 7 8 9 0 a b c . . . . . . . . . . . . . . . . . .                                           ",
". . . . . . . . . . d e f g h i j k l m n o . . . . . . . . . . . . . . . . .                                           ",
". . . . . . . . . . p q r s t u v w x y z A B . . . . . . . . . . . . . . . .                                           ",
". . . . . . . . . . C D E F G H G I G J K L M . . . . . . . . . . . . . . . .                                           ",
". . . . . . . . . N O P Q R S T U V W X Y Z `  .. . . . . . . . . . . . . . .                                           ",
". . . . . . . . . . ..+.@.#.$.%.&.*.=.-.;.>.,.' . . . . . . . . . . . . . . .                                           ",
". . . . . . . . . . '.).!.~.{.].^./.(._.:.<.[.. . . . . . . . . . . . . . . .                                           ",
". . . . . . . . . _ }.|.!.1.2.3.4.5.6.7.8.9.0.. . . . . . . . . . . . . . . .                                           ",
". . . . . . . . . . a.b.c.1.d.e.f.f.g.h.i.j.k.. . . . . . . . . . . . . . . .                                           ",
". . . . . . . . . . l.m.n.o.d.5.p.7.q.r.s.t.u.. . . . . . . . . . . . . . . .                                           ",
". . . . . . v.. . % w.x.y.z.A.B.C.D.E.r.F.G.H.I.. . . . . . . . . . . . . . .                                           ",
". . . . . . . . . J.K.L.M.N.N.O.P.Q.R.S.T.U.V.W.. . . . . . . . . . . . . . .                                           ",
". . . . . . . X.Y.w.Z.`. +.+++@+#+$+%+&+*+x.=+-+;+>+. . . . . . . . . . . . .                                           ",
". . . . . . . $+,+'+)+!+%+~+{+]+*+*+M.^+/+(+_+:+<+(+[+v.. . . . . . . . . . .                                           ",
". . . . . . . *+}+|+`.1+&+2+3+4+5+L.M.%+6+7+_+8+x.9+0+a+. . . . . . . . . . .                                           ",
". . . . . . b+c+d+e+f+g+g+h+<+i+j+!+k+l+m+n+L.o+p+q+r+s+t+u+. . . . . . . . .                                           ",
". . . . . ' <+v+w+x+y+z+A+B+C+D+E+F+G+%+H+T.l+I+J+K+l+L+M+N+' . . . . . . . .                                           ",
". . . . . O+P+Q+R+S+f+L.T+U+V+W+e+X+)+j+Y+Z+Q+`+ @.@!++@3+T. .. . . . . . . .                                           ",
". . . . . @@X+O+#@$@%@%@&@*@=@E+-@;@>@,@'@.+)@!@~@{@]@^@/@(@_@. . . . . . . .                                           ",
". . . . . :@<@O+[@}@&@{+|@1@2@3@4@5@!+6@7@X+8@9@0@[@M+a@b@c@d@e@. . . . . . .                                           ",
". . . . f@c@g@h@i@% j@k@l@m@n@o@p@q@r@8@M+%@l+T.s@l+t@u@v@w@x@y@z@. . . . . .                                           ",
". . . . x@A@B@C@D@. &@E@F@G@H@]@I@J@i I@K@L@M@N@8@]@. t@O@P@Q@P@R@S@. . . . .                                           ",
". . . T@U@V@W@i@X@Y@Z@`@&@M@ #.#+#@###$#%#&#X+.+*#*+. =#-#;#>#,#'#)#& . . . .                                           ",
". . !#~#{#]#^#/#. (#~@1@_#:#<#[#.@-#1@}#|#1#L+2#3#4#. . 5#6#7#8#9#0#a#b#_ . .                                           ",
". . K.c#d#e# .. . . f#g#}@-#[@h#&@i#++j#k#l#,@G@~@G@. . . m#n#o#p#q#P+&#M+' .                                           ",
". . r#s#t#u#. . . . M+v#H@}@O+!+w#x#y#z#k@O+A#B#G@G@. . . ' C#D#T.^#`@<#&#. .                                           ",
". + E#A@&@. . . . _ F#G#H@M+=#H#I#/+A#v#J#K#G@'@1@4#. . . L#. x+a@M#&#N#O#P#.                                           ",
".  .Q#R#. . . . . . . . [@,@S#a@T#T#4#k@F+M+G@|@`@U#V#. . . . . . W#X#8@H@Y#.                                           ",
". . . . V#. . . . . . . Z#M@`#&#A# $'@k@.$@@P++$8@@$. . . . . . . . ^+&#-##$.                                           ",
". . . . . . . . . . . $$$$%$^@/+X#X#&$@@'@^@v#x+<+*$L#. . . . . . . . =$-$. .                                           ",
". . . . . . . . . . . W@;$>$e#,$'$S#^@<#v#)$!$&#.$~${$. . . . . . . . e#]$. .                                           ",
". . . . . . . . . . ^$/$($9@I+i@_$:$<$d+[$}$|$1$2$3$V#. . . . . . . . . . . .                                           ",
". . . . . . . . . . 4$B#5$g@6$7$8$$@9$0$w+i@`+a$b$. . . . . . . . . . . . . .                                           ",
". . . . . . . . . . h#c$d$e$`+9$R+O@f$g$9$_$h$W@i$ .. . . . . . . . . . . . .                                           ",
". . . . . . . . . . j$k${@l$[$m$n$m$o$_$R+p$q$-+r$h#s$. . . . . . . . . . . .                                           ",
". . . . . . . . . . t$V.]@u$<$`+v$w$S+x$y$#@z$i@]@M+A$. . . . . . . . . . . .                                           ",
". . . . . . . . . . B$V.r$^@7@R+C$D$m$p$E$i@F$G$]@H$L.. . . . . . . . . . . .                                           ",
". . . . . . . . . . I$7$<#O@9$=#. . J$.@a@a@v#v$v+e+++. . . . . . . . . . . .                                           ",
". . . . . . . . . . K$L$M$}@N$O$. . . P$Q$M$9$l$R$S$. . . . . . . . . . . . .                                           ",
". . . . . . . . . . T$U$7$t@V$& . . . E$D@q$9$S+W$K$. . . . . . . . . . . . .                                           ",
". . . . . . . . . W#p$E$X$X$J$. . . . Y$M$M$Z$q$`$ %p . . . . . . . . . . . .                                           ",
". . . . . . . . . . h$.%+%@%#%. . . . . 7$$@Z$Z$c@$%%%. . . . . . . . . . . .                                           ",
". . . . . . . . . . &%*$*%-#=%. . . . . *$_$R+O@-%A@;%. . . . . . . . . . . .                                           ",
". . . . . . . . . . . >%,%'%g$. . . . . . 7$)%0$!%6#~%. . . . . . . . . . . .                                           ",
". . . . . . . . . .  .{% @)%H@. . . . . . ]%i@w+u@I+^%. . . . . . . . . . . .                                           ",
". . . . . . . . . /%(%_%4#P+:%' . . . . . &+I+<%_$l$[%' . . . . . . . . . . .                                           ",
". . . . . . . . }%,@|%1% .. . . . . . . . . {%&+w+u@E$2%. . . . . . . . . . .                                           ",
". . . . . . . . 3%4%5%6%. . . . . . . . . b#7%o+8%7$9%0%. . . . . . . . . . .                                           ",
". . . . . . . _ ' _ . . . . . . . . . . . . . *$a%b%O@c%. . . . . . . . . . .                                           ",
". . . . . . . . . . . . . . . . . . . . . . ' *% @d%e%f%' . . . . . . . . . .                                           ",
". . . . . . . . . . . . . . . . . . . . . . . O@i@]%O@g%% . . . . . . . . . .                                           ",
". . . . . . . . . . . . . . . . . . . . . . . !%h%u@i%j%k%. . . . . . . . . .                                           ",
". . . . . . . . . . . . . . . . . . . . . . . . D@u@)%l%m%. . . . . . . . . .                                           ",
". . . . . . . . . . . . . . . . . . . . . . . n%o%u@p%z#q%. . . . . . . . . .                                           ",
". . . . . . . . . . . . . . . . . . . . . . . . r%P+E+s%. . . . . . . . . . .                                           ",
". . . . . . . . . . . . . . . . . . . . . . . . t%t#S#u%. . . . . . . . . . .                                           ",
". . . . . . . . . . . . . . . . . . . . . . . {$v%v#[#w%. . . . . . . . . . .                                           ",
". . . . . . . . . . . . . . . . . . . . . . . . M@[@[@F++ . . . . . . . . . .                                           ",
". . . . . . . . . . . . . . . . . . . . . . . . L+++E@8@x%. . . . . . . . . .                                           ",
". . . . . . . . . . . . . . . . . . . . . . . . y%&#j+z%A%. . . . . . . . . .                                           ",
". . . . . . . . . . . . . . . . . . . . . . . . B%C%D%E%. . . . . . . . . . .                                           ",
". . . . . . . . . . . . . . . . . . . . . . . . . F%G%b#. . . . . . . . . . .                                           ",
". . . . . . . . . . . . . . . . . . . . . . . . . . . . . . . . . . . . . . .                                           ",
". . . . . . . . . . . . . . . . . . . . . . . . . . . . . . . . . . . . . . .                                           "};
