/* XPM */
static char * egg_xpm[] = {
"64 64 140 2",
"  	c #010101",
". 	c #FFFFFF",
"+ 	c #FAFAFA",
"@ 	c #E6E6E6",
"# 	c #EEEEEE",
"$ 	c #E5E5E5",
"% 	c #000000",
"& 	c #989898",
"* 	c #BDBDBD",
"= 	c #BCBCBC",
"- 	c #BABABA",
"; 	c #BBBBBB",
"> 	c #E7E7E7",
", 	c #0C0C0C",
"' 	c #7F7F7F",
") 	c #D8D8D8",
"! 	c #CACACA",
"~ 	c #B1B1B1",
"{ 	c #808080",
"] 	c #D51920",
"^ 	c #D5181F",
"/ 	c #DB4245",
"( 	c #F18284",
"_ 	c #F8CFCF",
": 	c #F7F7F7",
"< 	c #B2B2B2",
"[ 	c #929292",
"} 	c #ED1C24",
"| 	c #F6BEBF",
"1 	c #ABABAB",
"2 	c #E9E9E9",
"3 	c #010000",
"4 	c #C9C9C9",
"5 	c #CC141C",
"6 	c #FAD9D9",
"7 	c #ED161F",
"8 	c #ED1A22",
"9 	c #6E0001",
"0 	c #5D5D5D",
"a 	c #CC161D",
"b 	c #6F070B",
"c 	c #5E5E5E",
"d 	c #F2F2F2",
"e 	c #AFAFAF",
"f 	c #B9B9B9",
"g 	c #C7C7C7",
"h 	c #E37375",
"i 	c #EF6668",
"j 	c #F7C8C8",
"k 	c #FBE6E6",
"l 	c #C4151C",
"m 	c #B9131A",
"n 	c #B84244",
"o 	c #D3D3D3",
"p 	c #E8E8E8",
"q 	c #ACACAC",
"r 	c #F29495",
"s 	c #F18283",
"t 	c #E11A22",
"u 	c #A8A8A8",
"v 	c #FDEFEF",
"w 	c #FCE8E8",
"x 	c #F9D7D7",
"y 	c #F17E7F",
"z 	c #F18182",
"A 	c #FEF8F8",
"B 	c #F39C9D",
"C 	c #ED2A30",
"D 	c #F5ACAD",
"E 	c #FBFBFB",
"F 	c #3A3A3A",
"G 	c #F5B1B1",
"H 	c #EE4245",
"I 	c #E24144",
"J 	c #AAAAAA",
"K 	c #FDFDFD",
"L 	c #545454",
"M 	c #7A7A7A",
"N 	c #CCCCCC",
"O 	c #CDCDCD",
"P 	c #F9D4D4",
"Q 	c #F9D3D4",
"R 	c #ED262C",
"S 	c #FBE2E2",
"T 	c #ED2128",
"U 	c #F3999A",
"V 	c #F6BFBF",
"W 	c #F4ABAC",
"X 	c #C48889",
"Y 	c #F07A7C",
"Z 	c #BE141B",
"` 	c #723536",
" .	c #F07779",
"..	c #FBE3E3",
"+.	c #EE3B3F",
"@.	c #71070B",
"#.	c #FADCDC",
"$.	c #7C7C7C",
"%.	c #636363",
"&.	c #885B5B",
"*.	c #DF1A21",
"=.	c #E51B22",
"-.	c #F8CFD0",
";.	c #FDF1F1",
">.	c #EF686A",
",.	c #EF6769",
"'.	c #EF5D5F",
").	c #ED1E26",
"!.	c #F4ABAB",
"~.	c #EC1C24",
"{.	c #BB4345",
"].	c #D5D5D5",
"^.	c #A00F15",
"/.	c #ED1720",
"(.	c #FDF0F0",
"_.	c #F4AAAB",
":.	c #F6F6F6",
"<.	c #BBA2A2",
"[.	c #9B0E14",
"}.	c #DA1920",
"|.	c #FBE4E4",
"1.	c #F8CECE",
"2.	c #B16162",
"3.	c #A24C4D",
"4.	c #E3E3E3",
"5.	c #787878",
"6.	c #F3F3F3",
"7.	c #998B8C",
"8.	c #520406",
"9.	c #520305",
"0.	c #595959",
"a.	c #939393",
"b.	c #DCDCDC",
"c.	c #E1E1E1",
"d.	c #F5F5F5",
"e.	c #AEAEAE",
"f.	c #9A9A9A",
"g.	c #CECECE",
"h.	c #EDEDED",
"i.	c #F0F0F0",
"                                                                                                                                ",
"                                                                                                                                ",
"                                                                                                                                ",
"                                                                                                                                ",
"                                                                                                                                ",
"                                                                                                                                ",
"                                                                                                                                ",
"                                                                                                                                ",
"                                                                                                                                ",
"                                                  + @ @ @ @ @ @ @ @ @ @ #                                                       ",
"                                                  $ % % % % % % % % % % &                                                       ",
"                                                  $ % % % % % % % % % % &                                                       ",
"                                              * * = - - - - - - - - - - ; * * >                                                 ",
"                                              , % ' . . . . . . . . . . ) % % !                                                 ",
"                                              , % ' . . . . . . . . . . ) % % !                                                 ",
"                                        ~ { { ] ^ / ( ( _ . . . . . . . : $ $ < { { #                                           ",
"                                        [ % % } } } } } | . . . . . . . . . . 1 % % 2                                           ",
"                                        [ 3 % } } } } } | . . . . . . . . . . 1 3 3 2                                           ",
"                                  4 % % 5 } } } } } } } | . . . . . . . 6 7 7 8 } } 9 % 0                                       ",
"                                  4 % % a } } } } } } } | . . . . . . . 6 } } } } } b % c                                       ",
"                                  4 % % a } } } } } } } | . . . . . . . 6 } } } } } b % c                                       ",
"                                  4 % % a } } } } } } } | . . . . . . . 6 } } } } } b % c                                       ",
"                                  4 % % a } } } } } } } | . . . . . . . 6 } } } } } b % c                                       ",
"                            d e e f g g h } } } } i j j k . . . . . . . 6 } } } } } l m n e e o                                 ",
"                            p % % q . . r } } } } s . . . . . . . . . . 6 } } } } } } } t % % u                                 ",
"                            p % % q . . r } } } } s . . . . . . . . . . 6 } } } } } } } t % % u                                 ",
"                            p % % q . . v w w w w x y y y y y y y z . . A w w B } } } } t % % u                                 ",
"                            p % % q . . . . . . . k } } } } } } } C . . . . . D } } } } t % % u                                 ",
"                        E + $ F F ~ . . . . . . . k } } } } } } } C . . . . . G H H H H I F F J + + K                           ",
"                        L % M . . . . . . . . . . k } } } } } } } C . . . . . . . . . . . . . N % % O                           ",
"                        L % M . . . . . . . . . . k } } } } } } } C . . . . . . . . . . . . . N % % O                           ",
"                        L % M . . . . . . . . P Q | } } } } } } } R P Q S . . . . . . . . . . N % % O                           ",
"                        L % M . . . . . . . . T } } } } } } } } } } } } U . . . . . . . . . . N % % O                           ",
"                        L % M . . . . . . . . T } } } } } } } } } } } } U . . . . . . . . . . N % % O                           ",
"                        L % M . . . . . . . . T } } } } } } } } } } } } U . . . . . V W W W W X % % O                           ",
"                        L % M . . . . . . . . T } } } } } } } } } } } } U . . . . . Y } } } } Z % % O                           ",
"                        L % M . . . . . . . . T } } } } } } } } } } } } U . . . . . Y } } } } Z % % O                           ",
"                        L % `  . . . . .... . T } } } } } } } } } } } } U . . |  . .+.} } } } Z % % O                           ",
"                        L % @.} } } } } #.. . T } } } } } } } } } } } } U . . D } } } } } } } Z % % O                           ",
"                        $.%.&.*.*.=.} } -.;.;.>.,.'.} } } } } } } ).,.,.!.. . D } } } } ~.*.*.{.%.%.]                           ",
"                            p % % ^.} } } } /.. . k } } } } } } } C . . . . . D } } } } t % % u                                 ",
"                            p % % ^.} } } } /.. . k } } } } } } } C . . . . . D } } } } t % % u                                 ",
"                            p % % ^.} } } } /.. . (._._._._._._._.W . . . . . D } } } } t % % u                                 ",
"                            p % % ^.} } } } /.. . . . . . . . . . . . . . . . D } } } } t % % u                                 ",
"                            p % % ^.} } } } /.. . . . . . . . . . . . . . . . D } } } } t % % u                                 ",
"                            :.O O <.[.[.}.} /.. . . . . . . . . . . . . . . . |.1.1.2.[.3.O O 4.                                ",
"                                  4 % % a } /.. . . . . . . . . . . . . . . . . . . 5.% c                                       ",
"                                  4 % % a } /.. . . . . . . . . . . . . . . . . . . 5.% c                                       ",
"                                  + 6.6.7.8.9.0.0.a.. . . . . . . . . . b.0.0.0.0.0.c.6.d.                                      ",
"                                        [ % % % % ' . . . . . . . . . . ) % % % % % 2                                           ",
"                                        e.5.5.5.5.f.2 2 2 2 2 2 2 2 2 2 g.5.5.5.5.5.h..                                         ",
"                                                  $ % % % % % % % % % % &                                                       ",
"                                                  $ % % % % % % % % % % &                                                       ",
"                                                  i.1 1 1 1 1 1 1 1 1 1 !                                                       ",
"                                                                                                                                ",
"                                                                                                                                ",
"                                                                                                                                ",
"                                                                                                                                ",
"                                                                                                                                ",
"                                                                                                                                ",
"                                                                                                                                ",
"                                                                                                                                ",
"                                                                                                                                ",
"                                                                                                                                "};
