/* XPM */
static char * ghost_xpm[] = {
"63 64 436 2",
"  	c #010101",
". 	c #010101",
"+ 	c #010101",
"@ 	c #010101",
"# 	c #010101",
"$ 	c #010101",
"% 	c #010101",
"& 	c #010101",
"* 	c #010101",
"= 	c #010101",
"- 	c #010101",
"; 	c #010101",
"> 	c #010101",
", 	c #010101",
"' 	c #EFEFEF",
") 	c #EBEBEB",
"! 	c #E8E8E8",
"~ 	c #E8E7E7",
"{ 	c #E6E6E6",
"] 	c #E9E9E9",
"^ 	c #ECECEC",
"/ 	c #EAEAEA",
"( 	c #E3E3E3",
"_ 	c #D6D6D6",
": 	c #AFAFAF",
"< 	c #929192",
"[ 	c #7E7D7D",
"} 	c #636162",
"| 	c #585556",
"1 	c #696868",
"2 	c #7D7C7D",
"3 	c #9B9A9B",
"4 	c #BCBBBC",
"5 	c #D3D3D3",
"6 	c #E7E7E7",
"7 	c #D7D7D7",
"8 	c #B1B1B1",
"9 	c #706F70",
"0 	c #444141",
"a 	c #575555",
"b 	c #666465",
"c 	c #6E6D6D",
"d 	c #727171",
"e 	c #737273",
"f 	c #727071",
"g 	c #6C6A6B",
"h 	c #5F5D5D",
"i 	c #4C4A4B",
"j 	c #474545",
"k 	c #7E7C7C",
"l 	c #BABABA",
"m 	c #E4E4E4",
"n 	c #B5B5B5",
"o 	c #626060",
"p 	c #4B494A",
"q 	c #6D6C6C",
"r 	c #939292",
"s 	c #BBBBBB",
"t 	c #D7D6D6",
"u 	c #E7E6E6",
"v 	c #EDEDED",
"w 	c #E2E2E2",
"x 	c #CACACA",
"y 	c #A6A6A6",
"z 	c #7C7B7C",
"A 	c #5B5959",
"B 	c #3F3C3C",
"C 	c #7A7A7A",
"D 	c #C2C2C2",
"E 	c #D9D8D8",
"F 	c #8B8A8A",
"G 	c #413E3F",
"H 	c #706E6F",
"I 	c #ABAAAB",
"J 	c #E0E0E0",
"K 	c #FEFEFE",
"L 	c #FFFFFF",
"M 	c #C0C0C0",
"N 	c #585656",
"O 	c #454343",
"P 	c #9F9E9F",
"Q 	c #D8D7D8",
"R 	c #CDCDCD",
"S 	c #6F6D6D",
"T 	c #4D4B4B",
"U 	c #979697",
"V 	c #DBDBDB",
"W 	c #DEDEDE",
"X 	c #767676",
"Y 	c #3C393A",
"Z 	c #868586",
"` 	c #D4D4D4",
" .	c #CCCBCB",
"..	c #6B696A",
"+.	c #575556",
"@.	c #B0AFAF",
"#.	c #E5E5E5",
"$.	c #7C7A7B",
"%.	c #D5D5D5",
"&.	c #DBDADA",
"*.	c #767474",
"=.	c #565454",
"-.	c #B6B5B5",
";.	c #D0D0D0",
">.	c #908F8F",
",.	c #3E3B3C",
"'.	c #E5E4E5",
").	c #919091",
"!.	c #464445",
"~.	c #ABAAAA",
"{.	c #F5F4F4",
"].	c #CECECE",
"^.	c #868585",
"/.	c #363334",
"(.	c #AFAEAE",
"_.	c #BCBCBC",
":.	c #3D393B",
"<.	c #E1E1E1",
"[.	c #6F6E6E",
"}.	c #575656",
"|.	c #DADADA",
"1.	c #706E6E",
"2.	c #DFDFDF",
"3.	c #979696",
"4.	c #C0BFC0",
"5.	c #393636",
"6.	c #9F9F9F",
"7.	c #999898",
"8.	c #B7B7B7",
"9.	c #CECDCE",
"0.	c #9E9D9E",
"a.	c #A7A6A6",
"b.	c #7B7B7B",
"c.	c #494747",
"d.	c #E6E5E6",
"e.	c #898889",
"f.	c #676666",
"g.	c #CFCFCF",
"h.	c #322E30",
"i.	c #201B1E",
"j.	c #2E2A2C",
"k.	c #CBCACB",
"l.	c #646363",
"m.	c #1B1519",
"n.	c #1A1316",
"o.	c #A3A3A3",
"p.	c #A9A9A9",
"q.	c #DCDCDC",
"r.	c #494647",
"s.	c #888787",
"t.	c #656464",
"u.	c #26262D",
"v.	c #2C2E38",
"w.	c #211E23",
"x.	c #5C5B5B",
"y.	c #EEEEEE",
"z.	c #979797",
"A.	c #171218",
"B.	c #2C2E37",
"C.	c #29292F",
"D.	c #160E11",
"E.	c #B6B6B6",
"F.	c #C5C5C5",
"G.	c #BFBFBF",
"H.	c #3B3839",
"I.	c #A5A4A4",
"J.	c #BEBEBE",
"K.	c #160C11",
"L.	c #343843",
"M.	c #363E4C",
"N.	c #282831",
"O.	c #12070D",
"P.	c #2A2C35",
"Q.	c #373E4B",
"R.	c #2D313C",
"S.	c #1F1B1F",
"T.	c #3D3A3B",
"U.	c #ACABAB",
"V.	c #585657",
"W.	c #ABABAB",
"X.	c #18131B",
"Y.	c #383D4B",
"Z.	c #3A4252",
"`.	c #2B2E38",
" +	c #11070E",
".+	c #A4A3A3",
"++	c #C8C8C8",
"@+	c #545253",
"#+	c #313540",
"$+	c #3C4554",
"%+	c #303542",
"&+	c #222025",
"*+	c #676667",
"=+	c #DFDEDF",
"-+	c #919191",
";+	c #373334",
">+	c #C7C7C7",
",+	c #9E9D9D",
"'+	c #1D1A22",
")+	c #393F4D",
"!+	c #3B4353",
"~+	c #2C2F3A",
"{+	c #130C13",
"]+	c #9C9B9B",
"^+	c #333743",
"/+	c #3E4757",
"(+	c #303744",
"_+	c #232127",
":+	c #5B595A",
"<+	c #4A4849",
"[+	c #E9E8E8",
"}+	c #6C6B6B",
"|+	c #D6D5D6",
"1+	c #F1F0F0",
"2+	c #1B171F",
"3+	c #393E4C",
"4+	c #3A4352",
"5+	c #2B2F39",
"6+	c #120A11",
"7+	c #C6C6C6",
"8+	c #4F4D4D",
"9+	c #323642",
"0+	c #3D4656",
"a+	c #303643",
"b+	c #232026",
"c+	c #605E60",
"d+	c #DDDDDD",
"e+	c #AAAAAA",
"f+	c #514F50",
"g+	c #929191",
"h+	c #6F6D6E",
"i+	c #D8D8D8",
"j+	c #F7F7F8",
"k+	c #B6B5B6",
"l+	c #0D040A",
"m+	c #363B47",
"n+	c #384050",
"o+	c #292B34",
"p+	c #0A0002",
"q+	c #ADACAC",
"r+	c #D0CFCF",
"s+	c #656363",
"t+	c #2D303B",
"u+	c #394150",
"v+	c #2E333F",
"w+	c #201D22",
"x+	c #7B7A7B",
"y+	c #525050",
"z+	c #B0B0B0",
"A+	c #939393",
"B+	c #CDCCCD",
"C+	c #464444",
"D+	c #2D2F38",
"E+	c #313642",
"F+	c #242329",
"G+	c #C4C4C4",
"H+	c #888788",
"I+	c #1D1B24",
"J+	c #303540",
"K+	c #2B2C35",
"L+	c #13090F",
"M+	c #A5A4A5",
"N+	c #F0EFF0",
"O+	c #8E8E8E",
"P+	c #939293",
"Q+	c #181318",
"R+	c #11060E",
"S+	c #8A8989",
"T+	c #434041",
"U+	c #1C1920",
"V+	c #19141A",
"W+	c #B5B4B4",
"X+	c #929292",
"Y+	c #8E8D8E",
"Z+	c #6A6869",
"`+	c #898888",
" @	c #D2D2D2",
".@	c #E8E7E8",
"+@	c #777777",
"@@	c #BABABB",
"#@	c #F2F1F2",
"$@	c #EDECEC",
"%@	c #E4E3E4",
"&@	c #B2B1B1",
"*@	c #908F90",
"=@	c #B3B2B3",
"-@	c #332F31",
";@	c #150F17",
">@	c #140E14",
",@	c #322E2F",
"'@	c #969696",
")@	c #B2B2B2",
"!@	c #2E3039",
"~@	c #282B35",
"{@	c #232227",
"]@	c #343132",
"^@	c #B9B7B8",
"/@	c #EFEEEE",
"(@	c #818181",
"_@	c #212028",
":@	c #3B414F",
"<@	c #3C4454",
"[@	c #2E3442",
"}@	c #262831",
"|@	c #1B171C",
"1@	c #838283",
"2@	c #525051",
"3@	c #2F323D",
"4@	c #3F4757",
"5@	c #404959",
"6@	c #323947",
"7@	c #252935",
"8@	c #4D4A4B",
"9@	c #AFAEAF",
"0@	c #8F8E8F",
"a@	c #262022",
"b@	c #414A5B",
"c@	c #343B49",
"d@	c #252A36",
"e@	c #26262C",
"f@	c #1C1518",
"g@	c #B4B4B4",
"h@	c #333742",
"i@	c #40495A",
"j@	c #26252B",
"k@	c #282325",
"l@	c #5F5D5E",
"m@	c #2D2F39",
"n@	c #3E4656",
"o@	c #3F4859",
"p@	c #323846",
"q@	c #252934",
"r@	c #232126",
"s@	c #5C5A5B",
"t@	c #8F8E8E",
"u@	c #393F4C",
"v@	c #2C323F",
"w@	c #26272F",
"x@	c #181216",
"y@	c #939192",
"z@	c #C1C0C0",
"A@	c #4C4A4A",
"B@	c #292930",
"C@	c #2E303A",
"D@	c #282830",
"E@	c #221E22",
"F@	c #4B4949",
"G@	c #C6C5C5",
"H@	c #AEAEAE",
"I@	c #4C4B4B",
"J@	c #150C11",
"K@	c #160D11",
"L@	c #4F4D4E",
"M@	c #B3B2B2",
"N@	c #B3B3B3",
"O@	c #B5B4B5",
"P@	c #AFADAE",
"Q@	c #ECEBEC",
"R@	c #8E8D8D",
"S@	c #919090",
"T@	c #706F6F",
"U@	c #AEADAD",
"V@	c #797878",
"W@	c #777676",
"X@	c #515050",
"Y@	c #B1B0B0",
"Z@	c #423F3F",
"`@	c #868686",
" #	c #A1A1A1",
".#	c #484646",
"+#	c #BEBDBD",
"@#	c #A09F9F",
"##	c #4A4848",
"$#	c #D9D9D9",
"%#	c #848383",
"&#	c #353232",
"*#	c #7A797A",
"=#	c #7C7B7B",
"-#	c #C7C6C7",
";#	c #605E5F",
">#	c #ACACAC",
",#	c #CCCCCC",
"'#	c #D1D1D1",
")#	c #AAA9AA",
"!#	c #C9C9C9",
"~#	c #8B8A8B",
"{#	c #555354",
"]#	c #B7B6B7",
"^#	c #E1E0E0",
"/#	c #B1B0B1",
"(#	c #504E4E",
"_#	c #757475",
":#	c #5B595B",
"<#	c #828181",
"[#	c #A2A1A2",
"}#	c #777677",
"|#	c #535152",
"1#	c #A7A6A7",
"2#	c #CECDCD",
"3#	c #A1A0A1",
"4#	c #403D3E",
"5#	c #CFCECF",
"6#	c #C6C5C6",
"7#	c #ADADAD",
"8#	c #818080",
"9#	c #514F4F",
"0#	c #221C1D",
"a#	c #B8B8B8",
"b#	c #B8B7B7",
"c#	c #5F5E5F",
"d#	c #A8A7A7",
"e#	c #8D8D8D",
"f#	c #676566",
"g#	c #555353",
"h#	c #615F60",
"i#	c #595758",
"j#	c #656364",
"k#	c #6E6C6D",
"l#	c #626061",
"m#	c #5D5B5C",
"n#	c #545252",
"o#	c #8D8C8C",
"p#	c #464344",
"q#	c #616060",
"r#	c #5F5E5E",
"s#	c #7D7B7C",
"t#	c #5E5D5D",
"u#	c #434141",
"v#	c #B2B1B2",
"w#	c #A4A4A4",
"x#	c #A3A2A2",
"y#	c #C1C1C1",
"z#	c #A9A8A8",
"A#	c #C5C4C4",
"B#	c #EDECED",
"C#	c #EEEDEE",
"  . + @ # + $ # + % # & % . & $ . & * . & * = & % . & % # + * = - * . & * . & * . & % . & % * + . = + = % + = % + = % + . @ + ",
"# # ; # # ; # # ; # # ; # # ; # # # # # # # # # # # # # # # # # # # ; # # # # # # # # # # # # ; # # ; # # ; # # ; # # ; # # ; ",
"+ ; % & ; % - # % - # % > ; * - ; % > , % > ; * - ; % > ; % > ; * > ; % > ; % > ; * > ; * - > % , , % , > % , > % , > % ; & % ",
"@ # & $ . & % # & * # & % . - % . & * . - % = & * . & * # & * . - = . - = # - * # - * . - * = & . = & = * & = % & = * & . $ & ",
"# # ; # # ; # # ; # # ; # # ; # # ; # # ; # # ; # # ; # # ; # # ; # # ; # # # # # ; # # # # # ; # # ; # . ; # # ; # # ; # # # ",
"+ # % & ; % - # % > # % > ; * > ; % > , * > ; * - ; * > ; * > ; * > ; * > ; % > ; * > ; * > > % , , % ; > % , > % , > % ; & % ",
"@ # & $ # & % # & * # & % . - % . & * . & * = & * . & * # & * = > * . - * # - * # - * . - * = & . = & = * & = % & = * & . $ & ",
"# # ; # # ; # # # # # # # # # # # ; # # ; # # # # ; > ' ) ! ~ { { ] ^ ' , # # # # # # # # # # ; # # ; # # # # # # # # # # # ; ",
"& # % & ; % - # * > # * > ; * > ; * > ; * > ; = / ( _ : < [ } | 1 2 3 4 5 6 , > ; * > ; * > > % , , % ; > % , > % , > % ; & % ",
"$ # & % # & % # & * # - * # - * . & = . - = + 7 8 9 0 a b c d e f g h i j k l m & - * . - * = & . = & . * & = * & . * & . % & ",
"; # # ; # # # # # # # # # # # # # # # # > ( n o p q r s t u ' & v w x y z A B C D 6 , # # # # # # # # # # # # # # # # # # ; # ",
"& # * & ; * - # * > # * > ; * > ; * , + E F G H I J % K K L L L L L K . m M F N O P Q - * > > * , , % ; , * , > * ; > % ; & * ",
"% # - % # - * # - * # - * . - * . - - R S T U V $ L L L L L L L L L L L @ + W n X Y Z ` + * = - . = - . * - = * - . * - . % - ",
"; # # ; # # ; # # ; # # # # # # # -  ...+.@.+ L L L L L L L L L L L L L L K > #.x F G $.%.> # # # # # # # # # # # # # # # ; # ",
"& ; * - ; * > # * > # * > ; * > > &.*.=.-.; L L L L L L L L L L L L L L L L K > m ;.>.,.>.&.> * , , * ; > * , > * , > * ; - * ",
"% # - * # - * # - = # > = # > = '.).!.~.{.L L L L L L L L L L L L L L L L L L K ' w ].^./.(.v > . . - . = - . = - . = - # * - ",
"; # . ; # . ; # . ; # . ; # . ' _.:.)./ L L L L L L L L L L L L L L L L L L L L $ / <.D [.}.;., # ; . # # . # ; . # ; . # ; # ",
"& ; * - ; * > # * > # * > ; = |.1.1 ;.L L L L L L L L K # v ; K L L L L * ' & @ L ; #.2.y p 3./ ; , * ; , * ; , * ; , * ; - * ",
"% # > * # > * # > = # > = . v 4.5.6.= L L L L L L L K ^ s 7.8.] K L L ; 9.0.a.|.%   ) <.;.b.c.R ; . > . = > . = > . = > # * - ",
"; # # ; ; # ; # # ; # # ; # d.e.f.g.L L L L L L L L > : h.i.j.y + L   k.l.m.n.z 2.L > m J o.c.p./ # # ; ; # ; ; # # ; # ; ; . ",
"- # * - ; * > # * > # * , ; q.r.s.+ L L L L L L L L t t.u.v.w.x.g.L y.z.A.B.C.D.E.# % 6 J F.1 C J ; * ; , * ; , * ; , * ; - * ",
"% # - % . - * # > = # > * - G.H.I.L L L L L L L L $ J.K.L.M.N.O.n @ _ d P.Q.R.S.F 6 L / J |.[ T.|.. - . = - = * - . = - . % - ",
"; # # ; # # ; # # ; # # # ) U.V.G.L L L L L L L L - W.X.Y.Z.`. +.+> ++@+#+$+%+&+*+=+L y.<.J -+;+>+- . # ; # # ; # ; ; # # ; . ",
"- # = > ; = , # = , # = , ! ,+b ].L L L L L L L L ' .+'+)+!+~+{+]+' F.p ^+/+(+_+:+q.L & ( J o.<+n v * ; , = ; , = ; , * ; > = ",
"$ # - % # - % # - * # - * [+>.}+|+L L L L L L L L 1+a.2+3+4+5+6+6.+ 7+8+9+0+a+b+c+d+L > m J e+f+E.' - . = - . * - . = - . % - ",
"; # # ; # # # # # ; # # # 6 g+h+i+L L L L L L L L j+k+l+m+n+o+p+q+= r+s+t+u+v+w+x+( L > m J W.y+z+v . ; ; # ; ; # # ; # # ; . ",
"> # = > # = , # = , # = ; { A+[.i+L L L L L L L L L B+C+D+E+F+G G+L m H+I+J+K+L+M+N+L > m J W.y+(.^ = ; , = ; , = ; , = ; > = ",
"$ # - % . - % # - * # - * ! O+[.i+L L L L L L L L L ! P+Q+w+R+S+m L * k+T+U+V++.g.@ L > m J W.y+W+' - . = - = * - . * - . % - ",
"; # . ; # . ; # . ; # . # { X+[.i+L L L L L L L L L @ Q Y+Z+`+ @$ L L .@p.[.+@@@#@L L > m J W.y+@.$@. # ; . # ; . ; ; . # ; # ",
"> # = > # = , # = , # = ; { A+[.i+L L L L L L L L L L $ {  @%@% L L L L y.%.|.; L L L > m J W.y+(.^ = ; ; = ; ; = ; ; = ; > = ",
"$ # - % # - % # - * # - * ! O+[.i+L L L L L L L L L L L L L L L # 6 6 . L L L L L L L > m J U.y+n ' - . = - = * - . * - . % - ",
", # . , # . ; # . ; # . ; { X+[.i+L L L L L L L L L L L L L   ( &@*@).=@#.  L L L L L > m J U.y+@.^ = # ; . ; ; . ; ; . # , . ",
"> # = > # = , # . , # . ; { A+[.i+L L L L L L L L L L L L L m P+-@;@>@,@'@u L L L L L > m J W.y+(.^ = ; ; = ; ; = ; ; = # , = ",
"% # - % . - * # - = # > * ! O+[.i+L L L L L L L L L L L L # )@/.!@E+~@{@]@^@# L L L L > m J W.y+W+/@> . = - = * - . = - . % - ",
", # = , # = , # = , # = ; { A+[.i+L L L L L L L L L L L L J (@_@:@<@[@}@|@1@( L L L L > m J W.y+(.^ = ; ; = ; ; = ; ; = # , . ",
"> # = > ; = , # . , # . ; { P+[.i+L L L L L L L L L L L L ].2@3@4@5@6@7@F+8@%.L L L L > m J W.y+9@^ = ; ; = ; , = ; , = # , = ",
"% # > * # > * # > = # > * ! 0@[.i+L L L L L L L L L L L L F.a@L.b@b@c@d@e@f@g.L L L L > m J W.y+g@y.> . = > . = > . = > . * > ",
"> # = > # = , # = , # = ; { A+[.i+L L L L L L L L L L L L >+h.h@i@b@c@d@j@k@;.L L L L > m J W.y+(.^ = ; , = ; , = ; ; = ; > = ",
", # = , ; = , # = , # = ; { A+[.i+L L L L L L L L L L L L  @l@m@n@o@p@q@r@s@i+L L L L > m J W.y+: ^ = ; ; = ; ; = ; ; = ; , = ",
"% # - * # - * # > = # > * ! 0@[.i+L L L L L L L L L L L L { t@U+u@Z.v@w@x@y@! L L L L > m J W.y+g@y.> . = > . = - . = - # * > ",
"- ; = > ; = , # = , # = , { A+[.i+L L L L L L L L L L L L % z@A@B@C@D@E@F@G@% L L L L > m J W.y+(.^ = ; , = ; , = ; , = ; > = ",
"> # . , ; . , # . ; # . ; { X+[.i+L L L L L L L L L L L L L ' H@I@J@K@L@8 + L L L L L > m J W.y+: ^ = ; ; . ; ; . ; ; . ; , . ",
"% # - % # - * # - * # - * ! O+[.i+L L L L L L L L L L L L L L + g.M@N@;.& L L L L L L > m J U.y+O@y.- . * - = * - . * - # % - ",
"- # = > ; = > # = , # = ; { A+[.i+L L L L L L L L L L L L L L L @ , , @ L L L L L L L > m J U.y+P@Q@* ; , = ; , = ; , = ; > = ",
", # . , # . ; # . ; # . # 6 X+[.i+L L L L L L L L L L L L L L L L L L L L L L L L L L > m J W.y+@.^ . # ; . ; ; . # ; . ; , . ",
"$ # & % # & % # - * # - * ! R@[.i+L L L L L L L L L L L L L L L L L L L L L L L L L L > m J W.y+n ' - . * & = * & . * & . % & ",
"- # * > ; = > # = , # = , #.S@T@|.L L L L L L L L L L L L L L L L L L L L L L L L L L > m J W.y+U@^ * ; , = ; , * ; , * ; > * ",
", # . ; # . ; # . ; # . # ( V@W@w L L L L L L L L L L L L L L L L L L L L L L L L L L > m J W.X@Y@^ . # # . # ; . # ; . ; , # ",
"@ # & $ # & % # & * # & = i+Z@`@> L L L L L L L L L L L L L L L L L L L L L L L L L L & ( J  #.#+#& & = * & = % & = * & . $ & ",
"- # * - ; * > # * > # * ! @###: K L L L L L L L L L L L L L L L L L L L L L L L L L K ^ <.$#%#&# .- * ; , * ; , * ; , * ; - * ",
"; # # ; # # ; # # ; # ' J.A@*#m L L L L K L L L L L L L K K L L L L L L L K L L L L = 6 J n :+=#<.# # # # # # # # # # # # ; . ",
"@ # & $ # & % # & * - -#} ;#7+@ L L K 6 >#,#L L L L L - G.s & L L L L @ '#)#m L L   ^ <.!#V@B s - = & = * & = % & = * & . $ & ",
"& # * - ; * > # * > 6 ~#{#]## K K $ ^#g+8+H@K K K K y./#(#y@6 L K K = k._#:#_ L   ' w -#<#H.[#) , , * ; , * , > * ; , * ; - * ",
"; # # ; # # ; # # ; #.}#|#1#2#R J.3#[.4#H.F !#5#6#7#8#9#0#e a#5#x b#r c#]@8+d#].7+9@e#f#T.'@J ; ; ; # ; ; # ; ; # ; ; # # ; # ",
"@ # & $ # & % # & * ' N@c.g#h#h#i###j#S@k###h l#m#8+n#o#s.p#i#q#r#g#O s#F t#2@h#m#|#u#s@d#{ . & . = & = * & = % & = * & . $ & ",
"& # % & ; * - # * > ; + g.v#w#6.)@,#W ! w _.y x#1#y#W u ( g.W.0.z#W+'#/ { '#a#3#3#W+A#W + - > * , , % ; > % , > % , > % ; & * ",
", # . ; # . ; # . ; # # > ' v v ' - ; # ; + v B#v + ; ; ; > C#^ v ' > # ; > ' ^ ^ ' & ; . ; ; . # # . # # . # ; . # ; . # , . ",
"@ # & $ # & % # & * # & % . - % . & = . & * = - * . - * # & * . - * . - = # - * . - * . - * = & . = & = * & = % & = * & . $ & ",
"+ # % & ; % - # % - # % > ; * - ; % > , * > ; * - ; % > ; % > ; * > ; * > ; % > ; * > ; * > > % , , % , > % , > % , > % ; & % ",
"; # . ; # . ; # . ; # . ; ; . ; # . ; # . ; # . ; # . ; ; . ; ; . ; # . ; # . ; ; . ; ; . ; ; . ; # . ; ; . ; ; . ; ; . # , . ",
"@ # & $ # & % # & * # - % . - % . & = . & * = - * . - * # & = . - = . - = # - * # - * . - * = & . = & = * & = * & = * & . $ & ",
"+ ; % & ; % - ; % - # % > ; % - ; % > ; % > , * - ; % > ; % > , * > ; % > ; % > ; * > ; * - > % , , % , > % , > % , > % ; & % ",
", # . , ; . , ; . ; ; . ; # . ; # # ; # # ; ; . ; ; . ; ; . ; # . ; # . ; # . ; # . ; ; . ; ; # ; ; . ; ; . ; ; . ; ; . ; , . ",
"  . + @ # + $ # + % # & % . & $ . + = . & * = & % . & % # + * = - * . & * . & * . - * . & % * + . = + = % + = % + = % + . @ + "};
