/* XPM */
static char * glock_xpm[] = {
"72 54 12 1",
" 	c #191919",
".	c #010101",
"+	c #010101",
"@	c #656565",
"#	c #777777",
"$	c #232323",
"%	c #060606",
"&	c #8A8A8A",
"*	c #393939",
"=	c #4C4C4C",
"-	c #CDCDCD",
";	c #A8A8A8",
"+++...+++...+++...+++...+++...+++...+++...+++...+++...+++...+++...+++...",
"+++...+++...+++...+++...+++...+++...+++...+++...+++...+++...+++...+++...",
"+++...+++...+++...+++...+++...+++...+++...+++...+++...+++...+++...+++...",
"...+++...+++...+++...+++...+++...+++...+++...+++...+++...+++...+++...+++",
"...+++...+++...+++...+++...+++...+++...+++...+++...+@##..+++...+++...+++",
"...+++...+++...+++...+++...+++...+++...+++...+++...+@##..+++...+++...+++",
"+++...+++...+++...+++...+++...+++...+++...+++...+@@#@#&@+...+++...+++...",
"+++...+++...+++...+++...+++...+++...+++...+++..#####&###+...+++...+++...",
"+++...+++...+++...+++...+++...+++...+++...++####&&&&####+...+++...+++...",
"...+++...+++...+++...+++...+++...+++...+++&###&&######@@@+++...+++...+++",
"...+++...+++...+++...+++...+++...+++...#####&######@@@@@=+++...+++...+++",
"...+++...+++...+++...+++...+++...+++;###&&&###@@#@@@@@   +++...+++...+++",
"+++...+++...+++...+++...+++...+++.&###&&###@@@@@@@@@%    #..+++...+++...",
"+++...+++...+++...+++...+++...+###$ &###@@@@@@@@*        ;..+++...+++...",
"+++...+++...+++...+++...+++...+###$ &###@@@@@@@@*        ;..+++...+++...",
"...+++...+++...+++...+++...++##  $  ##@@@@#@@@          .+++...+++...+++",
"...+++...+++...+++...+++..;##$      %@@@@@@@         %+..+++...+++...+++",
"...+++...+++...+++...+++@###&     %@=@@@           .++...+++...+++...+++",
"+++...+++...+++...+++@#######=   @@@=@%        %+++...+++...+++...+++...",
"+++...+++...+++...+###&&####@@@@@=@$       $ &..+++...+++...+++...+++...",
"+++...+++...+++=&#####@@@@=@@@@@@     %   $++...+++...+++...+++...+++...",
"...+++...+++.;;&;#&##@@@@@@@=@        $*++ #.+++...+++...+++...+++...+++",
"...+++...+++.#####@@@@@@@@@$   $$  $ +.+++#$.+++...+++...+++...+++...+++",
"...+++...+++.#####@@@@@@@@@$   $$  $ +.+++#$.+++...+++...+++...+++...+++",
"+++...+++...+##@@@@#@@@@@   $    $$*+++...+  ...+++...+++...+++...+++...",
"+++...+++...+@@@##@@==         ==%-**$+.++   ...+++...+++...+++...+++...",
"+++...+++...+++=@@#%           $$$..-$*$$$%++...+++...+++...+++...+++...",
"...+++...+++...=@  $              $%$$ %++...+++...+++...+++...+++...+++",
"...+++...+++...+++..-               %+.+++...+++...+++...+++...+++...+++",
"...+++...+++...+++...;            ++...+++...+++...+++...+++...+++...+++",
"+++...+++...+++...+++.         $$ %.+++...+++...+++...+++...+++...+++...",
"+++...+++...+++...+++.%%          $.+++...+++...+++...+++...+++...+++...",
"+++...+++...+++...+++.%%          $.+++...+++...+++...+++...+++...+++...",
"...+++...+++...+++...+--         $++...+++...+++...+++...+++...+++...+++",
"...+++...+++...+++...+++         %++...+++...+++...+++...+++...+++...+++",
"...+++...+++...+++...+++          =+...+++...+++...+++...+++...+++...+++",
"+++...+++...+++...+++.++%        $+.+++...+++...+++...+++...+++...+++...",
"+++...+++...+++...+++.++         %..+++...+++...+++...+++...+++...+++...",
"+++...+++...+++...+++.++          +.+++...+++...+++...+++...+++...+++...",
"...+++...+++...+++...+++          =+...+++...+++...+++...+++...+++...+++",
"...+++...+++...+++...+++         $ +...+++...+++...+++...+++...+++...+++",
"...+++...+++...+++...+++         $ +...+++...+++...+++...+++...+++...+++",
"+++...+++...+++...+++...          $++++...+++...+++...+++...+++...+++...",
"+++...+++...+++...+++...%        ==.+++...+++...+++...+++...+++...+++...",
"+++...+++...+++...+++...+    ====*+.+++...+++...+++...+++...+++...+++...",
"...+++...+++...+++...+++. *===@..+++...+++...+++...+++...+++...+++...+++",
"...+++...+++...+++...+++...;++...+++...+++...+++...+++...+++...+++...+++",
"...+++...+++...+++...+++...+++...+++...+++...+++...+++...+++...+++...+++",
"+++...+++...+++...+++...+++...+++...+++...+++...+++...+++...+++...+++...",
"+++...+++...+++...+++...+++...+++...+++...+++...+++...+++...+++...+++...",
"+++...+++...+++...+++...+++...+++...+++...+++...+++...+++...+++...+++...",
"...+++...+++...+++...+++...+++...+++...+++...+++...+++...+++...+++...+++",
"...+++...+++...+++...+++...+++...+++...+++...+++...+++...+++...+++...+++",
"...+++...+++...+++...+++...+++...+++...+++...+++...+++...+++...+++...+++"};
