/* XPM */
static char * guy_xpm[] = {
"62 64 16 1",
" 	c #010101",
".	c #2F2F2E",
"+	c #69483A",
"@	c #916451",
"#	c #B37C64",
"$	c #3B3B39",
"%	c #E59363",
"&	c #F1F0FD",
"*	c #FFD19C",
"=	c #B4B4AE",
"-	c #DAD9CC",
";	c #32322F",
">	c #9299A4",
",	c #B29D62",
"'	c #D2BA77",
")	c #624023",
"                                                              ",
"                                                              ",
"                                                              ",
"                                                              ",
"                                                              ",
"                                                              ",
"                                                              ",
"                       ............                           ",
"                       ............                           ",
"                     ..++++++@@++##..                         ",
"                     ..++++++@@++##..                         ",
"                   ..++++++++@@@@@@..                         ",
"                   ..++++++++@@@@@@..                         ",
"                 ....$$$$$$$$@@@@@@++..                       ",
"                 ....$$$$$$$$@@@@@@++..                       ",
"               ..@@++++++++++$$$$$$$$....                     ",
"               ..@@++++++++++$$$$$$$$....                     ",
"               ....@@@@@@@@@@@@@@@@@@@@++...                  ",
"               ....@@@@@@@@@@@@@@@@@@@@++...                  ",
"                 ..........##############...                  ",
"                 ..........##############...                  ",
"                 ..++%%++++.................                  ",
"                 ..++%%++++.................                  ",
"                 ..++%%%%&&&&..%%&&....                       ",
"                 ..++%%%%&&&&..%%&&....                       ",
"                   ..++%%%%**********..                       ",
"                   ..++%%%%**********..                       ",
"                     ..++%%%%%%%%%%%%..                       ",
"                     ..++%%%%%%%%%%%%..                       ",
"                   ....==--********--..                       ",
"                   ....==--********--..                       ",
"                 ..++++++==----**--++@@..                     ",
"                 ..++++++==----**--++@@..                     ",
"               ..++++++@@@@========++@@@@...                  ",
"               ..++++++@@@@========++@@@@...                  ",
"             ..****++++++@@==--==--++++@@...                  ",
"             ..****++++++@@==--==--++++@@...                  ",
"             ..****++++++@@==--==--++++@@...                  ",
"             ..**%%**..++@@==--==--++..*****..                ",
"             ..**%%**..++@@==--==--++..*****..                ",
"             ..**....;;++@@==--==--++..%%***..                ",
"             ..**....;;++@@==--==--++..%%***..                ",
"               ..    ;;++++$$>>>>>>++....***..                ",
"               ..    ;;++++$$>>>>>>++....***..                ",
"                     ;;,,''''''''''''..  ...                  ",
"                     ;;,,''''''''''''..  ...                  ",
"                     ..,,''''..,,''''..                       ",
"                     ..,,''''..,,''''..                       ",
"                     ..))++..  ..))++..                       ",
"                     ..))++..  ..))++..                       ",
"                       ....      ....                         ",
"                       ....      ....                         ",
"                                                              ",
"                                                              ",
"                                                              ",
"                                                              ",
"                                                              ",
"                                                              ",
"                                                              ",
"                                                              ",
"                                                              ",
"                                                              ",
"                                                              ",
"                                                              "};
