/* XPM */
static char * guy_walk2_inv_xpm[] = {
"64 64 15 1",
" 	c #010101",
".	c #2F2F2E",
"+	c #B37C64",
"@	c #69483A",
"#	c #916451",
"$	c #3B3B39",
"%	c #E59363",
"&	c #FFD19C",
"*	c #F1F0FD",
"=	c #DAD9CC",
"-	c #B4B4AE",
";	c #32322F",
">	c #D2BA77",
",	c #B29D62",
"'	c #624023",
"                                                                ",
"                                                                ",
"                                                                ",
"                                                                ",
"                                                                ",
"                                                                ",
"                        ..............                          ",
"                        ..............                          ",
"                        ..............                          ",
"                      ..++@@###@@@@@@@..                        ",
"                      ..++@@###@@@@@@@..                        ",
"                      ..++@@###@@@@@@@..                        ",
"                      ..#######@@@@@@@@@...                     ",
"                   ...@@#######$$$$$$$$$......                  ",
"                   ...@@#######$$$$$$$$$......                  ",
"                   ...@@#######$$$$$$$$$......                  ",
"                ......$$$$$$$$$@@@@@@@.....###.                 ",
"                ......$$$$$$$$$@@@@@@@.....###.                 ",
"               .@@@################...%%%%%....                 ",
"               .@@@################...%%%%%....                 ",
"               .@@@################...%%%%%....                 ",
"               .++++++++++++++++++......&&&&&&.                 ",
"               ...................@@@@..%%%&&&.                 ",
"               ...................@@@@..%%%&&&.                 ",
"               ...................@@@@..%%%&&&.                 ",
"                   .....**%%...****%%%..@@@&&&.                 ",
"                   .....**%%...****%%%..@@@&&&.                 ",
"                   .....**%%...****%%%..@@@&&&.                 ",
"                   ...&&&&&&&&&&&&%...##@@@@@@.                 ",
"                   ...&&&&&&&&&&&&%...##@@@@@@.                 ",
"                   ...%%%%%%%%%%%%%...##@@@...                  ",
"                   ...%%%%%%%%%%%%%...##@@@...                  ",
"                   ...%%%%%%%%%%%%%...##@@@...                  ",
"                ...###@@==&&======.###@@...                     ",
"                ...###@@----------####@@...                     ",
"                ...###@@----------####@@...                     ",
"                ...###@@----------####@@...                     ",
"                ...@@@@@==--===---#@@@..                        ",
"                ...@@@@@==--===---#@@@..                        ",
"                ...@@@@@==--===---#@@@..                        ",
"               .&&&...@@==--===---#@@@..                        ",
"               .&&&...@@==--===---#@@@..                        ",
"               .&&&.......--===---#@@@;;                        ",
"               .&&&.......--===---#@@@;;                        ",
"               .&&&.......--===---#@@@;;                        ",
"               ....>>>>>>>.....$$$@@@@;;                        ",
"                ...>>>>>,,>>>>>>>>>>>>,,...                     ",
"                ...>>>>>,,>>>>>>>>>>>>,,...                     ",
"                ...>>>>>,,>>>>>>>>>>>>,,...                     ",
"                ...@@@''...........@@@''...                     ",
"                ...@@@''...........@@@''...                     ",
"                ...@@@''...........@@@''...                     ",
"                   .....           .....                        ",
"                   .....           .....                        ",
"                                                                ",
"                                                                ",
"                                                                ",
"                                                                ",
"                                                                ",
"                                                                ",
"                                                                ",
"                                                                ",
"                                                                ",
"                                                                "};
