/* XPM */
static char * guy_gunshot_xpm[] = {
"64 63 30 1",
" 	c #010101",
".	c #2F2F2E",
"+	c #69483A",
"@	c #916451",
"#	c #CDB1A5",
"$	c #BCA59C",
"%	c #3B3B39",
"&	c #A89790",
"*	c #919190",
"=	c #B37C64",
"-	c #FFA200",
";	c #E59363",
">	c #D6CFC8",
",	c #E6E6E6",
"'	c #F1F0FD",
")	c #5C605B",
"!	c #D0C9C2",
"~	c #FFD19C",
"{	c #F2DCC1",
"]	c #CBC4BD",
"^	c #484C47",
"/	c #B4B4AE",
"(	c #DAD9CC",
"_	c #ECE1D4",
":	c #E6D2C6",
"<	c #32322F",
"[	c #9299A4",
"}	c #B29D62",
"|	c #D2BA77",
"1	c #624023",
"                                                                ",
"                                                                ",
"                                                                ",
"                                                                ",
"                ...............                                 ",
"                ...............                                 ",
"              ..++++++++@@@++##..                               ",
"              ..++++++++@@@++##..                               ",
"              ..++++++++@@@++##..                               ",
"              ..++++++++@@@++##..                               ",
"              ..++++++++@@@++##..                               ",
"           ...++++++++++@@@@@$$..                               ",
"           ...++++++++++@@@@@$$..                               ",
"         .....%%%%%%%%%%@@@$$$$&&..                             ",
"         .....%%%%%%%%%%@@@$$$$&&..                             ",
"       ..@@+++++++++++++%%%******.......                        ",
"       ..@@+++++++++++++%%%******.......                        ",
"       ....@@@@@@@@@@@@@@@@$$$$$$$$&&&&&..                      ",
"       ....@@@@@@@@@@@@@@@@$$$$$$$$&&&&&..                      ",
"         .............==################..  ..   --------       ",
"         .............==################..  ..   --------       ",
"         .............==################..  ..   --------       ",
"         ..+++;;++++++......................>>...,,,,,,,,-----  ",
"         ..+++;;++++++......................>>...,,,,,,,,-----  ",
"         ..+++;;++++++......................>>...,,,,,,,,-----  ",
"         ..+++;;++++++......................>>...,,,,,,,,-----  ",
"         ..+++;;;;''''''...;;''.........))!!!!...--,,,,,,--     ",
"         ..+++;;;;''''''...;;''.........))!!!!...--,,,,,,--     ",
"           ...++;;;;;;~~~~~~~{{..>>]]]]]......     ------       ",
"           ...++;;;;;;~~~~~~~{{..>>]]]]]......     ------       ",
"              ..++;;;;;;;;;;;..^^))^^^^^!!..                    ",
"              ..++;;;;;;;;;;;..^^))^^^^^!!..                    ",
"              ..//((((~~~~~~~.............__..                  ",
"              ..//((((~~~~~~~.............__..                  ",
"              ..//((((~~~~~~~.............__..                  ",
"           ...++.............@@_________....                    ",
"           ...++.............@@_________....                    ",
"           ...++@@@@@@@@@@@@@++~~::.......                      ",
"           ...++@@@@@@@@@@@@@++~~::.......                      ",
"           ...++@@@@@@@@@@@@@++~~::.......                      ",
"           ...++@@@@@@@@@@@@@++~~::.......                      ",
"           ...++++@@@@+++++++......                             ",
"           ...++++@@@@+++++++......                             ",
"              ..++@@@@.......//&&..                             ",
"              ..++@@@@.......//&&..                             ",
"                <<++++@@///((//((&&.....                        ",
"                <<++++@@///((//((&&.....                        ",
"                <<++++@@///((//((&&.....                        ",
"                <<++++++%%%[[[[[[++.....                        ",
"                <<++++++%%%[[[[[[++.....                        ",
"              <<}}||||||||||||||||||||||..                      ",
"              <<}}||||||||||||||||||||||..                      ",
"              ..}}||||||.......}}|||||||..                      ",
"              ..}}||||||.......}}|||||||..                      ",
"              ..}}||||||.......}}|||||||..                      ",
"              ..}}||||||.......}}|||||||..                      ",
"              ..11++++..       ..11+++++..                      ",
"              ..11++++..       ..11+++++..                      ",
"                ......           .......                        ",
"                ......           .......                        ",
"                ......           .......                        ",
"                                                                ",
"                                                                "};
