/* XPM */
static char * guy_died2_xpm[] = {
"64 64 713 2",
"  	c None",
". 	c #EABC8C",
"+ 	c #E2AE80",
"@ 	c #F0BF8F",
"# 	c #F1B988",
"$ 	c #F3C492",
"% 	c #F9C491",
"& 	c #EDB584",
"* 	c #CD9A70",
"= 	c #EFC291",
"- 	c #F8C794",
"; 	c #EDBD8C",
"> 	c #CEA47A",
", 	c #DBB185",
"' 	c #E4B88A",
") 	c #DCB085",
"! 	c #C09A75",
"~ 	c #BB926F",
"{ 	c #C39874",
"] 	c #BC9370",
"^ 	c #A48164",
"/ 	c #875E4C",
"( 	c #996956",
"_ 	c #976956",
": 	c #886551",
"< 	c #9B725A",
"[ 	c #A2765D",
"} 	c #9C725B",
"| 	c #8A6651",
"1 	c #7C5746",
"2 	c #946652",
"3 	c #A2705B",
"4 	c #9F6E5A",
"5 	c #7B5747",
"6 	c #8C614F",
"7 	c #926452",
"8 	c #8D6150",
"9 	c #7C5748",
"0 	c #6B4D41",
"a 	c #865D4C",
"b 	c #9B6B56",
"c 	c #A6735D",
"d 	c #A0705B",
"e 	c #7A5546",
"f 	c #8A5F4D",
"g 	c #8F624F",
"h 	c #895E4D",
"i 	c #795446",
"j 	c #BAA46A",
"k 	c #B7A169",
"l 	c #A79260",
"m 	c #534139",
"n 	c #705144",
"o 	c #8A604F",
"p 	c #9E6D58",
"q 	c #A7745E",
"r 	c #9F705B",
"s 	c #845E4D",
"t 	c #60453A",
"u 	c #8D604E",
"v 	c #855B4B",
"w 	c #735143",
"x 	c #594339",
"y 	c #C3AB6F",
"z 	c #C6AE70",
"A 	c #B8A067",
"B 	c #987F54",
"C 	c #493C37",
"D 	c #56443C",
"E 	c #725346",
"F 	c #8B6150",
"G 	c #9E6D59",
"H 	c #9F6F5B",
"I 	c #6B4D3F",
"J 	c #7C543F",
"K 	c #9F6A4C",
"L 	c #8E5F47",
"M 	c #6A4D3F",
"N 	c #664C41",
"O 	c #7A5748",
"P 	c #875D4C",
"Q 	c #875C4A",
"R 	c #7B5545",
"S 	c #694A3E",
"T 	c #533F36",
"U 	c #433631",
"V 	c #463731",
"W 	c #594537",
"X 	c #715B41",
"Y 	c #8B724E",
"Z 	c #A38A5C",
"` 	c #B8A068",
" .	c #C2AA6D",
"..	c #B9A067",
"+.	c #998052",
"@.	c #72583B",
"#.	c #5D453B",
"$.	c #52423B",
"%.	c #59473E",
"&.	c #845E4E",
"*.	c #715041",
"=.	c #8F5E44",
"-.	c #B97A55",
";.	c #D7976B",
">.	c #E7AE7E",
",.	c #EDB988",
"'.	c #EBB584",
").	c #E0A275",
"!.	c #CC8C66",
"~.	c #AD7B60",
"{.	c #896E5F",
"].	c #79665B",
"^.	c #7F6154",
"/.	c #835C4C",
"(.	c #7E5544",
"_.	c #714D3E",
":.	c #614438",
"<.	c #513B32",
"[.	c #493730",
"}.	c #5F4236",
"|.	c #694B3A",
"1.	c #765940",
"2.	c #8A6F4C",
"3.	c #A38A5B",
"4.	c #B39B64",
"5.	c #AD9560",
"6.	c #8F784D",
"7.	c #6B5337",
"8.	c #6A4D41",
"9.	c #5A473E",
"0.	c #5B4840",
"a.	c #735447",
"b.	c #A7745D",
"c.	c #735142",
"d.	c #966246",
"e.	c #C38058",
"f.	c #E29E6F",
"g.	c #F3B684",
"h.	c #F9C28F",
"i.	c #F7BD8A",
"j.	c #EDAC7C",
"k.	c #DC9B74",
"l.	c #C5977D",
"m.	c #AB9687",
"n.	c #968A7E",
"o.	c #897468",
"p.	c #7F5E4F",
"q.	c #754F40",
"r.	c #6B483A",
"s.	c #624336",
"t.	c #593E34",
"u.	c #563D33",
"v.	c #5B4035",
"w.	c #634337",
"x.	c #664538",
"y.	c #6B4A3A",
"z.	c #795B42",
"A.	c #8E734E",
"B.	c #9C8357",
"C.	c #977F53",
"D.	c #7D6744",
"E.	c #5C4933",
"F.	c #8B614F",
"G.	c #855D4B",
"H.	c #815A4A",
"I.	c #745346",
"J.	c #5F4A40",
"K.	c #5C4940",
"L.	c #845D4E",
"M.	c #735242",
"N.	c #966247",
"O.	c #C48059",
"P.	c #E39F70",
"Q.	c #F4B785",
"R.	c #FAC38F",
"S.	c #F8BE8B",
"T.	c #EFAE7E",
"U.	c #E3A47E",
"V.	c #D7AC92",
"W.	c #C8B4A2",
"X.	c #B4A89A",
"Y.	c #9B8C7F",
"Z.	c #856E61",
"`.	c #785C4F",
" +	c #72574B",
".+	c #6F564B",
"++	c #6E574D",
"@+	c #6E584D",
"#+	c #6F574C",
"$+	c #6F554A",
"%+	c #6E5349",
"&+	c #6E5248",
"*+	c #73584B",
"=+	c #7D6350",
"-+	c #836B52",
";+	c #7B664D",
">+	c #655341",
",+	c #976955",
"'+	c #946753",
")+	c #916451",
"!+	c #8F6250",
"~+	c #895F4E",
"{+	c #795749",
"]+	c #624C42",
"^+	c #5D4940",
"/+	c #966147",
"(+	c #C38059",
"_+	c #E39E70",
":+	c #F3B685",
"<+	c #F6BD8A",
"[+	c #E7A880",
"}+	c #E3B697",
"|+	c #DDC4AB",
"1+	c #CDBDA9",
"2+	c #B4A697",
"3+	c #9C8F82",
"4+	c #8D8076",
"5+	c #887A72",
"6+	c #8A7C73",
"7+	c #8F8177",
"8+	c #918379",
"9+	c #8E8076",
"0+	c #877970",
"a+	c #81726C",
"b+	c #7B6D6A",
"c+	c #796B69",
"d+	c #7A6C69",
"e+	c #786A67",
"f+	c #6D615D",
"g+	c #845C4A",
"h+	c #8E624F",
"i+	c #926551",
"j+	c #7A574A",
"k+	c #634C42",
"l+	c #5E4940",
"m+	c #EFAE7D",
"n+	c #EAA87C",
"o+	c #EBB790",
"p+	c #EBC8A5",
"q+	c #E1C9AC",
"r+	c #CFBFAA",
"s+	c #BBB1A3",
"t+	c #ACA59C",
"u+	c #A59F97",
"v+	c #A7A199",
"w+	c #AFA99E",
"x+	c #B2ABA1",
"y+	c #ACA69D",
"z+	c #A19B94",
"A+	c #96918E",
"B+	c #8D898A",
"C+	c #878388",
"D+	c #838086",
"E+	c #7E7B82",
"F+	c #716F74",
"G+	c #775343",
"H+	c #845B49",
"I+	c #8C604E",
"J+	c #916452",
"K+	c #ECA778",
"L+	c #F0B687",
"M+	c #F4C89C",
"N+	c #F0D0AA",
"O+	c #E4CFB3",
"P+	c #D4C8B5",
"Q+	c #C4BDB1",
"R+	c #B9B6AD",
"S+	c #B9B8AF",
"T+	c #C0BFB5",
"U+	c #C4C2B7",
"V+	c #BEBCB3",
"W+	c #B2B1AA",
"X+	c #A6A4A1",
"Y+	c #9A989A",
"Z+	c #918F95",
"`+	c #8C8A92",
" @	c #85848D",
".@	c #76767D",
"+@	c #775344",
"@@	c #845B4A",
"#@	c #906351",
"$@	c #7A5849",
"%@	c #F6BD8B",
"&@	c #ECA776",
"*@	c #F2B583",
"=@	c #F8C896",
"-@	c #F8D1A5",
";@	c #F2D4AF",
">@	c #E4CFB4",
",@	c #D2C6B3",
"'@	c #C3BDB2",
")@	c #BEBDB4",
"!@	c #C2C2B9",
"~@	c #C4C4BB",
"{@	c #C0C0B7",
"]@	c #B7B6AF",
"^@	c #ABA9A4",
"/@	c #9E9897",
"(@	c #948A8B",
"_@	c #8B8185",
":@	c #817B7F",
"<@	c #716D71",
"[@	c #7E5848",
"}@	c #895E4C",
"|@	c #8D614F",
"1@	c #8E6250",
"2@	c #885F4D",
"3@	c #785648",
"4@	c #F3B582",
"5@	c #F9C795",
"6@	c #FCD0A0",
"7@	c #F8D3A8",
"8@	c #ECCFAB",
"9@	c #D9C6AD",
"0@	c #C5BDAF",
"a@	c #BCBAB2",
"b@	c #BCBCB5",
"c@	c #BDBDB6",
"d@	c #BAB9B2",
"e@	c #B4B1AA",
"f@	c #AAA29B",
"g@	c #9D8D87",
"h@	c #907973",
"i@	c #846C67",
"j@	c #786461",
"k@	c #6B5C58",
"l@	c #7D5747",
"m@	c #855C4B",
"n@	c #835C4B",
"o@	c #7D5849",
"p@	c #705245",
"q@	c #624A40",
"r@	c #634B40",
"s@	c #775547",
"t@	c #8C6250",
"u@	c #956147",
"v@	c #F9C390",
"w@	c #F6BE8B",
"x@	c #F3B583",
"y@	c #FAC795",
"z@	c #FBD1A1",
"A@	c #F7D2A8",
"B@	c #EBCEAC",
"C@	c #D8C5AE",
"D@	c #C4BDB0",
"E@	c #BBBAB2",
"F@	c #BDBCB4",
"G@	c #B8B4AC",
"H@	c #AFA69E",
"I@	c #A3948B",
"J@	c #957E73",
"K@	c #88675B",
"L@	c #7B584B",
"M@	c #735446",
"N@	c #715946",
"O@	c #766448",
"P@	c #734F41",
"Q@	c #7A5444",
"R@	c #7B5444",
"S@	c #715144",
"T@	c #694E43",
"U@	c #634A40",
"V@	c #61483E",
"W@	c #6A4C40",
"X@	c #7C5647",
"Y@	c #9F6F5A",
"Z@	c #845D4D",
"`@	c #F9C28E",
" #	c #EFAD7C",
".#	c #EDA676",
"+#	c #F8C897",
"@#	c #F7D2A6",
"##	c #F0D4B1",
"$#	c #E3CFB5",
"%#	c #D1C6B4",
"&#	c #C2BDB2",
"*#	c #C1C2B8",
"=#	c #C1BFB5",
"-#	c #B8AFA5",
";#	c #A7988D",
">#	c #978074",
",#	c #886A5D",
"'#	c #7B584A",
")#	c #724D3E",
"!#	c #72523E",
"~#	c #816848",
"{#	c #978156",
"]#	c #A6925F",
"^#	c #AB9762",
"/#	c #68483B",
"(#	c #6E4C3D",
"_#	c #6E4C3E",
":#	c #684A3D",
"<#	c #5E473D",
"[#	c #56433B",
"}#	c #60463B",
"|#	c #6F4D3F",
"1#	c #7F5747",
"2#	c #996A56",
"3#	c #7E594A",
"4#	c #745141",
"5#	c #976347",
"6#	c #E29C6E",
"7#	c #F1B281",
"8#	c #F6BD89",
"9#	c #F4B885",
"0#	c #EEAB79",
"a#	c #EDA675",
"b#	c #F8C898",
"c#	c #F4D3AB",
"d#	c #EAD6BA",
"e#	c #DBD0BD",
"f#	c #CAC3B7",
"g#	c #BDB8AF",
"h#	c #BAB7AE",
"i#	c #BEBCB2",
"j#	c #BCB7AD",
"k#	c #AEA398",
"l#	c #998478",
"m#	c #85685B",
"n#	c #755548",
"o#	c #6A4A3E",
"p#	c #654639",
"q#	c #6F533F",
"r#	c #8B734F",
"s#	c #AB9561",
"t#	c #C0A96D",
"u#	c #C8B071",
"v#	c #C3AC6E",
"w#	c #B19A64",
"x#	c #634538",
"y#	c #69483A",
"z#	c #69483B",
"A#	c #62453A",
"B#	c #55423A",
"C#	c #4B3F39",
"D#	c #504039",
"E#	c #60463A",
"F#	c #714E40",
"G#	c #805847",
"H#	c #8B604E",
"I#	c #8F6452",
"J#	c #8D6351",
"K#	c #825C4D",
"L#	c #745040",
"M#	c #9B6548",
"N#	c #C68058",
"O#	c #E1976A",
"P#	c #EDA877",
"Q#	c #F1AF7E",
"R#	c #EFAC7B",
"S#	c #ECA473",
"T#	c #EDA573",
"U#	c #F3B682",
"V#	c #F4D3AD",
"W#	c #E7D6BD",
"X#	c #D6CEBE",
"Y#	c #C3BDB1",
"Z#	c #B2AA9F",
"`#	c #A9A197",
" $	c #A7A197",
".$	c #A19C92",
"+$	c #92887E",
"@$	c #7E6B60",
"#$	c #6B5146",
"$$	c #5E4339",
"%$	c #553D35",
"&$	c #543E36",
"*$	c #66523F",
"=$	c #8B7752",
"-$	c #B29C66",
";$	c #CAB373",
">$	c #D3BA77",
",$	c #CEB674",
"'$	c #BBA268",
")$	c #9B8254",
"!$	c #745B3E",
"~$	c #624438",
"{$	c #68473A",
"]$	c #67473A",
"^$	c #4A3E39",
"/$	c #4F4039",
"($	c #5F463A",
"_$	c #714F40",
":$	c #815947",
"<$	c #885E4D",
"[$	c #755446",
"}$	c #674B40",
"|$	c #61473C",
"1$	c #75503E",
"2$	c #A0684A",
"3$	c #C88158",
"4$	c #DF9364",
"5$	c #E99C6C",
"6$	c #EAA06F",
"7$	c #E79D6D",
"8$	c #E59A6B",
"9$	c #E7A171",
"0$	c #EFB585",
"a$	c #F5C89B",
"b$	c #F1D3AF",
"c$	c #E5D4BC",
"d$	c #D2CABA",
"e$	c #BCB2A6",
"f$	c #A5958A",
"g$	c #938176",
"h$	c #7D746B",
"i$	c #73665E",
"j$	c #6B564B",
"k$	c #654C3F",
"l$	c #614A3C",
"m$	c #5B483C",
"n$	c #54463C",
"o$	c #605241",
"p$	c #847450",
"q$	c #AC9864",
"r$	c #C5AF70",
"s$	c #CEB675",
"t$	c #C9B172",
"u$	c #B69F66",
"v$	c #977F51",
"w$	c #68483A",
"x$	c #61453A",
"y$	c #544239",
"z$	c #805947",
"A$	c #865C4B",
"B$	c #7B5647",
"C$	c #63493E",
"D$	c #4F3E36",
"E$	c #744F3D",
"F$	c #A1694B",
"G$	c #DF9061",
"H$	c #E79565",
"I$	c #E59465",
"J$	c #DE9062",
"K$	c #D78D63",
"L$	c #D89971",
"M$	c #E2B18B",
"N$	c #ECC8A4",
"O$	c #EAD2B4",
"P$	c #DED1BC",
"Q$	c #CAC2B4",
"R$	c #B0A59A",
"S$	c #948076",
"T$	c #7D6257",
"U$	c #70564B",
"V$	c #785747",
"W$	c #835C47",
"X$	c #8C664D",
"Y$	c #907055",
"Z$	c #897056",
"`$	c #76634F",
" %	c #665946",
".%	c #76694C",
"+%	c #98885A",
"@%	c #AF9B65",
"#%	c #B7A269",
"$%	c #B39E66",
"%%	c #A28D5B",
"&%	c #61463A",
"*%	c #554239",
"=%	c #504139",
"-%	c #785546",
";%	c #483A33",
">%	c #543E34",
",%	c #77503E",
"'%	c #A46B4C",
")%	c #C98159",
"!%	c #DF8E61",
"~%	c #E59263",
"{%	c #E08F60",
"]%	c #D2855A",
"^%	c #C27F5B",
"/%	c #BD8C6F",
"(%	c #CCAB90",
"_%	c #DCC5AC",
":%	c #DDCEB9",
"<%	c #D1C9B9",
"[%	c #BBB6AB",
"}%	c #9F978E",
"|%	c #817068",
"1%	c #6E5147",
"2%	c #704C3E",
"3%	c #815643",
"4%	c #99654A",
"5%	c #AE7755",
"6%	c #BE8964",
"7%	c #C49870",
"8%	c #BB9772",
"9%	c #9E8364",
"0%	c #75644E",
"a%	c #66473A",
"b%	c #775546",
"c%	c #5F463C",
"d%	c #533E35",
"e%	c #674739",
"f%	c #895B43",
"g%	c #AF7150",
"h%	c #CE845A",
"i%	c #DE8E60",
"j%	c #DF8F61",
"k%	c #D5885C",
"l%	c #C07A53",
"m%	c #A66F52",
"n%	c #9C7B68",
"o%	c #AF9D8D",
"p%	c #C4B9A9",
"q%	c #C8C1B3",
"r%	c #BDB8AD",
"s%	c #A9A59C",
"t%	c #8E8781",
"u%	c #74655F",
"v%	c #6A4F45",
"w%	c #785342",
"x%	c #95654D",
"y%	c #B57C5A",
"z%	c #D09269",
"A%	c #E2A779",
"B%	c #E8B586",
"C%	c #DCB285",
"D%	c #B99873",
"E%	c #634539",
"F%	c #54423A",
"G%	c #62473D",
"H%	c #634639",
"I%	c #845841",
"J%	c #A66C4D",
"K%	c #C27D56",
"L%	c #D5895D",
"M%	c #DB8C5F",
"N%	c #D3885C",
"O%	c #C07C55",
"P%	c #A79F94",
"Q%	c #ACA59B",
"R%	c #A49C94",
"S%	c #958C85",
"T%	c #84766F",
"U%	c #756056",
"V%	c #705246",
"W%	c #7D5846",
"X%	c #9B6E54",
"Y%	c #C18C67",
"Z%	c #E1A77A",
"`%	c #F4BB89",
" &	c #F8C592",
".&	c #EABE8E",
"+&	c #534039",
"@&	c #775446",
"#&	c #64483D",
"$&	c #704E3C",
"%&	c #996548",
"&&	c #BC7A54",
"*&	c #D1875C",
"=&	c #D88C5F",
"-&	c #D2875C",
";&	c #BF7B55",
">&	c #897C72",
",&	c #86766D",
"'&	c #826E64",
")&	c #80655A",
"!&	c #7D5C4F",
"~&	c #795546",
"{&	c #976F55",
"]&	c #BF936E",
"^&	c #E1B083",
"/&	c #F4C28F",
"(&	c #F6C794",
"_&	c #4D3D37",
":&	c #473C37",
"<&	c #4F3E37",
"[&	c #5F453A",
"}&	c #64493D",
"|&	c #BB7953",
"1&	c #CA8259",
"2&	c #CB835A",
"3&	c #BE7C55",
"4&	c #6C5245",
"5&	c #7B5445",
"6&	c #7A5544",
"7&	c #8C6951",
"8&	c #AF8B69",
"9&	c #CEA67D",
"0&	c #DEB487",
"a&	c #413834",
"b&	c #4D3C36",
"c&	c #5F4439",
"d&	c #815847",
"e&	c #845B4B",
"f&	c #644739",
"g&	c #835741",
"h&	c #9E6849",
"i&	c #AA6E4E",
"j&	c #A96F4E",
"k&	c #6A4839",
"l&	c #724E3E",
"m&	c #765141",
"n&	c #744F40",
"o&	c #724F40",
"p&	c #4F3D35",
"q&	c #63463A",
"r&	c #745041",
"s&	c #7E5747",
"t&	c #7F5948",
"u&	c #725144",
"v&	c #5A443B",
"w&	c #513E35",
"x&	c #624538",
"y&	c #754F3D",
"z&	c #7D543F",
"A&	c #6C4C3F",
"B&	c #785445",
"C&	c #725143",
"D&	c #63483E",
"                                                                                                                                ",
"                                                                                                                                ",
"                                                                                                                                ",
"                                                                                                                                ",
"                                                                                                                                ",
"                                                                                                                                ",
"                                                                                                                                ",
"                                                                                                                                ",
"                                                                                                                                ",
"                                                                                                                                ",
"                                                                                                                                ",
"                                                                                                                                ",
"                                                                                                                                ",
"                                                                                                                                ",
"                                                                                                                                ",
"                                                                                                                                ",
"                                                                        . +                                                     ",
"                                                                        @ #                                                     ",
"                                                                        $ % & *                                                 ",
"                                                                        = - ; >                                                 ",
"                                                                        , ' ) !                                                 ",
"                                                                        ~ { ] ^                                                 ",
"                                      / ( _                           : < [ } |                                                 ",
"                                    1 2 3 4                           5 6 7 8 9                                                 ",
"                                  0 a b c d                           e f g h i               j k l                             ",
"                                m n o p q r s                       t e f u v w x             y z A B                           ",
"                              C D E F G q H s I J K             L M N O P Q R S T U V W X Y Z `  ...+.@.                        ",
"                            #.$.%.E F G q H &.*.=.-.;.>.,.'.).!.~.{.].^./.(._.:.<.[.<.}.|.1.2.3.4.5.6.7.                        ",
"                            8.9.0.a.F p b.H &.c.d.e.f.g.h.i.j.k.l.m.n.o.p.q.r.s.t.u.v.w.x.y.z.A.B.C.D.E.                        ",
"                    F./ G.H.I.J.K.a.F p b.H L.M.N.O.P.Q.R.S.T.U.V.W.X.Y.Z.`. +.+++@+#+$+%+&+*+=+-+;+>+                          ",
"                  ,+'+)+!+~+{+]+^+a.F p b.H L.M./+(+_+:+h.<+T.[+}+|+1+2+3+4+5+6+7+8+9+0+a+b+c+d+e+f+                            ",
"                g+h+)+i+)+F.j+k+l+a.F p b.H L.M./+(+_+Q.h.<+m+n+o+p+q+r+s+t+u+v+w+x+y+z+A+B+C+D+E+F+                            ",
"                G+H+I+)+J+F.j+k+^+a.F p b.H L.M./+(+_+Q.h.<+m+K+L+M+N+O+P+Q+R+S+T+U+V+W+X+Y+Z+`+ @.@                            ",
"                +@@@I+#@)+F.$@k+^+a.F p b.H L.M./+(+_+Q.h.%@m+&@*@=@-@;@>@,@'@)@!@~@{@]@^@/@(@_@:@<@                            ",
"                [@}@|@!+1@2@3@k+J.a.F p b.H L.c./+(+_+Q.h.%@m+&@4@5@6@7@8@9@0@a@b@c@d@e@f@g@h@i@j@k@                            ",
"                l@m@/ a n@o@p@q@r@s@t@G q H L.c.u@(+_+Q.v@w@m+&@x@y@z@A@B@C@D@E@b@F@G@H@I@J@K@L@M@N@O@                          ",
"                P@Q@R@+@S@T@U@V@W@X@1@p c Y@Z@c.N.(+_+g.`@<+ #.#*@+#@###$#%#&#)@*#=#-#;#>#,#'#)#!#~#{#]#^#                      ",
"                /#(#_#:#<#D [#}#|#1#1@2#4 _ 3#4#5#O.6#7#8#9#0#a#x@b#c#d#e#f#g#h#i#j#k#l#m#n#o#p#q#r#s#t#u#v#w#                  ",
"                x#y#z#A#B#C#D#E#F#G#H#I#J#K#S@L#M#N#O#P#Q#R#S#T#U#b#V#W#X#Y#Z#`# $.$+$@$#$$$%$&$*$=$-$;$>$,$'$)$!$              ",
"                ~${$]$t m ^$/$($_$:$<$/.[$}$|$1$2$3$4$5$6$7$8$9$0$a$b$c$d$e$f$g$0+h$i$j$k$l$m$n$o$p$q$r$s$t$u$v$                ",
"                x#y#w$x$y$C#/$($_$z$A$B$C$D$&$E$F$3$G$H$I$J$K$L$M$N$O$P$Q$R$S$T$U$$+V$W$X$Y$Z$`$ %.%+%@%#%$%%%                  ",
"                  y#w$&%*%C#=%($_$G#g+-%#.;%>%,%'%)%!%~%{%]%^%/%(%_%:%<%[%}%|%1%2%3%4%5%6%7%8%9%0%                              ",
"                    a%t *%C#=%($_$G#g+b%c%d%e%f%g%h%i%j%k%l%m%n%o%p%q%r%s%t%u%v%w%x%y%z%A%B%C%D%                                ",
"                    E%t F%C#D#($_$G#g+b%G%H%I%J%K%L%M%N%O%        P%Q%R%S%T%U%V%W%X%Y%Z%`% &.&                                  ",
"                        +&^$D#($_$G#g+@&#&$&%&&&*&=&-&;&            >&,&'&)&!&~&W%{&]&^&/&(&                                    ",
"                        _&:&<&[&F#G#m@b%}&$&%&|&1&2&3&                4&E O [@5&6&7&8&9&0&                                      ",
"                          a&b&c&F#d&e&@&|$f&g&h&i&j&                    k&l&m&n&o&                                              ",
"                            p&q&r&s&t&u&v&w&x&y&z&                        ]$/#w$                                                ",
"                              A&+@B&C&D&                                                                                        ",
"                                                                                                                                ",
"                                                                                                                                ",
"                                                                                                                                ",
"                                                                                                                                ",
"                                                                                                                                ",
"                                                                                                                                ",
"                                                                                                                                ",
"                                                                                                                                ",
"                                                                                                                                ",
"                                                                                                                                ",
"                                                                                                                                ",
"                                                                                                                                ",
"                                                                                                                                ",
"                                                                                                                                ",
"                                                                                                                                "};
