/* XPM */
static char * guy_died1_xpm[] = {
"64 64 713 2",
"  	c None",
". 	c #E2AE80",
"+ 	c #EABC8C",
"@ 	c #F1B988",
"# 	c #F0BF8F",
"$ 	c #CD9A70",
"% 	c #EDB584",
"& 	c #F9C491",
"* 	c #F3C492",
"= 	c #CEA47A",
"- 	c #EDBD8C",
"; 	c #F8C794",
"> 	c #EFC291",
", 	c #C09A75",
"' 	c #DCB085",
") 	c #E4B88A",
"! 	c #DBB185",
"~ 	c #A48164",
"{ 	c #BC9370",
"] 	c #C39874",
"^ 	c #BB926F",
"/ 	c #8A6651",
"( 	c #9C725B",
"_ 	c #A2765D",
": 	c #9B725A",
"< 	c #886551",
"[ 	c #976956",
"} 	c #996956",
"| 	c #875E4C",
"1 	c #7C5748",
"2 	c #8D6150",
"3 	c #926452",
"4 	c #8C614F",
"5 	c #7B5747",
"6 	c #9F6E5A",
"7 	c #A2705B",
"8 	c #946652",
"9 	c #7C5746",
"0 	c #A79260",
"a 	c #B7A169",
"b 	c #BAA46A",
"c 	c #795446",
"d 	c #895E4D",
"e 	c #8F624F",
"f 	c #8A5F4D",
"g 	c #7A5546",
"h 	c #A0705B",
"i 	c #A6735D",
"j 	c #9B6B56",
"k 	c #865D4C",
"l 	c #6B4D41",
"m 	c #987F54",
"n 	c #B8A067",
"o 	c #C6AE70",
"p 	c #C3AB6F",
"q 	c #594339",
"r 	c #735143",
"s 	c #855B4B",
"t 	c #8D604E",
"u 	c #60453A",
"v 	c #845E4D",
"w 	c #9F705B",
"x 	c #A7745E",
"y 	c #9E6D58",
"z 	c #8A604F",
"A 	c #705144",
"B 	c #534139",
"C 	c #72583B",
"D 	c #998052",
"E 	c #B9A067",
"F 	c #C2AA6D",
"G 	c #B8A068",
"H 	c #A38A5C",
"I 	c #8B724E",
"J 	c #715B41",
"K 	c #594537",
"L 	c #463731",
"M 	c #433631",
"N 	c #533F36",
"O 	c #694A3E",
"P 	c #7B5545",
"Q 	c #875C4A",
"R 	c #875D4C",
"S 	c #7A5748",
"T 	c #664C41",
"U 	c #6A4D3F",
"V 	c #8E5F47",
"W 	c #9F6A4C",
"X 	c #7C543F",
"Y 	c #6B4D3F",
"Z 	c #9F6F5B",
"` 	c #9E6D59",
" .	c #8B6150",
"..	c #725346",
"+.	c #56443C",
"@.	c #493C37",
"#.	c #6B5337",
"$.	c #8F784D",
"%.	c #AD9560",
"&.	c #B39B64",
"*.	c #A38A5B",
"=.	c #8A6F4C",
"-.	c #765940",
";.	c #694B3A",
">.	c #5F4236",
",.	c #513B32",
"'.	c #493730",
").	c #614438",
"!.	c #714D3E",
"~.	c #7E5544",
"{.	c #835C4C",
"].	c #7F6154",
"^.	c #79665B",
"/.	c #896E5F",
"(.	c #AD7B60",
"_.	c #CC8C66",
":.	c #E0A275",
"<.	c #EBB584",
"[.	c #EDB988",
"}.	c #E7AE7E",
"|.	c #D7976B",
"1.	c #B97A55",
"2.	c #8F5E44",
"3.	c #715041",
"4.	c #845E4E",
"5.	c #59473E",
"6.	c #52423B",
"7.	c #5D453B",
"8.	c #5C4933",
"9.	c #7D6744",
"0.	c #977F53",
"a.	c #9C8357",
"b.	c #8E734E",
"c.	c #795B42",
"d.	c #6B4A3A",
"e.	c #664538",
"f.	c #634337",
"g.	c #5B4035",
"h.	c #563D33",
"i.	c #593E34",
"j.	c #624336",
"k.	c #6B483A",
"l.	c #754F40",
"m.	c #7F5E4F",
"n.	c #897468",
"o.	c #968A7E",
"p.	c #AB9687",
"q.	c #C5977D",
"r.	c #DC9B74",
"s.	c #EDAC7C",
"t.	c #F7BD8A",
"u.	c #F9C28F",
"v.	c #F3B684",
"w.	c #E29E6F",
"x.	c #C38058",
"y.	c #966246",
"z.	c #735142",
"A.	c #A7745D",
"B.	c #735447",
"C.	c #5B4840",
"D.	c #5A473E",
"E.	c #6A4D41",
"F.	c #655341",
"G.	c #7B664D",
"H.	c #836B52",
"I.	c #7D6350",
"J.	c #73584B",
"K.	c #6E5248",
"L.	c #6E5349",
"M.	c #6F554A",
"N.	c #6F574C",
"O.	c #6E584D",
"P.	c #6E574D",
"Q.	c #6F564B",
"R.	c #72574B",
"S.	c #785C4F",
"T.	c #856E61",
"U.	c #9B8C7F",
"V.	c #B4A89A",
"W.	c #C8B4A2",
"X.	c #D7AC92",
"Y.	c #E3A47E",
"Z.	c #EFAE7E",
"`.	c #F8BE8B",
" +	c #FAC38F",
".+	c #F4B785",
"++	c #E39F70",
"@+	c #C48059",
"#+	c #966247",
"$+	c #735242",
"%+	c #845D4E",
"&+	c #5C4940",
"*+	c #5F4A40",
"=+	c #745346",
"-+	c #815A4A",
";+	c #855D4B",
">+	c #8B614F",
",+	c #6D615D",
"'+	c #786A67",
")+	c #7A6C69",
"!+	c #796B69",
"~+	c #7B6D6A",
"{+	c #81726C",
"]+	c #877970",
"^+	c #8E8076",
"/+	c #918379",
"(+	c #8F8177",
"_+	c #8A7C73",
":+	c #887A72",
"<+	c #8D8076",
"[+	c #9C8F82",
"}+	c #B4A697",
"|+	c #CDBDA9",
"1+	c #DDC4AB",
"2+	c #E3B697",
"3+	c #E7A880",
"4+	c #F6BD8A",
"5+	c #F3B685",
"6+	c #E39E70",
"7+	c #C38059",
"8+	c #966147",
"9+	c #5D4940",
"0+	c #624C42",
"a+	c #795749",
"b+	c #895F4E",
"c+	c #8F6250",
"d+	c #916451",
"e+	c #946753",
"f+	c #976955",
"g+	c #716F74",
"h+	c #7E7B82",
"i+	c #838086",
"j+	c #878388",
"k+	c #8D898A",
"l+	c #96918E",
"m+	c #A19B94",
"n+	c #ACA69D",
"o+	c #B2ABA1",
"p+	c #AFA99E",
"q+	c #A7A199",
"r+	c #A59F97",
"s+	c #ACA59C",
"t+	c #BBB1A3",
"u+	c #CFBFAA",
"v+	c #E1C9AC",
"w+	c #EBC8A5",
"x+	c #EBB790",
"y+	c #EAA87C",
"z+	c #EFAE7D",
"A+	c #5E4940",
"B+	c #634C42",
"C+	c #7A574A",
"D+	c #926551",
"E+	c #8E624F",
"F+	c #845C4A",
"G+	c #76767D",
"H+	c #85848D",
"I+	c #8C8A92",
"J+	c #918F95",
"K+	c #9A989A",
"L+	c #A6A4A1",
"M+	c #B2B1AA",
"N+	c #BEBCB3",
"O+	c #C4C2B7",
"P+	c #C0BFB5",
"Q+	c #B9B8AF",
"R+	c #B9B6AD",
"S+	c #C4BDB1",
"T+	c #D4C8B5",
"U+	c #E4CFB3",
"V+	c #F0D0AA",
"W+	c #F4C89C",
"X+	c #F0B687",
"Y+	c #ECA778",
"Z+	c #916452",
"`+	c #8C604E",
" @	c #845B49",
".@	c #775343",
"+@	c #716D71",
"@@	c #817B7F",
"#@	c #8B8185",
"$@	c #948A8B",
"%@	c #9E9897",
"&@	c #ABA9A4",
"*@	c #B7B6AF",
"=@	c #C0C0B7",
"-@	c #C4C4BB",
";@	c #C2C2B9",
">@	c #BEBDB4",
",@	c #C3BDB2",
"'@	c #D2C6B3",
")@	c #E4CFB4",
"!@	c #F2D4AF",
"~@	c #F8D1A5",
"{@	c #F8C896",
"]@	c #F2B583",
"^@	c #ECA776",
"/@	c #F6BD8B",
"(@	c #7A5849",
"_@	c #906351",
":@	c #845B4A",
"<@	c #775344",
"[@	c #6B5C58",
"}@	c #786461",
"|@	c #846C67",
"1@	c #907973",
"2@	c #9D8D87",
"3@	c #AAA29B",
"4@	c #B4B1AA",
"5@	c #BAB9B2",
"6@	c #BDBDB6",
"7@	c #BCBCB5",
"8@	c #BCBAB2",
"9@	c #C5BDAF",
"0@	c #D9C6AD",
"a@	c #ECCFAB",
"b@	c #F8D3A8",
"c@	c #FCD0A0",
"d@	c #F9C795",
"e@	c #F3B582",
"f@	c #785648",
"g@	c #885F4D",
"h@	c #8E6250",
"i@	c #8D614F",
"j@	c #895E4C",
"k@	c #7E5848",
"l@	c #766448",
"m@	c #715946",
"n@	c #735446",
"o@	c #7B584B",
"p@	c #88675B",
"q@	c #957E73",
"r@	c #A3948B",
"s@	c #AFA69E",
"t@	c #B8B4AC",
"u@	c #BDBCB4",
"v@	c #BBBAB2",
"w@	c #C4BDB0",
"x@	c #D8C5AE",
"y@	c #EBCEAC",
"z@	c #F7D2A8",
"A@	c #FBD1A1",
"B@	c #FAC795",
"C@	c #F3B583",
"D@	c #F6BE8B",
"E@	c #F9C390",
"F@	c #956147",
"G@	c #8C6250",
"H@	c #775547",
"I@	c #634B40",
"J@	c #624A40",
"K@	c #705245",
"L@	c #7D5849",
"M@	c #835C4B",
"N@	c #855C4B",
"O@	c #7D5747",
"P@	c #AB9762",
"Q@	c #A6925F",
"R@	c #978156",
"S@	c #816848",
"T@	c #72523E",
"U@	c #724D3E",
"V@	c #7B584A",
"W@	c #886A5D",
"X@	c #978074",
"Y@	c #A7988D",
"Z@	c #B8AFA5",
"`@	c #C1BFB5",
" #	c #C1C2B8",
".#	c #C2BDB2",
"+#	c #D1C6B4",
"@#	c #E3CFB5",
"##	c #F0D4B1",
"$#	c #F7D2A6",
"%#	c #F8C897",
"&#	c #EDA676",
"*#	c #EFAD7C",
"=#	c #F9C28E",
"-#	c #845D4D",
";#	c #9F6F5A",
">#	c #7C5647",
",#	c #6A4C40",
"'#	c #61483E",
")#	c #634A40",
"!#	c #694E43",
"~#	c #715144",
"{#	c #7B5444",
"]#	c #7A5444",
"^#	c #734F41",
"/#	c #B19A64",
"(#	c #C3AC6E",
"_#	c #C8B071",
":#	c #C0A96D",
"<#	c #AB9561",
"[#	c #8B734F",
"}#	c #6F533F",
"|#	c #654639",
"1#	c #6A4A3E",
"2#	c #755548",
"3#	c #85685B",
"4#	c #998478",
"5#	c #AEA398",
"6#	c #BCB7AD",
"7#	c #BEBCB2",
"8#	c #BAB7AE",
"9#	c #BDB8AF",
"0#	c #CAC3B7",
"a#	c #DBD0BD",
"b#	c #EAD6BA",
"c#	c #F4D3AB",
"d#	c #F8C898",
"e#	c #EDA675",
"f#	c #EEAB79",
"g#	c #F4B885",
"h#	c #F6BD89",
"i#	c #F1B281",
"j#	c #E29C6E",
"k#	c #976347",
"l#	c #745141",
"m#	c #7E594A",
"n#	c #996A56",
"o#	c #7F5747",
"p#	c #6F4D3F",
"q#	c #60463B",
"r#	c #56433B",
"s#	c #5E473D",
"t#	c #684A3D",
"u#	c #6E4C3E",
"v#	c #6E4C3D",
"w#	c #68483B",
"x#	c #745B3E",
"y#	c #9B8254",
"z#	c #BBA268",
"A#	c #CEB674",
"B#	c #D3BA77",
"C#	c #CAB373",
"D#	c #B29C66",
"E#	c #8B7752",
"F#	c #66523F",
"G#	c #543E36",
"H#	c #553D35",
"I#	c #5E4339",
"J#	c #6B5146",
"K#	c #7E6B60",
"L#	c #92887E",
"M#	c #A19C92",
"N#	c #A7A197",
"O#	c #A9A197",
"P#	c #B2AA9F",
"Q#	c #C3BDB1",
"R#	c #D6CEBE",
"S#	c #E7D6BD",
"T#	c #F4D3AD",
"U#	c #F3B682",
"V#	c #EDA573",
"W#	c #ECA473",
"X#	c #EFAC7B",
"Y#	c #F1AF7E",
"Z#	c #EDA877",
"`#	c #E1976A",
" $	c #C68058",
".$	c #9B6548",
"+$	c #745040",
"@$	c #825C4D",
"#$	c #8D6351",
"$$	c #8F6452",
"%$	c #8B604E",
"&$	c #805847",
"*$	c #714E40",
"=$	c #60463A",
"-$	c #504039",
";$	c #4B3F39",
">$	c #55423A",
",$	c #62453A",
"'$	c #69483B",
")$	c #69483A",
"!$	c #634538",
"~$	c #977F51",
"{$	c #B69F66",
"]$	c #C9B172",
"^$	c #CEB675",
"/$	c #C5AF70",
"($	c #AC9864",
"_$	c #847450",
":$	c #605241",
"<$	c #54463C",
"[$	c #5B483C",
"}$	c #614A3C",
"|$	c #654C3F",
"1$	c #6B564B",
"2$	c #73665E",
"3$	c #7D746B",
"4$	c #938176",
"5$	c #A5958A",
"6$	c #BCB2A6",
"7$	c #D2CABA",
"8$	c #E5D4BC",
"9$	c #F1D3AF",
"0$	c #F5C89B",
"a$	c #EFB585",
"b$	c #E7A171",
"c$	c #E59A6B",
"d$	c #E79D6D",
"e$	c #EAA06F",
"f$	c #E99C6C",
"g$	c #DF9364",
"h$	c #C88158",
"i$	c #A0684A",
"j$	c #75503E",
"k$	c #61473C",
"l$	c #674B40",
"m$	c #755446",
"n$	c #885E4D",
"o$	c #815947",
"p$	c #714F40",
"q$	c #5F463A",
"r$	c #4F4039",
"s$	c #4A3E39",
"t$	c #67473A",
"u$	c #68473A",
"v$	c #624438",
"w$	c #A28D5B",
"x$	c #B39E66",
"y$	c #B7A269",
"z$	c #AF9B65",
"A$	c #98885A",
"B$	c #76694C",
"C$	c #665946",
"D$	c #76634F",
"E$	c #897056",
"F$	c #907055",
"G$	c #8C664D",
"H$	c #835C47",
"I$	c #785747",
"J$	c #70564B",
"K$	c #7D6257",
"L$	c #948076",
"M$	c #B0A59A",
"N$	c #CAC2B4",
"O$	c #DED1BC",
"P$	c #EAD2B4",
"Q$	c #ECC8A4",
"R$	c #E2B18B",
"S$	c #D89971",
"T$	c #D78D63",
"U$	c #DE9062",
"V$	c #E59465",
"W$	c #E79565",
"X$	c #DF9061",
"Y$	c #A1694B",
"Z$	c #744F3D",
"`$	c #4F3E36",
" %	c #63493E",
".%	c #7B5647",
"+%	c #865C4B",
"@%	c #805947",
"#%	c #544239",
"$%	c #61453A",
"%%	c #68483A",
"&%	c #75644E",
"*%	c #9E8364",
"=%	c #BB9772",
"-%	c #C49870",
";%	c #BE8964",
">%	c #AE7755",
",%	c #99654A",
"'%	c #815643",
")%	c #704C3E",
"!%	c #6E5147",
"~%	c #817068",
"{%	c #9F978E",
"]%	c #BBB6AB",
"^%	c #D1C9B9",
"/%	c #DDCEB9",
"(%	c #DCC5AC",
"_%	c #CCAB90",
":%	c #BD8C6F",
"<%	c #C27F5B",
"[%	c #D2855A",
"}%	c #E08F60",
"|%	c #E59263",
"1%	c #DF8E61",
"2%	c #C98159",
"3%	c #A46B4C",
"4%	c #77503E",
"5%	c #543E34",
"6%	c #483A33",
"7%	c #785546",
"8%	c #504139",
"9%	c #554239",
"0%	c #61463A",
"a%	c #B99873",
"b%	c #DCB285",
"c%	c #E8B586",
"d%	c #E2A779",
"e%	c #D09269",
"f%	c #B57C5A",
"g%	c #95654D",
"h%	c #785342",
"i%	c #6A4F45",
"j%	c #74655F",
"k%	c #8E8781",
"l%	c #A9A59C",
"m%	c #BDB8AD",
"n%	c #C8C1B3",
"o%	c #C4B9A9",
"p%	c #AF9D8D",
"q%	c #9C7B68",
"r%	c #A66F52",
"s%	c #C07A53",
"t%	c #D5885C",
"u%	c #DF8F61",
"v%	c #DE8E60",
"w%	c #CE845A",
"x%	c #AF7150",
"y%	c #895B43",
"z%	c #674739",
"A%	c #533E35",
"B%	c #5F463C",
"C%	c #775546",
"D%	c #66473A",
"E%	c #EABE8E",
"F%	c #F8C592",
"G%	c #F4BB89",
"H%	c #E1A77A",
"I%	c #C18C67",
"J%	c #9B6E54",
"K%	c #7D5846",
"L%	c #705246",
"M%	c #756056",
"N%	c #84766F",
"O%	c #958C85",
"P%	c #A49C94",
"Q%	c #ACA59B",
"R%	c #A79F94",
"S%	c #C07C55",
"T%	c #D3885C",
"U%	c #DB8C5F",
"V%	c #D5895D",
"W%	c #C27D56",
"X%	c #A66C4D",
"Y%	c #845841",
"Z%	c #634639",
"`%	c #62473D",
" &	c #54423A",
".&	c #634539",
"+&	c #F6C794",
"@&	c #F4C28F",
"#&	c #E1B083",
"$&	c #BF936E",
"%&	c #976F55",
"&&	c #795546",
"*&	c #7D5C4F",
"=&	c #80655A",
"-&	c #826E64",
";&	c #86766D",
">&	c #897C72",
",&	c #BF7B55",
"'&	c #D2875C",
")&	c #D88C5F",
"!&	c #D1875C",
"~&	c #BC7A54",
"{&	c #996548",
"]&	c #704E3C",
"^&	c #64483D",
"/&	c #775446",
"(&	c #534039",
"_&	c #DEB487",
":&	c #CEA67D",
"<&	c #AF8B69",
"[&	c #8C6951",
"}&	c #7A5544",
"|&	c #7B5445",
"1&	c #6C5245",
"2&	c #BE7C55",
"3&	c #CB835A",
"4&	c #CA8259",
"5&	c #BB7953",
"6&	c #64493D",
"7&	c #5F453A",
"8&	c #4F3E37",
"9&	c #473C37",
"0&	c #4D3D37",
"a&	c #724F40",
"b&	c #744F40",
"c&	c #765141",
"d&	c #724E3E",
"e&	c #6A4839",
"f&	c #A96F4E",
"g&	c #AA6E4E",
"h&	c #9E6849",
"i&	c #835741",
"j&	c #644739",
"k&	c #845B4B",
"l&	c #815847",
"m&	c #5F4439",
"n&	c #4D3C36",
"o&	c #413834",
"p&	c #7D543F",
"q&	c #754F3D",
"r&	c #624538",
"s&	c #513E35",
"t&	c #5A443B",
"u&	c #725144",
"v&	c #7F5948",
"w&	c #7E5747",
"x&	c #745041",
"y&	c #63463A",
"z&	c #4F3D35",
"A&	c #63483E",
"B&	c #725143",
"C&	c #785445",
"D&	c #6C4C3F",
"                                                                                                                                ",
"                                                                                                                                ",
"                                                                                                                                ",
"                                                                                                                                ",
"                                                                                                                                ",
"                                                                                                                                ",
"                                                                                                                                ",
"                                                                                                                                ",
"                                                                                                                                ",
"                                                                                                                                ",
"                                                                                                                                ",
"                                                                                                                                ",
"                                                                                                                                ",
"                                                                                                                                ",
"                                                                                                                                ",
"                                                                                                                                ",
"                                                    . +                                                                         ",
"                                                    @ #                                                                         ",
"                                                $ % & *                                                                         ",
"                                                = - ; >                                                                         ",
"                                                , ' ) !                                                                         ",
"                                                ~ { ] ^                                                                         ",
"                                                / ( _ : <                           [ } |                                       ",
"                                                1 2 3 4 5                           6 7 8 9                                     ",
"                            0 a b               c d e f g                           h i j k l                                   ",
"                          m n o p             q r s t f g u                       v w x y z A B                                 ",
"                        C D E F G H I J K L M N O P Q R S T U V             W X Y v Z x `  ...+.@.                              ",
"                        #.$.%.&.*.=.-.;.>.,.'.,.).!.~.{.].^./.(._.:.<.[.}.|.1.2.3.4.Z x `  ...5.6.7.                            ",
"                        8.9.0.a.b.c.d.e.f.g.h.i.j.k.l.m.n.o.p.q.r.s.t.u.v.w.x.y.z.4.Z A.y  .B.C.D.E.                            ",
"                          F.G.H.I.J.K.L.M.N.O.P.Q.R.S.T.U.V.W.X.Y.Z.`. +.+++@+#+$+%+Z A.y  .B.&+*+=+-+;+| >+                    ",
"                            ,+'+)+!+~+{+]+^+/+(+_+:+<+[+}+|+1+2+3+Z.4+u.5+6+7+8+$+%+Z A.y  .B.9+0+a+b+c+d+e+f+                  ",
"                            g+h+i+j+k+l+m+n+o+p+q+r+s+t+u+v+w+x+y+z+4+u..+6+7+8+$+%+Z A.y  .B.A+B+C+>+d+D+d+E+F+                ",
"                            G+H+I+J+K+L+M+N+O+P+Q+R+S+T+U+V+W+X+Y+z+4+u..+6+7+8+$+%+Z A.y  .B.9+B+C+>+Z+d+`+ @.@                ",
"                            +@@@#@$@%@&@*@=@-@;@>@,@'@)@!@~@{@]@^@z+/@u..+6+7+8+$+%+Z A.y  .B.9+B+(@>+d+_@`+:@<@                ",
"                            [@}@|@1@2@3@4@5@6@7@8@9@0@a@b@c@d@e@^@z+/@u..+6+7+8+z.%+Z A.y  .B.*+B+f@g@h@c+i@j@k@                ",
"                          l@m@n@o@p@q@r@s@t@u@7@v@w@x@y@z@A@B@C@^@z+D@E@.+6+7+F@z.%+Z x ` G@H@I@J@K@L@M@k | N@O@                ",
"                      P@Q@R@S@T@U@V@W@X@Y@Z@`@ #>@.#+#@###$#%#]@&#*#4+=#v.6+7+#+z.-#;#i y h@>#,#'#)#!#~#<@{#]#^#                ",
"                  /#(#_#:#<#[#}#|#1#2#3#4#5#6#7#8#9#0#a#b#c#d#C@e#f#g#h#i#j#@+k#l#m#[ 6 n#h@o#p#q#r#+.s#t#u#v#w#                ",
"              x#y#z#A#B#C#D#E#F#G#H#I#J#K#L#M#N#O#P#Q#R#S#T#d#U#V#W#X#Y#Z#`# $.$+$~#@$#$$$%$&$*$=$-$;$>$,$'$)$!$                ",
"                ~${$]$^$/$($_$:$<$[$}$|$1$2$3$]+4$5$6$7$8$9$0$a$b$c$d$e$f$g$h$i$j$k$l$m${.n$o$p$q$r$s$B u t$u$v$                ",
"                  w$x$y$z$A$B$C$D$E$F$G$H$I$M.J$K$L$M$N$O$P$Q$R$S$T$U$V$W$X$h$Y$Z$G#`$ %.%+%@%p$q$r$;$#%$%%%)$!$                ",
"                              &%*%=%-%;%>%,%'%)%!%~%{%]%^%/%(%_%:%<%[%}%|%1%2%3%4%5%6%7.7%F+&$p$q$8%;$9%0%%%)$                  ",
"                                a%b%c%d%e%f%g%h%i%j%k%l%m%n%o%p%q%r%s%t%u%v%w%x%y%z%A%B%C%F+&$p$q$8%;$9%u D%                    ",
"                                  E%F%G%H%I%J%K%L%M%N%O%P%Q%R%        S%T%U%V%W%X%Y%Z%`%C%F+&$p$q$-$;$ &u .&                    ",
"                                    +&@&#&$&%&K%&&*&=&-&;&>&            ,&'&)&!&~&{&]&^&/&F+&$p$q$-$s$(&                        ",
"                                      _&:&<&[&}&|&k@S ..1&                2&3&4&5&{&]&6&C%N@&$*$7&8&9&0&                        ",
"                                              a&b&c&d&e&                    f&g&h&i&j&k$/&k&l&*$m&n&o&                          ",
"                                                %%w#t$                        p&q&r&s&t&u&v&w&x&y&z&                            ",
"                                                                                        A&B&C&<@D&                              ",
"                                                                                                                                ",
"                                                                                                                                ",
"                                                                                                                                ",
"                                                                                                                                ",
"                                                                                                                                ",
"                                                                                                                                ",
"                                                                                                                                ",
"                                                                                                                                ",
"                                                                                                                                ",
"                                                                                                                                ",
"                                                                                                                                ",
"                                                                                                                                ",
"                                                                                                                                ",
"                                                                                                                                ",
"                                                                                                                                "};
