/* XPM */
static char * site_a_xpm[] = {
"64 64 192 2",
"  	c #010101",
". 	c #010101",
"+ 	c #C2684E",
"@ 	c #CC5744",
"# 	c #D34B3D",
"$ 	c #BC7454",
"% 	c #DE3633",
"& 	c #ED1C24",
"* 	c #E2312F",
"= 	c #C16B4F",
"- 	c #E03431",
"; 	c #EA2227",
"> 	c #C6624A",
", 	c #C4654C",
"' 	c #E42E2D",
") 	c #C06F51",
"! 	c #D05041",
"~ 	c #BA7755",
"{ 	c #D94038",
"] 	c #CA5A45",
"^ 	c #DF3632",
"/ 	c #E52B2C",
"( 	c #E03330",
"_ 	c #C95D47",
": 	c #EC1C24",
"< 	c #EC1D25",
"[ 	c #D34A3C",
"} 	c #D7453A",
"| 	c #CE5343",
"1 	c #DF3531",
"2 	c #DB3E36",
"3 	c #BE7252",
"4 	c #D4493C",
"5 	c #E6282B",
"6 	c #ED1D25",
"7 	c #EE1C24",
"8 	c #EC1F26",
"9 	c #EC1E26",
"0 	c #E52A2C",
"a 	c #D84338",
"b 	c #D14F40",
"c 	c #BF6F51",
"d 	c #D24E3F",
"e 	c #C95C46",
"f 	c #B87A57",
"g 	c #DD3934",
"h 	c #E7272A",
"i 	c #D5483C",
"j 	c #B97A58",
"k 	c #BA7A57",
"l 	c #DB3B35",
"m 	c #E82429",
"n 	c #B97B57",
"o 	c #E32E2E",
"p 	c #DC3C36",
"q 	c #B97957",
"r 	c #DA4038",
"s 	c #C5644B",
"t 	c #E6292B",
"u 	c #EC1F25",
"v 	c #D34B3E",
"w 	c #D93F37",
"x 	c #B97A56",
"y 	c #DB3C36",
"z 	c #E92528",
"A 	c #D6453A",
"B 	c #E6272A",
"C 	c #D6463B",
"D 	c #C95C47",
"E 	c #EC1C25",
"F 	c #E92328",
"G 	c #D34A3D",
"H 	c #EA2228",
"I 	c #D6463A",
"J 	c #E52D2C",
"K 	c #ED1D24",
"L 	c #EC1E24",
"M 	c #EB2026",
"N 	c #E03331",
"O 	c #EC1E25",
"P 	c #EC2026",
"Q 	c #EB2027",
"R 	c #ED1C25",
"S 	c #E13230",
"T 	c #EB2227",
"U 	c #DA3E36",
"V 	c #D14D3E",
"W 	c #E22F2E",
"X 	c #EB1F25",
"Y 	c #E92428",
"Z 	c #DF3532",
"` 	c #D6473B",
" .	c #D93F38",
"..	c #E1322F",
"+.	c #C86048",
"@.	c #D14E3F",
"#.	c #E82629",
"$.	c #E1312F",
"%.	c #EB1F26",
"&.	c #D74239",
"*.	c #DE3632",
"=.	c #D5473A",
"-.	c #DB3D37",
";.	c #DB3B34",
">.	c #D84438",
",.	c #ED1E25",
"'.	c #DB3C35",
").	c #E82529",
"!.	c #E8262A",
"~.	c #DD3A35",
"{.	c #E92228",
"].	c #D04E40",
"^.	c #E6292A",
"/.	c #D5463C",
"(.	c #E92429",
"_.	c #DA3D36",
":.	c #EA2127",
"<.	c #C2694E",
"[.	c #C66049",
"}.	c #D6443A",
"|.	c #E62A2B",
"1.	c #D84239",
"2.	c #E42D2D",
"3.	c #E2302F",
"4.	c #DC3832",
"5.	c #DB3A34",
"6.	c #C95946",
"7.	c #CD5543",
"8.	c #E7282A",
"9.	c #D74339",
"0.	c #D5483B",
"a.	c #DC3933",
"b.	c #E92227",
"c.	c #DA3F37",
"d.	c #E0322F",
"e.	c #EA2327",
"f.	c #D14F3F",
"g.	c #E52C2D",
"h.	c #DC3B34",
"i.	c #E13330",
"j.	c #CC5543",
"k.	c #E32E2D",
"l.	c #D7463A",
"m.	c #E7292B",
"n.	c #DD3A34",
"o.	c #E72629",
"p.	c #C4684D",
"q.	c #D84238",
"r.	c #DB3D36",
"s.	c #DE3733",
"t.	c #E03532",
"u.	c #EA2027",
"v.	c #E6282A",
"w.	c #E32D2D",
"x.	c #E82428",
"y.	c #E42E2E",
"z.	c #CB5844",
"A.	c #E62B2C",
"B.	c #E3302E",
"C.	c #E32F2F",
"D.	c #D34C3E",
"E.	c #E22F2F",
"F.	c #D04F40",
"G.	c #DA3E37",
"H.	c #DD3733",
"I.	c #E32F2E",
"J.	c #E42B2B",
"K.	c #D14D3F",
"L.	c #E42D2C",
"M.	c #DE3532",
"N.	c #EA2026",
"O.	c #CE5342",
"P.	c #E42C2D",
"Q.	c #D24C3E",
"R.	c #D84139",
"S.	c #C95C48",
"T.	c #BB7453",
"U.	c #D54539",
"V.	c #D04E3F",
"W.	c #C3664C",
"X.	c #E92529",
"Y.	c #BD7152",
"Z.	c #E62829",
"`.	c #E92027",
" +	c #E52B2B",
".+	c #EB1E26",
"++	c #D5473B",
"@+	c #CD5542",
"#+	c #E5292B",
"$+	c #E52A2B",
"%+	c #D94138",
"&+	c #E82228",
". . . . . . . . . . . . . . . . . . . . . . . . . . . . . . . . . . . . . . . . . . . . . . . . . . . . . . . . . . . . . . . . ",
". . . . . . . . . . . . . . . . . . . . . . . . . . . . . . . . . & . . . . . . . . . . . . . . . . . . . . . . . . . . . . . . ",
". . . . . . . . . . . . . . . . . . . . . . . . . . . . . . : & & & & & . . . . . . . . . . . . . . . . . . . . . . . . . . . . ",
". . . . . . . . . . . . . . . . . . . . . . . . . . . & & & . . . & & . & & & . . . . . . . . . . . . . . . . . . . . . . . . . ",
". . . . . . . . . . . . . . . . . . . . . . . . . & & . . . . . & & & ~ . . . & & . . . . . . . . . . . . . . . . . . . . . . . ",
". . . . . . . . . . . . . . . . . . . . . . . . & . . . . . . w & & & & . . . . . & . . . . . . . . . . . . . . . . . . . . . . ",
". . . . . . . . . . . . . . . . . . . . . . . & . . . . . . . & & & & & . . . . . . & . . . . . . . . . . . . . . . . . . . . . ",
". . . . . . . . . . . . . . . . . . . . . . & . . . . . . . . & & & & & . . . . . . . & . . . . . . . . . . . . . . . . . . . . ",
". . . . . . . . . . . . . . . . . . . . . & . . . . . . . . & & & & & & . . . . . . . . & . . . . . . . . . . . . . . . . . . . ",
". . . . . . . . . . . . . . . . . . . . & . . . . . . . . . & & & & & & & . . . . . . . . & . . . . . . . . . . . . . . . . . . ",
". . . . . . . . . . . . . . . . . . . . & . . . . . . . . & & & & . & : & . . . . . . . . & . . . . . . . . . . . . . . . . . . ",
". . . . . . . . . . . . . . . . . . . & . . . . . . . . . & & & & . & & & . . . . . . . . . & . . . . . . . . . . . . . . . . . ",
". . . . . . . . . . . . . . . . . . . & . . . . . . . . . & & & . . & & & & . . . . . . . . & . . . . . . . . . . . . . . . . . ",
". . . . . . . . . . . . . . . . . . & . . . . . . . . . & & & # . . & & & & . . . . . . . . . & . . . . . . . . . . . . . . . . ",
". . . . . . . . . . . . . . . . . . & . . . . . . . . . & & # . . . . & & & m . . . . . . . . & . . . . . . . . . . . . . . . . ",
". . . . . . . . . . . . . . . . . . & . . . . . . . . . & & & . . . . & & & & . . . . . . . . . . . . . . . . . . . . . . . . . ",
". . . . . . . . . . . . . . . . . : . . . . . . . . . & & & . . . . . & & & & & . . . . . . . . & . . . . . . . . . . . . . . . ",
". . . . . . . . . . . . . . . . . & . . . . . . . . . & & & . . . . . . & & & & . . . . . . . . & . . . . . . . . . . . . . . . ",
". . . . . . . . . . . . . . . . . & . . . . . . . . & & & . . . . . . . & & & & . . . . . . . . & . . . . . . . . . . . . . . . ",
". . . . . . . . . . . . . . . . . & . . . . . . . . & & & . . . . . . . & & & & . . . . . . . . & . . . . . . . . . . . . . . . ",
". . . . . . . . . . . . . . . . . & . . . . . . . & & & & . . . . . . . & & & & . . . . . . . . & . . . . . . . . . . . . . . . ",
". . . . . . . . . . . . . . . . . & . . . . & & & & & & & & & & & & & & & & & & & & & . . . . . & . . . . . . . . . . . . . . . ",
". . . . . . . . . . . . . . . . . & . . . . & & & & & & & & & & & & & & & & & & & & & . . . . . & . . . . . . . . . . . . . . . ",
". . . . . . . . . . . . . . . . . & . . . . . . . & & & & & . m & . . . . & & & & . . . . . . . & . . . . . . . . . . . . . . . ",
". . . . . . . . . . . . . . . . . & . . . . . . . & & . . . . . . . . . . . & & & & . . . . . . & . . . . . . . . . . . . . . . ",
". . . . . . . . . . . . . . . . . & . . . . . . & & & . . . . . . . . . . . & & & & . . . . . . & . . . . . . . . . . . . . . . ",
". . . . . . . . . . . . . . . . . & . . . . . . & & & . . . . . . . . . . . & & & & . . . . . . & . . . . . . . . . . . . . . . ",
". . . . . . . . . . . . . . . . . & . . . . . . & & & . . . . . . . . . . . . & & i . . . . . . & . . . . . . . . . . . . . . . ",
". . . . . . . . . . . . . . . . . # & . . . . 8 & & ) . . . . . . . . . . . . & & & & . . . . & . . . . . . . . . . . . . . . . ",
". . . . . . . . . . . . . . . . . . & . . . . & & & . . . . . . . . . . . . . & & & & . . . . & . . . . . . . . . . . . . . . . ",
". . . . . . . . . . . . . . . . . . & . . . . & & & . . . . . . . . . . . . . & & & & . . . . & . . . . . . . . . . . . . . . . ",
". . . . . . . . . . . . . . . . . . . & . . . & & . . . . . . . . . . . . . . . & & & . . . & . . . . . . . . . . . . . . . . . ",
". . . . . . . . . . . . . . . . . . . & . . . & 6 . . . . . . . . . . . . . . . & & & & . . & . . . . . . . . . . . . . . . . . ",
". . . . . . . . . . . . . . . . . . . . & . . & & . . . . . . . . . . . . . . . . & & & + & . . . . . . . . . . . . . . . . . . ",
". . . . . . . . . . . . . . . . . . . . & & & & & . . . . . . . . . . . . . . . . 6 & & & & . . . . . . . . . . . . . . . . . . ",
". . . . . . . . . . . . . . . . . . . . . & : & & . . . . . . . . . . . . . . . . . & & & . . . . . . . . . . . . . . . . . . . ",
". . . . . . . . . . . . . . . . . . . . . & & & & . . . . . . . . . . . . . . . . . & & & . . . . . . . . . . . . . . . . . . . ",
". . . . . . . . . . . . . . . . . . . . . & & & . . . . . . . . . . . . . . . . . . & & & . . . . . . . . . . . . . . . . . . . ",
". . . . . . . . . . . . . . . . . . . . . . & & & & . . . . . . . . . . . . . . & & . # # . . . . . . . . . . . . . . . . . . . ",
". . . . . . . . . . . . . . . . . . . . . . . . . . & & . . . . . . . . . . & & . . . . . . . . . . . . . . . . . . . . . . . . ",
". . . . . . . . . . . . . . . . . . . . . . . . . . . & & & & . . . . & & & & . . . . . . . . . . . . . . . . . . . . . . . . . ",
". . . . . . . . . . . . . . . . . . . . . . . . . . . . . . . & & & & . . . . . . . . . . . . . . . . . . . . . . . . . . . . . ",
". . . . . . . . . . . . . . . . . . . . . . . . . . . . . . . . . . . . . . . . . . . . . . . . . . . . . . . . . . . . . . . . ",
". . . . . . . . . . . . . . . . . . . . . . . . . . . . . . . . . . . . . . . . . . . . . . . . . . . . . . . . . . . . . . . . ",
". . . . . . . . . . . . . . . . . . . . . . . . . . . . . . . . . . . . . . . . . . . . . . . . . . . . . . . . . . . . . . . . ",
". . . . . . . . . . . . . . . . . . . . . . . . . . . . . . . . . . . . . . . . . . . . . . . . . . . . . . . . . . . . . . . . ",
". . . . . . . . . . . . . . . . . . . . . . . . . . . . . . . . . . . . . . . . . . . . . . . . . . . . . . . . . . . . . . . . ",
". . . . . . . . . . . . . . . . . . . . . . . . . . . . . . . . . . . . . . . . . . . . . . . . . . . . . . . . . . . . . . . . ",
". . . . . . . . . . . . . . . . . . . . . . . . . . . . . . . . . . . . . . . . . . . . . . . . . . . . . . . . . . . . . . . . ",
"                                                                                                                                ",
"                                                                                                                                ",
"                                                                                                                                ",
"                                                                                                                                ",
"                                                                                                                                ",
"                                                                                                                                ",
"                                                                                                                                ",
"                                                                                                                                ",
"                                                                                                                                ",
"                                                                                                                                ",
"                                                                                                                                ",
"                                                                                                                                ",
"                                                                                                                                ",
"                                                                                                                                ",
"                                                                                                                                "};
