/* XPM */
static char * t_xpm[] = {
"68 58 697 2",
"  	c #010101",
". 	c #010101",
"+ 	c #8F8F8F",
"@ 	c #666666",
"# 	c #606060",
"$ 	c #F1F1F1",
"% 	c #747675",
"& 	c #0B0C0B",
"* 	c #AFAAA8",
"= 	c #6F6765",
"- 	c #8E8282",
"; 	c #7F7373",
"> 	c #6C5756",
", 	c #231514",
"' 	c #141514",
") 	c #F2F2F2",
"! 	c #0B0B0B",
"~ 	c #5C4D4D",
"{ 	c #625A58",
"] 	c #6D6563",
"^ 	c #5A5250",
"/ 	c #58504E",
"( 	c #988E8D",
"_ 	c #665251",
": 	c #2D1719",
"< 	c #2D1517",
"[ 	c #0A0A0A",
"} 	c #1F1F1F",
"| 	c #634F50",
"1 	c #473938",
"2 	c #4C4442",
"3 	c #554F4F",
"4 	c #625C5C",
"5 	c #524C4C",
"6 	c #564C4B",
"7 	c #857170",
"8 	c #644E50",
"9 	c #2C1414",
"0 	c #332725",
"a 	c #444444",
"b 	c #827373",
"c 	c #463837",
"d 	c #625452",
"e 	c #6D6865",
"f 	c #615C59",
"g 	c #706B68",
"h 	c #534E4B",
"i 	c #645A59",
"j 	c #8C7A78",
"k 	c #2F1919",
"l 	c #291413",
"m 	c #000100",
"n 	c #303030",
"o 	c #3C2D2B",
"p 	c #020000",
"q 	c #1A1514",
"r 	c #3A3532",
"s 	c #3B3535",
"t 	c #3C3636",
"u 	c #3D3835",
"v 	c #010000",
"w 	c #8B7776",
"x 	c #321F1D",
"y 	c #331B1B",
"z 	c #040000",
"A 	c #151515",
"B 	c #311F1F",
"C 	c #2F2422",
"D 	c #322928",
"E 	c #020002",
"F 	c #020001",
"G 	c #010101",
"H 	c #000000",
"I 	c #483637",
"J 	c #030303",
"K 	c #381C1B",
"L 	c #6C5B57",
"M 	c #F3F3F3",
"N 	c #040101",
"O 	c #020100",
"P 	c #BA9F8A",
"Q 	c #B69471",
"R 	c #110500",
"S 	c #292323",
"T 	c #282222",
"U 	c #251D1A",
"V 	c #030000",
"W 	c #362420",
"X 	c #000200",
"Y 	c #8C7B7B",
"Z 	c #050202",
"` 	c #1D1412",
" .	c #010405",
"..	c #B08F72",
"+.	c #9C8772",
"@.	c #272121",
"#.	c #241B1A",
"$.	c #362928",
"%.	c #140C0A",
"&.	c #050100",
"*.	c #1F1715",
"=.	c #000003",
"-.	c #A89377",
";.	c #2B2525",
">.	c #362B29",
",.	c #3F3B38",
"'.	c #93807D",
").	c #55403D",
"!.	c #382E2C",
"~.	c #413735",
"{.	c #3D3533",
"].	c #403B38",
"^.	c #403A3A",
"/.	c #434240",
"(.	c #3B3A38",
"_.	c #48403E",
":.	c #2C2423",
"<.	c #8E7C7A",
"[.	c #0C0605",
"}.	c #E1E1E1",
"|.	c #F5F5F5",
"1.	c #E8E8E8",
"2.	c #372B2B",
"3.	c #3B3130",
"4.	c #3D3332",
"5.	c #3C3432",
"6.	c #423C3C",
"7.	c #4A4846",
"8.	c #424141",
"9.	c #807A7A",
"0.	c #574E4C",
"a.	c #907E7C",
"b.	c #907C7B",
"c.	c #170F0F",
"d.	c #C7C7C7",
"e.	c #010200",
"f.	c #292929",
"g.	c #F4F4F4",
"h.	c #393532",
"i.	c #504846",
"j.	c #8E8382",
"k.	c #8C8381",
"l.	c #7F7B7A",
"m.	c #66625F",
"n.	c #A29E9D",
"o.	c #9F9B9A",
"p.	c #94908F",
"q.	c #988A89",
"r.	c #4E3A39",
"s.	c #9A8685",
"t.	c #3A3A3A",
"u.	c #0A0503",
"v.	c #231816",
"w.	c #040100",
"x.	c #4D4D4D",
"y.	c #040404",
"z.	c #968E8C",
"A.	c #948A89",
"B.	c #8D8583",
"C.	c #656160",
"D.	c #9E9A99",
"E.	c #A49E9E",
"F.	c #554C4D",
"G.	c #5B4D4D",
"H.	c #998586",
"I.	c #9C898A",
"J.	c #A0A0A0",
"K.	c #FAFAFA",
"L.	c #AEAEAE",
"M.	c #090201",
"N.	c #1A1615",
"O.	c #312723",
"P.	c #32292A",
"Q.	c #9B9391",
"R.	c #99918F",
"S.	c #8A8685",
"T.	c #4E4A49",
"U.	c #595554",
"V.	c #A29C9C",
"W.	c #534545",
"X.	c #9C8988",
"Y.	c #9E8A89",
"Z.	c #FEFEFE",
"`.	c #CCCCCC",
" +	c #140A09",
".+	c #2B221D",
"++	c #030200",
"@+	c #DECE78",
"#+	c #322B17",
"$+	c #342F2C",
"%+	c #EBEBEB",
"&+	c #332D2D",
"*+	c #060201",
"=+	c #504C4B",
"-+	c #5B5756",
";+	c #575352",
">+	c #7A7474",
",+	c #AA9C9C",
"'+	c #A38F8D",
")+	c #A18D8C",
"!+	c #FDFDFD",
"~+	c #2B2120",
"{+	c #D6CA5C",
"]+	c #D9CB60",
"^+	c #010100",
"/+	c #302C29",
"(+	c #484848",
"_+	c #9D9996",
":+	c #615957",
"<+	c #565251",
"[+	c #A6A2A1",
"}+	c #7C7877",
"|+	c #716B6B",
"1+	c #A79999",
"2+	c #A38F8E",
"3+	c #A19090",
"4+	c #333333",
"5+	c #070604",
"6+	c #020300",
"7+	c #332928",
"8+	c #312C28",
"9+	c #332E2B",
"0+	c #928887",
"a+	c #655C5D",
"b+	c #A09C9B",
"c+	c #6B6766",
"d+	c #898481",
"e+	c #6B5D5D",
"f+	c #A5908D",
"g+	c #A28E8C",
"h+	c #5A4544",
"i+	c #644B49",
"j+	c #160706",
"k+	c #323234",
"l+	c #F6F6F6",
"m+	c #0C0C0A",
"n+	c #080501",
"o+	c #261E1C",
"p+	c #2E2321",
"q+	c #302624",
"r+	c #141414",
"s+	c #121212",
"t+	c #23190F",
"u+	c #FCFCFC",
"v+	c #0A0B0A",
"w+	c #9B9595",
"x+	c #99928F",
"y+	c #524A48",
"z+	c #55504D",
"A+	c #5C5B59",
"B+	c #676362",
"C+	c #736F6E",
"D+	c #ABA5A5",
"E+	c #090605",
"F+	c #A5928E",
"G+	c #826E6D",
"H+	c #412C29",
"I+	c #040104",
"J+	c #640A02",
"K+	c #070707",
"L+	c #F7F7F7",
"M+	c #160100",
"N+	c #180000",
"O+	c #7A7A7A",
"P+	c #2D1D1D",
"Q+	c #2B1D1A",
"R+	c #31221F",
"S+	c #0F0F0F",
"T+	c #0C0C0C",
"U+	c #050403",
"V+	c #7D7D7D",
"W+	c #230E08",
"X+	c #484A3F",
"Y+	c #979392",
"Z+	c #9C9795",
"`+	c #514947",
" @	c #B1A9A7",
".@	c #605C5B",
"+@	c #040605",
"@@	c #726E6D",
"#@	c #736767",
"$@	c #554341",
"%@	c #453330",
"&@	c #130B0B",
"*@	c #280D13",
"=@	c #6C1909",
"-@	c #650B00",
";@	c #AC826C",
">@	c #110400",
",@	c #1C1411",
"'@	c #060101",
")@	c #000102",
"!@	c #161616",
"~@	c #121612",
"{@	c #0A0807",
"]@	c #87483B",
"^@	c #4F4440",
"/@	c #4A4645",
"(@	c #9C9796",
"_@	c #5C5754",
":@	c #726A68",
"<@	c #B3AFAE",
"[@	c #B5B1AE",
"}@	c #B1B0AE",
"|@	c #736D6D",
"1@	c #635757",
"2@	c #301E1C",
"3@	c #090101",
"4@	c #341618",
"5@	c #050000",
"6@	c #660F00",
"7@	c #681203",
"8@	c #A3A3A3",
"9@	c #816756",
"0@	c #A68363",
"a@	c #AF7C5D",
"b@	c #564129",
"c@	c #575757",
"d@	c #271C18",
"e@	c #1D0F0E",
"f@	c #131313",
"g@	c #36322F",
"h@	c #343131",
"i@	c #BCA186",
"j@	c #7E4E41",
"k@	c #874D3F",
"l@	c #88483C",
"m@	c #121007",
"n@	c #4D4845",
"o@	c #514746",
"p@	c #74706F",
"q@	c #868281",
"r@	c #030502",
"s@	c #857F7F",
"t@	c #403434",
"u@	c #3C2725",
"v@	c #070000",
"w@	c #040003",
"x@	c #6B1808",
"y@	c #6F200F",
"z@	c #6D1404",
"A@	c #AF8066",
"B@	c #AE8162",
"C@	c #AE8160",
"D@	c #A8866D",
"E@	c #271815",
"F@	c #1B0D0A",
"G@	c #0B0D0C",
"H@	c #312D2A",
"I@	c #35312E",
"J@	c #12110F",
"K@	c #383431",
"L@	c #BFA383",
"M@	c #0C0201",
"N@	c #884E40",
"O@	c #884D3F",
"P@	c #864B39",
"Q@	c #11170C",
"R@	c #4D4946",
"S@	c #4C4441",
"T@	c #878382",
"U@	c #4D4747",
"V@	c #3B2927",
"W@	c #6C2A1B",
"X@	c #090301",
"Y@	c #251005",
"Z@	c #742818",
"`@	c #6C1B0A",
" #	c #761F15",
".#	c #140706",
"+#	c #AD8262",
"@#	c #AF8160",
"##	c #000207",
"$#	c #1D1D1D",
"%#	c #060000",
"&#	c #281E1C",
"*#	c #1C1714",
"=#	c #332B28",
"-#	c #010001",
";#	c #BDA483",
">#	c #C1A080",
",#	c #130C02",
"'#	c #854A42",
")#	c #894F41",
"!#	c #864C3E",
"~#	c #0D0000",
"{#	c #45413E",
"]#	c #4B4545",
"^#	c #0F0F0E",
"/#	c #524E4D",
"(#	c #433836",
"_#	c #2C140B",
":#	c #722717",
"<#	c #6A291B",
"[#	c #752717",
"}#	c #762D1E",
"|#	c #6F1D0F",
"1#	c #712316",
"2#	c #5A2722",
"3#	c #AE805F",
"4#	c #484A48",
"5#	c #BABABA",
"6#	c #180501",
"7#	c #271614",
"8#	c #BE9D7C",
"9#	c #BEA080",
"0#	c #BEA181",
"a#	c #C3A684",
"b#	c #8F5042",
"c#	c #8E4E4E",
"d#	c #0E0402",
"e#	c #723D2F",
"f#	c #8A453E",
"g#	c #20201E",
"h#	c #4D4C4A",
"i#	c #4D4948",
"j#	c #4B4746",
"k#	c #763222",
"l#	c #742619",
"m#	c #4D1D0F",
"n#	c #751F13",
"o#	c #782F20",
"p#	c #772E1F",
"q#	c #701E10",
"r#	c #140B08",
"s#	c #080000",
"t#	c #AE805C",
"u#	c #AB8465",
"v#	c #696969",
"w#	c #747474",
"x#	c #B99A7B",
"y#	c #BC9D7E",
"z#	c #BFA080",
"A#	c #C1A688",
"B#	c #7B5142",
"C#	c #010E0D",
"D#	c #8B4D3E",
"E#	c #000104",
"F#	c #854C43",
"G#	c #814636",
"H#	c #884A3B",
"I#	c #4E4D4B",
"J#	c #494846",
"K#	c #3E3A39",
"L#	c #843B28",
"M#	c #793122",
"N#	c #71250F",
"O#	c #7B2B23",
"P#	c #7A3122",
"Q#	c #4E2015",
"R#	c #A8825D",
"S#	c #AD7F5E",
"T#	c #181515",
"U#	c #BB9979",
"V#	c #BC9E7F",
"W#	c #BEA483",
"X#	c #040001",
"Y#	c #523B35",
"Z#	c #8D4F44",
"`#	c #1D2416",
" $	c #894A3B",
".$	c #844637",
"+$	c #854A3A",
"@$	c #884B39",
"#$	c #62443C",
"$$	c #6E6560",
"%$	c #904A3A",
"&$	c #7F3D2F",
"*$	c #7A3123",
"=$	c #71230D",
"-$	c #000303",
";$	c #6E1F0E",
">$	c #742217",
",$	c #AD7A5B",
"'$	c #AC7E5D",
")$	c #AE7C59",
"!$	c #909090",
"~$	c #B48E6C",
"{$	c #B89676",
"]$	c #BD9F80",
"^$	c #030001",
"/$	c #865149",
"($	c #28351F",
"_$	c #894D3E",
":$	c #86483B",
"<$	c #874C3E",
"[$	c #83493B",
"}$	c #803D2D",
"|$	c #7B3325",
"1$	c #742616",
"2$	c #643229",
"3$	c #31100B",
"4$	c #7B2116",
"5$	c #AF7C5C",
"6$	c #AB7A5A",
"7$	c #1B0A04",
"8$	c #030100",
"9$	c #B08968",
"0$	c #070602",
"a$	c #854830",
"b$	c #0C0500",
"c$	c #864937",
"d$	c #854836",
"e$	c #884D3B",
"f$	c #884C42",
"g$	c #874B40",
"h$	c #864A3F",
"i$	c #87473B",
"j$	c #753B2F",
"k$	c #000600",
"l$	c #060300",
"m$	c #100C00",
"n$	c #3A3C3B",
"o$	c #772927",
"p$	c #722110",
"q$	c #712212",
"r$	c #000004",
"s$	c #1C100B",
"t$	c #FBFBFB",
"u$	c #000202",
"v$	c #76291B",
"w$	c #7D3528",
"x$	c #804132",
"y$	c #191518",
"z$	c #1D2411",
"A$	c #212A0F",
"B$	c #1D260B",
"C$	c #191D11",
"D$	c #0E1106",
"E$	c #030600",
"F$	c #080B00",
"G$	c #212514",
"H$	c #181D00",
"I$	c #151400",
"J$	c #141100",
"K$	c #494949",
"L$	c #090100",
"M$	c #6F1C0B",
"N$	c #110000",
"O$	c #6F200C",
"P$	c #676767",
"Q$	c #131B06",
"R$	c #1C2409",
"S$	c #1F290E",
"T$	c #222A11",
"U$	c #1F2B13",
"V$	c #1E2A10",
"W$	c #1F290B",
"X$	c #161B03",
"Y$	c #010400",
"Z$	c #090001",
"`$	c #000201",
" %	c #B7B7B7",
".%	c #727272",
"+%	c #525252",
"@%	c #ECECEC",
"#%	c #28202A",
"$%	c #2E292D",
"%%	c #322F3A",
"&%	c #302D38",
"*%	c #2F2C37",
"=%	c #2F2C33",
"-%	c #17161B",
";%	c #2B1F2B",
">%	c #271A24",
",%	c #1B0611",
"'%	c #271621",
")%	c #D7D7D7",
"!%	c #010004",
"~%	c #2E2330",
"{%	c #08080B",
"]%	c #312E39",
"^%	c #302D34",
"/%	c #313034",
"(%	c #2C202B",
"_%	c #281A25",
":%	c #1F0815",
"<%	c #080507",
"[%	c #D8D8D8",
"}%	c #150F14",
"|%	c #1C181D",
"1%	c #2E2834",
"2%	c #33303B",
"3%	c #2F2D3A",
"4%	c #222222",
"5%	c #312B33",
"6%	c #2B212A",
"7%	c #291B28",
"8%	c #24121E",
"9%	c #23131E",
"0%	c #23141D",
"a%	c #281E28",
"b%	c #594E5E",
"c%	c #756D82",
"d%	c #34313C",
"e%	c #302D36",
"f%	c #312E37",
"g%	c #2F2935",
"h%	c #2B212C",
"i%	c #291D29",
"j%	c #271923",
"k%	c #230F1B",
"l%	c #211119",
"m%	c #251821",
"n%	c #231B23",
"o%	c #030105",
"p%	c #716E75",
"q%	c #010003",
"r%	c #2D2731",
"s%	c #271D26",
"t%	c #271D25",
"u%	c #030002",
"v%	c #070002",
"w%	c #060006",
"x%	c #1F2020",
"y%	c #4E4351",
"z%	c #574B5B",
"A%	c #544E60",
"B%	c #2F2D34",
"C%	c #000101",
"D%	c #2C252F",
"E%	c #261A23",
"F%	c #0A090C",
"G%	c #372831",
"H%	c #13020A",
"I%	c #120D00",
"J%	c #161500",
"K%	c #1B1F07",
"L%	c #1E260E",
"M%	c #1E280B",
"N%	c #202A08",
"O%	c #2C222D",
"P%	c #24141E",
"Q%	c #22121C",
"R%	c #4D3F49",
"S%	c #060002",
"T%	c #44303F",
"U%	c #060109",
"V%	c #6A6675",
"W%	c #291E28",
"X%	c #210E19",
"Y%	c #200C17",
"Z%	c #4C3947",
"`%	c #050005",
" &	c #5A3D4C",
".&	c #100B0B",
"+&	c #20020E",
"@&	c #21111B",
"#&	c #110C12",
"$&	c #766B82",
"%&	c #7B6F87",
"&&	c #1D1A1F",
"*&	c #AAAAAA",
"=&	c #0B0509",
"-&	c #1C0811",
";&	c #1B0310",
">&	c #190008",
",&	c #421F2F",
"'&	c #452031",
")&	c #929090",
"!&	c #000001",
"~&	c #020004",
"{&	c #181A04",
"]&	c #1A0009",
"^&	c #180007",
"/&	c #140001",
"(&	c #3D1828",
"_&	c #481F33",
":&	c #ADADAD",
"<&	c #080600",
"[&	c #110E05",
"}&	c #0E0E02",
"|&	c #130101",
"1&	c #0D0100",
"2&	c #3B1522",
"3&	c #431527",
"4&	c #ABABAB",
"5&	c #070200",
"6&	c #502739",
"7&	c #361B2B",
"8&	c #1A0410",
"9&	c #1E0A15",
"0&	c #272727",
"a&	c #120000",
"b&	c #0E0000",
"c&	c #0B0000",
"d&	c #3D0F21",
"e&	c #44081F",
"f&	c #A4A4A4",
"g&	c #140000",
"h&	c #180005",
"i&	c #060100",
"j&	c #3E3E3E",
"k&	c #4F4F4F",
"l&	c #3C3C3C",
"m&	c #6C6C6C",
"n&	c #C6C6C6",
"    .     .     .     .     .     .     .     .     .     .     .     .     .     .     .     .     .     .     .     .     .     .     ",
"    .     .     .     .     .     .     .     .     .     .     .     .     .     .     .     .     .     .     .     .     .     .     ",
". .   . .   . .   . .   . .   . .   . .   . .   . .   . .   . .   . .   . .   . .   . .   . .   . .   . .   . .   . .   . .   . .   . . ",
"    .     .     .     .     .     .     .     .     .     .     . + @ # @   .     .     .     .     .     .     .     .     .     .     ",
"    .     .     .     .     .     .     .     .     .     $ % & * = - ; > , '     .     .     .     .     .     .     .     .     .     ",
". .   . .   . .   . .   . .   . .   . .   . .   . .   . ) ! ~ { ] ^ / ( _ : < [ $   . .   . .   . .   . .   . .   . .   . .   . .   . . ",
"    .     .     .     .     .     .     .     .     .   } | 1 2 3 4 5 6 7 8 9 0 a .     .     .     .     .     .     .     .     .     ",
"    .     .     .     .     .     .     .     .     .   b c d e f g h i j | k l m .     .     .     .     .     .     .     .     .     ",
". .   . .   . .   . .   . .   . .   . .   . .   . .   n o p q r s s t u v w x y z   . .   . .   . .   . .   . .   . .   . .   . .   . . ",
"    .     .     .     .     .     .     .     .     . A B C D E F G H p p I J K L M     .     .     .     .     .     .     .     .     ",
"    .     .     .     .     .     .     .     .     . N O P Q R S T T U V W X V Y M     .     .     .     .     .     .     .     .     ",
". .   . .   . .   . .   . .   . .   . .   . .   . .   Z `  ...+.S S @.#.$.%.&.p H   . .   . .   . .   . .   . .   . .   . .   . .   . . ",
"    .     .     .     .     .     .     .     .     . A *.X =.-.;.S @.H >.,.'.).H M     .     .     .     .     .     .     .     .     ",
"    .     .     .     .     .     .     .     .     ) m !.~.{.].^./.(._.:.V <.[.m }.    .     .     .     .     .     .     .     .     ",
". .   . .   . .   . .   . .   . |.  ) .   . .   . . 1.2.3.4.5.6.7.8.v 9.0.a.b.c.H   . .   . .   . .   . .   . .   . .   . .   . .   . . ",
"    .     .     .     .     ) d.p e.f.  g.    .     . h.i.j.k.l.m.n.o.p.q.r.s.H H |.    .     .     .     .     .     .     .     .     ",
"    .     .     .     .     t.u.v.H w.V x.    .     . y.z.A.B.C.D.E.H F.G.H.I.m J.K.    .     .     .     .     .     .     .     .     ",
". .   . .   . .   . .   . . L.M.N.v O.P.H $ .   . .   $ X Q.R.S.v T.U.V.W.X.Y.m Z.  . .   . .   . .   . .   . .   . .   . .   . .   . . ",
"    .     .     .     .     `. +.+++@+#+$+%+  .     .     &+*+=+-+;+C.>+,+'+)+H   !+    .     .     .     .     .     .     .     .     ",
"    .     .     .     .     n ~+{+]+^+/+$+}   .     .   (+_+:+<+U.[+}+|+1+2+)+3+z f.    .     .     .     $     .     .     .     .     ",
". .   . .   . .   . .   . . 4+5+6+7+8+9+H H [   . .   [ 0+{ a+b+n.o.c+d+e+f+g+h+i+j+k+)   . .   l+m+z ^+n+! . .   . .   . .   . .   . . ",
"    .     .     .     .     a o+p+q+H r+s+m t+[   u+v+w+x+y+z+A+B+}+C+D+E+F+G+H+V I+J+K+L+    . v M+N+M+H g.    .     .     .     .     ",
"    .     .     .     .     O+P+Q+R+S+T+H H U+H V+W+X+Y+Z+`+ @.@+@@@C+m #@$@%@&@*@=@-@z !+    A+;@v >@}   .     .     .     .     .     ",
". .   . .   . .   . .   . .   ,@'@)@H H !@~@{@H G ]@^@/@(@_@:@<@[@v }@|@1@2@3@4@5@=@6@7@H Z.8@9@0@a@b@c@.   . .   . .   . .   . .   . . ",
"    .     .     .     .     . ! d@e@f@r+H g@h@i@j@k@l@m@n@o@v p@q@l.r@s@t@V u@v@w@x@y@z@H !+G A@B@C@D@    .     .     .     .     .     ",
"    .     .     .     .     . Z.E@F@G@H@I@J@K@L@M@N@O@P@Q@R@S@v b+=+T@U@Z V@W@X@Y@x@Z@`@ #.#+#@#C@@###    .     .     .     .     .     ",
". .   . .   . .   . .   . .   . $#%#&#*#=#-#;#>#,#'#)#!#X ~#{#]#^#/#T.=+(#_#:#m <#[#}#|#1#2#3#C@C@3#4#. .   . .   . .   . .   . .   . . ",
"    .     .     .     .     .   5#6#7#! $#8#9#0#a#b#c#N@d#e#f#g#h#v i#j#O k#l#m#n#o#p#q#r#s#t#@#@#u#$     .     .     .     .     .     ",
"    .     .     .     .     .     t.v#  w#x#y#z#A#B#C#D#E#F#G#H#O I#J#K#L#M#l#N#O#P#o#q#V Q#R#S#S#T#.     .     .     .     .     .     ",
". .   . .   . .   . .   . .   . .   . .   5@U#V#W#X#Y#Z#`# $.$+$@$#$$$%$&$*$l#=$-$M#p#;$v >$,$'$)$!$  . .   . .   . .   . .   . .   . . ",
"    .     .     .     .     .     .     . f.~${$]$^$/$H ($_$:$<$<$<$[$:$}$|$1$&.H 2$o#q#3$4$5$6$7$  .     .     .     .     .     .     ",
"    .     .     .     .     .     .     .   8$9$0$a$b$H 5@c$d$e$f$g$h$i$j$k$l$m$4+n$o$q#p$q$r$s$t$  .     .     .     .     .     .     ",
". .   . .   . .   . .   . .   . .   . .   $ u$v$w$x$y$L+z$A$B$C$D$E$F$G$H$I$b$J$m   K$L$M$N$O$P$. .   . .   . .   . .   . .   . .   . . ",
"    .     .     .     .     .     .     .   Z.r+H (+$   H Q$R$S$T$U$V$W$X$Y$F Z$`$.      %.%+%.     .     .     .     .     .     .     ",
"    .     .     .     .     .     .     .     .     . @%#%H $%%%&%*%=%-%;%>%,%'%%#)%    .     .     .     .     .     .     .     .     ",
". .   . .   . .   . .   . .   . .   . .   . .   . .   r+!%~%{%]%%%*%^%/%(%_%:%<%H   . .   . .   . .   . .   . .   . .   . .   . .   . . ",
"    .     .     .     .     .     .     .     .     [%H }%|%1%]%2%3%4%5%6%7%8%9%0%V+    .     .     .     .     .     .     .     .     ",
"    .     .     .     .     .     .     .     .     g.m a%b%c%d%%%e%f%g%h%i%j%k%l%c@    .     .     .     .     .     .     .     .     ",
". .   . .   . .   . .   . .   . .   . .   . .   . a A m%n%o%p%q%]%G H r%s%t%u%v%w%x%. .   . .   . .   . .   . .   . .   . .   . .   . . ",
"    .     .     .     .     .     .     .     .   H V p y%z%A%B%C%H A D%E%F%V G%H%p     .     .     .     .     .     .     .     .     ",
"    .     .     .     .     .     .     .     .   H H I%J%K%L%M%N%4+(+O%P%Q%V q%R%S%    .     .     .     .     .     .     .     .     ",
". .   . .   . .   . .   . .   . .   . .   . .   . H H T%U%H H =.V%)%M W%X%Y%Z%`% &.&. .   . .   . .   . .   . .   . .   . .   . .   . . ",
"    .     .     .     .     .     .     .     .   H H +&@&#&$&%&&&*&  =&-&;&>&,&'&)&    .     .     .     .     .     .     .     .     ",
"    .     .     .     .     .     .     .     .   H H p !&~&-#{&m     H ]&^&/&(&_&:&    .     .     .     .     .     .     .     .     ",
". .   . .   . .   . .   . .   . .   . .   . .   . [ H L$m <&[&}&H $ . H /&|&1&2&3&`.. .   . .   . .   . .   . .   . .   . .   . .   . . ",
"    .     .     .     .     .     .     .     .     4&5&6&7&8&9&[     0&a&b&c&d&e&f&    .     .     .     .     .     .     .     .     ",
"    .     .     .     .     .     .     .     .     |.z s#b&g&h&n     n c&i&^+H V n     .     .     .     .     .     .     .     .     ",
". .   . .   . .   . .   . .   . .   . .   . .   . .   H p 8$%#c&4+. . 4+p H H H H +%. .   . .   . .   . .   . .   . .   . .   . .   . . ",
"    .     .     .     .     .     .     .     .     . H m H m m n     n H H H H H d.    .     .     .     .     .     .     .     .     ",
"    .     .     .     .     .     .     .     .     . A H H H H n     n H H H H H |.    .     .     .     .     .     .     .     .     ",
". .   . .   . .   . .   . .   . .   . .   . .   . .   n H H H H +%. . j&H H H H H   . .   . .   . .   . .   . .   . .   . .   . .   . . ",
"    .     .     .     .     .     .     .     .     . )%H H H H )     M H H H H A .     .     .     .     .     .     .     .     .     ",
"    .     .     .     .     .     .     .     .     .   H H H H M     M H H H H k&.     .     .     .     .     .     .     .     .     ",
". .   . .   . .   . .   . .   . .   . .   . .   . .   [ f@r+H H   . .   H H f@s+f@@ . .   . .   . .   . .   . .   . .   . .   . .   . . ",
"    .     .     .     .     .     .     .     .     M 4+4+n 4+l&$     . 5#@ # @ m&n&    .     .     .     .     .     .     .     .     ",
"    .     .     .     .     .     .     .     .     .     .     .     .     .     .     .     .     .     .     .     .     .     .     ",
". .   . .   . .   . .   . .   . .   . .   . .   . .   . .   . .   . .   . .   . .   . .   . .   . .   . .   . .   . .   . .   . .   . . ",
"    .     .     .     .     .     .     .     .     .     .     .     .     .     .     .     .     .     .     .     .     .     .     "};
